<svg xmlns="http://www.w3.org/2000/svg" xmlns:xlink="http://www.w3.org/1999/xlink" width="25" height="24.287" viewBox="0 0 25 24.287">
  <defs>
    <clipPath id="clip-path">
      <rect id="長方形_28" data-name="長方形 28" width="25" height="24.287" fill="none"/>
    </clipPath>
  </defs>
  <g id="アートワーク_1" data-name="アートワーク 1" transform="translate(12.5 12.144)">
    <g id="グループ_21" data-name="グループ 21" transform="translate(-12.5 -12.144)" clip-path="url(#clip-path)">
      <path id="パス_352" data-name="パス 352" d="M25.056,8.971A14.438,14.438,0,0,0,24.52,4.5a6.277,6.277,0,0,0-3.9-3.9A14.377,14.377,0,0,0,15.95.026Q12.467.021,8.985.036C8.243.065,7.5.057,6.758.14A7.457,7.457,0,0,0,2.565,1.692,6.347,6.347,0,0,0,.436,5.072a19.66,19.66,0,0,0-.371,3.9c0,2.177-.01,4.351,0,6.528a14.126,14.126,0,0,0,.6,4.493,6.279,6.279,0,0,0,3.87,3.766,11.65,11.65,0,0,0,3.911.529c1.161.046,2.321.019,3.482.024,2.095-.056,4.195.053,6.286-.106a7.329,7.329,0,0,0,4.732-1.921,7.037,7.037,0,0,0,2.022-4.836c.157-2.821.06-5.648.088-8.473M22.7,17.557a6.466,6.466,0,0,1-.432,1.843,4.043,4.043,0,0,1-2.513,2.291,12.074,12.074,0,0,1-3.361.42c-2,0-3.992.065-5.988.009a28.547,28.547,0,0,1-3.815-.133,4.573,4.573,0,0,1-3.34-1.836,7.633,7.633,0,0,1-.907-4.111c0-1.743-.026-3.485-.007-5.228.026-1.089-.029-2.182.056-3.271A5.338,5.338,0,0,1,3.82,3.576C5.015,2.414,6.778,2.312,8.349,2.256,11.026,2.2,13.7,2.2,16.383,2.218c1.543.082,3.233.051,4.538,1.007a4.358,4.358,0,0,1,1.705,2.966,29.925,29.925,0,0,1,.158,4.077c.037,1.305.029,2.612,0,3.917.014,1.123-.007,2.248-.083,3.369" transform="translate(-0.06 -0.025)" fill="#222"/>
      <path id="パス_353" data-name="パス 353" d="M1034.03,240.259a1.548,1.548,0,0,0-.965,1.809,1.605,1.605,0,0,0,1.967,1.132,1.555,1.555,0,0,0,1.121-1.93,1.606,1.606,0,0,0-2.124-1.011" transform="translate(-1015.439 -236.049)" fill="#222"/>
      <path id="パス_354" data-name="パス 354" d="M367.785,347.407a6.531,6.531,0,0,0-9.092,1.817,6.166,6.166,0,0,0-.795,4.874,6.245,6.245,0,0,0,2.762,3.722,6.549,6.549,0,0,0,4.571.878,6.444,6.444,0,0,0,4.46-3.058,6.144,6.144,0,0,0,.679-4.564,6.241,6.241,0,0,0-2.583-3.667m-.317,7.528a4.217,4.217,0,0,1-2.99,1.632,4.146,4.146,0,0,1-4.389-3,3.982,3.982,0,0,1,.747-3.5,4.251,4.251,0,0,1,2.6-1.515,4.192,4.192,0,0,1,4.632,2.711,3.97,3.97,0,0,1-.6,3.674" transform="translate(-351.617 -340.405)" fill="#222"/>
    </g>
  </g>
</svg>
