<svg xmlns="http://www.w3.org/2000/svg" width="54" height="54.18" viewBox="0 0 54 54.18">
  <path id="パス_26782" data-name="パス 26782" d="M50.1-49.5a54.7,54.7,0,0,1,.54,8.46V-3.48c0,2.52-.84,3.24-3.18,3.24h-.3a51.4,51.4,0,0,1-5.7-.78H41.4c-.36,0-.6.54-.6,1.02a.751.751,0,0,0,.48.78c4.02.72,5.1.9,5.52,1.5a4.7,4.7,0,0,1,.6.9,1.115,1.115,0,0,0,.9.54c1.38,0,5.64-1.86,5.64-6.18v-.12c0-.9-.18-5.64-.18-6.54V-46.5c1.08-.24,1.92-.9,1.92-1.44C55.68-49.2,51.3-49.44,50.1-49.5Zm-5.4,5.04c0-.9-1.2-1.08-5.28-1.62a67.736,67.736,0,0,1,.48,7.68v12.12c0,1.68-.12,8.58-.36,13.26-.06,1.44-.12,3-.12,3v.18c0,.78.66,1.08,1.44,1.08,2.04,0,2.16-1.02,2.16-1.38,0-.72-.18-3.18-.18-3.78-.06-2.22-.12-4.5-.12-6.54,0-2.7.06-4.92.06-5.82V-42.96C44.28-43.32,44.7-44.04,44.7-44.46Zm-10.38,6.9a6.2,6.2,0,0,0-.48-1.98c-.78-2.04-8.4-6.24-12.18-7.86.84-.06,1.26-.42,1.26-.84s-.42-1.02-4.32-2.22C17.22-45,9.54-36.18,1.92-31.02c-.06.06-.12.12-.12.18a1.082,1.082,0,0,0,.9.9c.24,0,3.96-1.8,9.24-6.84.24.42.48.9.72,1.26,1.08-.12,3.72-.18,4.74-.18H28.86c.6,0,1.02-.24,1.02-.66,0-.96-3.54-3.42-3.78-3.42s-.72.6-1.32,1.32c-.3.42-.6.84-.84,1.2H18.96a46.356,46.356,0,0,1-6.18-.36,64.489,64.489,0,0,0,7.56-8.94c3.54,2.1,8.76,6.3,10.92,9.12.72.96,1.38,1.38,1.92,1.38C33.78-36.06,34.32-36.6,34.32-37.56ZM31.8-30.9l-.12-.12c-1.38-1.26-1.92-1.62-2.22-1.62-.12,0-.18.06-.3.12a14.02,14.02,0,0,0-1.32,1.38H12.24a28.031,28.031,0,0,0-3.78-1.92,25.13,25.13,0,0,1,.6,4.5c.18,3.54.18,5.46.18,5.94,0,9.42-2.16,16.68-7.5,22.5A.209.209,0,0,0,1.68,0a1.232,1.232,0,0,0,.96.9c.42,0,7.8-5.76,9.12-18.12H28.08v1.14c0,.48.42.6.78.66a3.17,3.17,0,0,0,.78-.06c.78-.06,1.38-.36,1.38-.96v-.06c0-.24-.06-1.5-.06-1.74-.12-1.5-.12-4.14-.12-5.16v-5.46c1.14-.24,1.5-.66,1.5-1.08A1.415,1.415,0,0,0,31.8-30.9ZM30.3-13.32c-.06,0-.12,0-.24.12l-1.44,1.26H15.78a12.232,12.232,0,0,0-3.66-1.62,16.2,16.2,0,0,1,.42,4.38v6.54c0,1.02-.12,1.98-.18,2.76-.12,1.02-.18,1.98-.18,2.04V2.4c0,.78.48,1.02,1.14,1.02,1.8,0,1.92-.66,1.92-2.64,0-.24,0-.84-.06-1.44H29.04c-.06.72-.06,2.4-.06,2.64,0,.54.3.9,1.32.9,1.68,0,1.68-1.08,1.68-1.14,0-.18-.12-1.74-.18-2.34,0-.54-.12-1.2-.12-2.7V-9.42c.48-.12,1.8-.48,1.8-1.2C33.48-11.4,30.84-13.32,30.3-13.32ZM28.14-25.26H11.94c-.06-1.26-.06-2.88-.12-4.26H28.14Zm0,1.62v4.8H11.94c.06-.96.06-1.92.06-2.88v-1.92ZM29.1-2.88a2.251,2.251,0,0,1-.06.6H15.18c0-1.44,0-5.82.06-8.04H29.1Z" transform="translate(-1.68 50.46)"/>
</svg>
