<svg xmlns="http://www.w3.org/2000/svg" width="57.48" height="54.78" viewBox="0 0 57.48 54.78">
  <path id="パス_26783" data-name="パス 26783" d="M58.74-.48A25.715,25.715,0,0,1,44.1-8.82a47.13,47.13,0,0,0,8.58-5.52,6.479,6.479,0,0,0,1.5.3c.9,0,1.02-.48,1.02-.72,0-.9-2.58-2.76-4.2-3.48-.66,2.76-5.28,6.66-7.8,8.28a41.981,41.981,0,0,1-5.34-9.18H57c.72,0,1.02-.42,1.02-.84,0-1.08-3.84-3.36-4.08-3.48a.853.853,0,0,0-.36-.12,1.014,1.014,0,0,0-.3.12,18.486,18.486,0,0,0-2.22,2.64H38.16v-6.06H49.14c0,.72-.06,1.56-.06,1.74,0,.66.3,1.02,1.26,1.02,1.56,0,1.68-.78,1.68-1.32,0-.18-.06-.96-.06-1.62-.06-.6-.18-2.82-.18-3.48V-35.7c1.44-.48,1.86-1.02,1.86-1.44a1.118,1.118,0,0,0-.48-.84,6.634,6.634,0,0,0-2.82-1.92c-.12,0-.18.06-.3.18a15.144,15.144,0,0,0-1.56,1.74H38.04l.06-4.92H55.5c.72,0,1.02-.42,1.02-.84,0-.78-3.54-3.48-4.56-3.48a.506.506,0,0,0-.42.12c-.78.84-1.56,1.62-2.28,2.52H38.1v-2.64c.96-.24,2.1-.78,2.1-1.56,0-.48-.66-1.2-4.68-1.2H35.1a33.559,33.559,0,0,1,.36,4.44v.96H31.8c-1.8,0-9.9-.12-13.08-.54a4.9,4.9,0,0,0,1.02,2.64c3.12-.36,9.72-.42,10.5-.42h5.22v4.92H26.22a17.994,17.994,0,0,0-3.6-1.8,32.417,32.417,0,0,1,.48,5.64v3.78a11.642,11.642,0,0,1-.06,1.62c0,.48-.06.96-.06,2.04a15.447,15.447,0,0,1-.18,1.68c0,.96.36,1.32,1.02,1.32.36,0,1.92-.06,1.92-1.32a9.29,9.29,0,0,1-.06-1.32v-.54h9.78v6.06H30.42a124.6,124.6,0,0,1-12.66-.48,3.857,3.857,0,0,0,1.02,2.52c3.12-.3,7.14-.36,10.08-.36h3.72a39.956,39.956,0,0,1-17.4,12.9.45.45,0,0,0-.3.48.922.922,0,0,0,.84.96,54.472,54.472,0,0,0,13.74-7.44v9.18c-7.2,1.92-8.58,2.04-9.42,2.04h-.48C21.24,3.24,21.6,4.2,22.44,4.2a1.014,1.014,0,0,0,.3-.12,2.607,2.607,0,0,0,.6-1.92v-.3A213.223,213.223,0,0,0,43.62-6c5.94,7.08,11.1,8.7,11.46,8.7.12,0,.18,0,.24-.12l.06-.06A6.152,6.152,0,0,1,58.5.9c.3-.06.54-.54.54-.9C59.04-.24,58.98-.42,58.74-.48ZM20.58-29.76c0-2.88-4.2-9.18-5.28-9.18-.42,0-.78.24-.78.54,0,.12,0,.18.06.24a19.212,19.212,0,0,1,2.88,9.3c.12,1.44.54,2.1,1.2,2.1C19.98-26.76,20.58-29.16,20.58-29.76Zm-5.1-18.96c0-.42-.36-.78-1.26-.96-1.14-.24-2.94-.24-4.32-.36a63.382,63.382,0,0,1,.54,10.86v23.46c0,1.74-.06,11.88-.3,16.74-.12,1.5-.12,2.52-.12,2.52v.18c0,.54.18,1.02,1.02,1.02.3,0,.6-.06.9-.06A1.518,1.518,0,0,0,13.56,3.3c0-.72-.06-1.08-.06-1.74-.18-3.36-.18-6.6-.18-17.28V-47.16C14.16-47.28,15.48-47.82,15.48-48.72ZM7.62-37.74c0-.18-.36-.3-.66-.3-.42,0-.78.12-.78.48-.06,5.04-1.5,9.66-3.84,11.46a2.2,2.2,0,0,0-.78,1.8c0,1.44.6,2.34,1.5,2.34,2.46,0,4.68-6.42,4.68-13.02A21.243,21.243,0,0,0,7.62-37.74ZM49.2-29.88a11.09,11.09,0,0,1-.06,1.44H42.42v-7.98H49.2Zm-9.24,1.44H33.9v-7.98h6.06Zm-8.52,0H25.62v-7.98h5.82ZM42.66-7.26a108.936,108.936,0,0,1-10.5,3.42V-14.46a58.154,58.154,0,0,0,4.2-4.32A40.387,40.387,0,0,0,42.66-7.26Z" transform="translate(-1.56 50.04)"/>
</svg>
