<svg xmlns="http://www.w3.org/2000/svg" xmlns:xlink="http://www.w3.org/1999/xlink" width="250" height="79.681" viewBox="0 0 250 79.681">
  <defs>
    <clipPath id="clip-path">
      <rect id="長方形_915" data-name="長方形 915" width="250" height="79.681" fill="none"/>
    </clipPath>
  </defs>
  <g id="SANDOW_KYOTO" data-name="SANDOW KYOTO" transform="translate(125 39.841)">
    <g id="グループ_798" data-name="グループ 798" transform="translate(-125 -39.841)" clip-path="url(#clip-path)">
      <path id="パス_15599" data-name="パス 15599" d="M8.5,22.659h0a.423.423,0,0,1,.564-.423.423.423,0,0,1,.423.282,9.729,9.729,0,0,0,2.256,4.512A5.64,5.64,0,0,0,15.691,29,3.666,3.666,0,0,0,19.64,25.2c0-2.256-2.115-3.666-4.512-4.653S9.064,17.16,9.064,14.2s3.243-5.5,6.063-5.5a9.024,9.024,0,0,1,4.23,1.128H19.5l.846-.705.564-.282c.141,0,.282.141.282.423l.423,5.922a.564.564,0,0,1-.564.423l-.423-.282c-1.128-3.948-2.679-5.781-5.358-5.781a3.243,3.243,0,0,0-3.384,3.243c0,1.974,1.692,2.961,4.653,4.23S22.6,20.262,22.6,23.646s-3.525,6.2-7.05,6.2A10.293,10.293,0,0,1,10.9,28.582h-.282l-1.128.846-.423.282c-.141,0-.282-.141-.282-.423Z" transform="translate(3.485 3.567)"/>
      <path id="パス_15600" data-name="パス 15600" d="M46.477,29.651c-.423,0-.564-.141-.564-.423a.705.705,0,0,1,.282-.564c.987,0,1.833-.141,1.833-.846a57.812,57.812,0,0,0-1.974-5.781H39.286a.423.423,0,0,0-.564.282,44.984,44.984,0,0,0-1.833,5.217c0,.987,1.833.987,2.538.987a.564.564,0,0,1,.282.423.374.374,0,0,1-.423.423H33.223c-.423,0-.423-.141-.423-.282a2.067,2.067,0,0,1,.282-.564,2.4,2.4,0,0,0,2.538-1.41,51.387,51.387,0,0,0,2.115-5.358l3.807-10.011c.141-.564.141-1.269.705-1.551a3.384,3.384,0,0,0,1.128-1.269c.141-.282.282-.423.564-.423s.564.846.705,1.269c1.833,4.512,4.653,12.267,6.345,16.5.846,1.974.987,2.4,2.679,2.538a.564.564,0,0,1,.282.423.423.423,0,0,1-.423.423Zm-3.948-17.2-3.1,8.319h6.2Z" transform="translate(13.449 3.485)"/>
      <path id="パス_15601" data-name="パス 15601" d="M78.961,14.54c0-4.23,0-4.512-2.961-4.653a.705.705,0,0,1-.282-.564.374.374,0,0,1,.423-.423h6.909a.374.374,0,0,1,.423.423.846.846,0,0,1-.282.564c-2.679.282-2.961.282-2.961,4.371v14.1c0,.846,0,1.551-.564,1.551s-.846-.564-1.128-.987c-1.551-2.679-8.037-11-12.126-15.933V23.846c0,3.948,0,4.371,3.1,4.653a.705.705,0,0,1,.282.564.374.374,0,0,1-.423.423h-7.05a.374.374,0,0,1-.423-.423.705.705,0,0,1,.282-.564c2.82-.141,2.961-.423,2.961-4.512V12.566c0-1.974-.141-2.538-2.679-2.679a.564.564,0,0,1-.282-.564c0-.141.141-.423.564-.423h4.935c.705,0,.423.564.846.987l10.434,13.4Z" transform="translate(25.381 3.649)"/>
      <path id="パス_15602" data-name="パス 15602" d="M92.564,29.4a.423.423,0,0,1-.423-.423.564.564,0,0,1,.282-.423c1.833-.141,1.974-.282,2.115-1.128a54.288,54.288,0,0,0,.141-5.781v-5.64a30.739,30.739,0,0,0-.141-5.217c-.141-.564-.564-.846-2.256-.846a.437.437,0,0,1,.141-.846h8.742c6.063,0,10.152,3.384,10.152,10.152s-2.82,10.293-9.87,10.293Zm9.024-.987c3.1,0,6.2-3.384,6.2-9.447s-3.243-9.024-6.909-9.024H99.755c-1.41,0-1.692.423-1.833,1.692V24.469a19.459,19.459,0,0,0,.141,2.679c.141.846.846,1.269,2.4,1.269Z" transform="translate(37.723 3.731)"/>
      <path id="パス_15603" data-name="パス 15603" d="M121.1,19.457c0-5.5,3.384-10.857,9.588-10.857s9.729,5.217,9.729,10.575-3.384,11-9.588,11S121.1,24.956,121.1,19.457m15.51-.141c0-4.653-1.269-9.729-6.063-9.729s-5.64,5.076-5.64,9.729,1.41,9.87,6.063,9.87,5.64-5.217,5.64-9.87" transform="translate(49.656 3.526)"/>
      <path id="パス_15604" data-name="パス 15604" d="M176.642,8.9a.374.374,0,0,1,.423.423.564.564,0,0,1-.423.564c-1.692.141-1.974.705-2.4,1.833s-3.525,11.7-5.358,17.484c-.141.423-.423.846-.846.846s-.564-.423-.846-.987c-1.41-4.371-3.666-10.293-4.794-13.818-1.269,3.948-2.961,10.152-4.23,14.1-.141.423-.282.846-.846.846s-.705-.423-.846-.846c-2.115-6.486-4.512-13.677-5.781-17.484-.423-1.269-.564-1.692-2.115-1.833a.564.564,0,0,1-.282-.423.423.423,0,0,1,.423-.423h6.627a.374.374,0,0,1,.423.423.564.564,0,0,1-.423.423c-.846,0-1.41.141-1.41.705s3.525,11.421,4.371,13.959c1.41-4.23,2.82-9.306,3.384-11.28l-.564-1.692c-.564-1.41-.705-1.692-2.115-1.833a.564.564,0,0,1-.282-.423.423.423,0,0,1,.423-.423h6.768a.374.374,0,0,1,.423.423.564.564,0,0,1-.282.564c-1.128.141-1.551.282-1.551.705h0c.705,2.4,2.82,9.165,4.653,14.1a140.576,140.576,0,0,0,3.807-13.677c0-.846-.564-1.128-2.256-1.269a.564.564,0,0,1-.282-.423.423.423,0,0,1,.423-.423Z" transform="translate(60.809 3.649)"/>
      <path id="パス_15605" data-name="パス 15605" d="M70.563,50.752h-.282V50.47c.423,0,.846,0,.846-.282v-.564a42.481,42.481,0,0,0-3.1-3.948l-.564.564v1.551a18.608,18.608,0,0,0,0,2.115c0,.423.282.564.987.564v.282a.282.282,0,0,1-.282.282H64.641v-.282c.564-.141.987,0,.987-.564v-6.2a23.265,23.265,0,0,0,0-2.4c0-.282-.141-.564-1.128-.564v-.282h4.23v.282c-1.128,0-1.128,0-1.128,2.538v1.833l3.807-3.807v-.282c0-.282-.564-.423-.987-.423V40.6h3.384a.282.282,0,0,1,.282.282v.282a2.679,2.679,0,0,0-1.692.846l-2.82,2.82,3.666,4.653c.564.705.705.987,1.41.987v.282a.3.3,0,0,1-.282.282Z" transform="translate(26.448 16.648)"/>
      <path id="パス_15606" data-name="パス 15606" d="M79.5,50.711H79.22v-.282c.987,0,1.41-.141,1.41-1.128V46.058l-2.82-4.089c-.564-.846-.846-.987-1.41-.987V40.7h4.23v.282c-.423,0-.987,0-.987.282l.282.423,2.4,3.525a25.1,25.1,0,0,0,2.256-3.807c0-.423-.564-.423-1.128-.423V40.7h3.384v.282a1.551,1.551,0,0,0-1.41.846l-2.538,3.807a.846.846,0,0,0-.141.564v1.41a14.1,14.1,0,0,0,0,2.115c.141.423.423.564,1.41.564v.282H79.5Z" transform="translate(31.327 16.689)"/>
      <path id="パス_15607" data-name="パス 15607" d="M89.005,45.8c0-2.82,1.692-5.5,4.794-5.5a4.935,4.935,0,0,1,4.935,5.358c0,2.679-1.692,5.5-4.794,5.5A4.935,4.935,0,0,1,89.005,45.8m7.755-.141c0-2.256-.705-4.794-3.1-4.794s-2.82,2.538-2.82,4.794.705,4.935,3.1,4.935,2.82-2.538,2.82-4.935" transform="translate(36.488 16.525)"/>
      <path id="パス_15608" data-name="パス 15608" d="M103.879,50.711H103.6v-.282c.564,0,1.269,0,1.41-.564a24.254,24.254,0,0,0,0-2.538v-6.2H103.6c-.846,0-1.692,1.551-1.974,2.538H101.2l.423-2.679c0-.282.141-.282.282-.282h8.037c.141,0,.282,0,.282.282l.423,2.679h-.423c-.282-.564-.987-2.538-2.115-2.538H106.7a16.776,16.776,0,0,0,0,1.974v3.948a20.3,20.3,0,0,0,0,2.679c.141.423.423.564,1.41.564v.282c0,.141,0,.141-.282.141Z" transform="translate(41.496 16.689)"/>
      <path id="パス_15609" data-name="パス 15609" d="M113.505,45.8c0-2.82,1.692-5.5,4.794-5.5a4.935,4.935,0,0,1,4.935,5.358c0,2.679-1.692,5.5-4.794,5.5a4.935,4.935,0,0,1-4.935-5.358m7.755-.141c0-2.256-.705-4.794-3.1-4.794s-2.82,2.538-2.82,4.794.705,4.935,3.1,4.935,2.82-2.538,2.82-4.935" transform="translate(46.534 16.525)"/>
    </g>
  </g>
</svg>
