<svg xmlns="http://www.w3.org/2000/svg" xmlns:xlink="http://www.w3.org/1999/xlink" width="160" height="146.009" viewBox="0 0 160 146.009">
  <defs>
    <clipPath id="clip-path">
      <rect id="長方形_12" data-name="長方形 12" width="160" height="146.009" fill="none"/>
    </clipPath>
  </defs>
  <g id="参道商店" transform="translate(80 73.005)">
    <g id="グループ_15" data-name="グループ 15" transform="translate(-80 -73.005)" clip-path="url(#clip-path)">
      <path id="パス_236" data-name="パス 236" d="M119.722,61.205c-.744-.093-4.558-.558-5.209-.744a86.419,86.419,0,0,1-21.4-9.4L90.7,49.577c-1.953-1.3-4.279-2.791-5.4-3.349l.744-.372a1.674,1.674,0,0,0,.93-1.488,3.256,3.256,0,0,0-3.442-3.07l-2.977.186h-.372l-.279,2.233.186.186c.465.372.558.558.558.651S75.443,50.88,65.769,56.182c-3.721,2.14-14.14,6.047-17.4,6.047-1.4,0-1.674.558-1.674,1.023,0,2.512,3.628,3.442,6.047,3.442s8.651-2.419,16.93-7.535a46.418,46.418,0,0,0,5.209-3.814l2.14-1.674L80,51.345l2.6-2.047c.837.186,1.86.837,8,5.209,10.977,7.721,18.419,11.628,22.14,11.628,1.674,0,5.3-.744,6.047-2.047a11.535,11.535,0,0,0,1.3-2.512v-.465Z" transform="translate(-3.257 -2.88)" fill="#1a1a1a"/>
      <path id="パス_237" data-name="パス 237" d="M71.257,42.012c-.651,0-1.3.372-1.3.93a1.489,1.489,0,0,0,.186.558v.186h0c-.558,1.674-2.977,3.442-4.279,3.442s-5.116-1.116-5.116-1.86,3.442-2.791,4.279-3.163,2.791-1.3,2.791-2.326-3.07-3.07-5.674-2.884h-.186v.651a2.791,2.791,0,0,0,.186.651v.651h0a18.282,18.282,0,0,1-3.349,3.907c-3.163,2.233-3.535,2.419-5.767,2.7S50.7,48.524,50.7,49.547a1.4,1.4,0,0,0,1.4,1.4c.372,0,.558-.093,1.209-.465a7.685,7.685,0,0,1,2.233-1.023,13.023,13.023,0,0,1,3.535.651c3.256.93,4.558,1.3,5.581,1.3s2.884-1.209,5.488-2.791h.093l1.86-1.023c1.209-.186,2.233-.372,2.233-2.326a3.256,3.256,0,0,0-3.256-3.349" transform="translate(-3.536 -2.57)" fill="#ff8c00"/>
      <path id="パス_238" data-name="パス 238" d="M96.939,33.782h.186l1.488.372a2.871,2.871,0,0,0,2.233-2.419c0-.93-1.4-1.767-2.047-2.14l-.651-.372c-1.767-1.116-3.535-2.233-4.186-2.233a2.791,2.791,0,0,0-1.4.465h-.093a10.418,10.418,0,0,0-.093,2.512v.279h-.093c-3.349,2.233-4.093,2.233-8.837,2.233l-3.814-.837h-.279v-.186c.093-.279.372-.372,1.3-.93l.465-.186c3.535-1.86,3.907-2.14,5.3-2.233s.651-.279,1.3-1.023h.093l.186-.186h0c-1.116-1.953-4-2.7-5.581-2.7a1.953,1.953,0,0,0-1.023.279h-.186v.558a1.489,1.489,0,0,1,.093.465c0,.837-2.7,2.884-5.209,4.465s-3.07,1.674-4.558,1.674A4.093,4.093,0,0,0,68.1,34.619a2.325,2.325,0,0,0,.837,1.488h0l1.116.279h.279a24,24,0,0,1,4.558-.558,17.954,17.954,0,0,1,3.349.372l.558.186,2.6.651c5.209,0,8.744-.558,10.791-1.674s2.7-1.488,3.628-1.488l.93.279" transform="translate(-4.753 -1.689)" fill="#ff8c00"/>
      <path id="パス_239" data-name="パス 239" d="M115.647,41.462h-.186c-1.023-1.4-1.4-1.488-3.349-1.767h-.186a1.116,1.116,0,0,0-.465.744h0v.279a1.954,1.954,0,0,1,.186.744c0,.93-3.07,3.163-4.372,3.163l-2.6-.744-1.209-.372h-.093c-.837-.279-1.488-.465-1.488-1.023s1.767-1.674,2.977-2.14l2.047-.465H107l2.14-.465h.093v-.279a3.533,3.533,0,0,0,.093-.744c0-1.86-3.535-2.791-5.023-2.791h-.465a2.512,2.512,0,0,0-.279,1.116h-.093A33.581,33.581,0,0,1,95,42.857h0v.186c-.093,1.86-.093,2.977.465,3.535a1.023,1.023,0,0,0,.744.279l1.4-.372h.093l1.4-.372,2.419.744,1.023.372c2.6.93,2.884,1.023,4,1.023a10.512,10.512,0,0,0,7.628-2.791h.093c1.4-.279,2.7-.837,2.7-2.047a1.581,1.581,0,0,0-.186-.744c-.093-.279-.372-.651-1.3-1.4" transform="translate(-6.623 -2.485)" fill="#ff8c00"/>
      <path id="パス_240" data-name="パス 240" d="M131.7,11.972l.465-.372c.186,0,.279.093.372.372a1.86,1.86,0,0,1-.279,1.023,13.673,13.673,0,0,1-1.488,2.233h.093a2.046,2.046,0,0,1,.372,1.4q-.093,2.14-.093,4.744v3.628a2.6,2.6,0,0,1-.279,1.86c-.279.279-.558.372-.837,0a2.046,2.046,0,0,1-.372-1.581c0-1.674.093-3.535.093-5.4V16.437a6.419,6.419,0,0,1-1.488,1.116,1.3,1.3,0,0,1-1.209,0,.93.93,0,0,1-.465-.837.744.744,0,0,1,.558-.744,8.837,8.837,0,0,0,3.07-2.047,12.465,12.465,0,0,0,1.767-1.953m7.442,6.884-.186.558.558.651c1.581,1.3,2.884,2.419,4.093,3.256a19.257,19.257,0,0,0,2.6,1.581c.558.186.744.465.372.837a4.093,4.093,0,0,1-1.581.837,1.3,1.3,0,0,1-1.488-.465c-1.3-1.581-2.6-3.163-3.907-4.465a2.884,2.884,0,0,0-1.023-.651h-.186l-.279.558a10.978,10.978,0,0,1-1.953,2.326,9.861,9.861,0,0,1-1.86,1.488,2.6,2.6,0,0,1-1.581.558,1.3,1.3,0,0,1-.837-.558,1.116,1.116,0,0,1-.279-.744c0-.186.279-.372.651-.465a7.256,7.256,0,0,0,2.7-1.3,8.837,8.837,0,0,0,2.047-1.953,5.116,5.116,0,0,0,.93-2.419v-.372l-3.256.372a1.36,1.36,0,0,1-1.4-.186c-.279-.279-.093-.651.279-1.209a1.488,1.488,0,0,1,1.4-.558l3.07.279c0-.744,0-1.674-.093-2.791a1.488,1.488,0,0,1,.186-.93.651.651,0,0,1,.651-.372.837.837,0,0,1,.651.279,1.116,1.116,0,0,1,.186.837v2.977h4.186c.651,0,1.116,0,1.209.279a.744.744,0,0,1-.093.837c-.186.279-.651.372-1.209.372H139.8q-.019.56-.093,1.116m3.907-6.047a.558.558,0,0,1,.372.744,4.094,4.094,0,0,1-.465.93l-.651.93a.966.966,0,0,1-.744.465c-.186,0-.186-.279-.186-.651l.372-1.581a1.4,1.4,0,0,1,.465-.837.744.744,0,0,1,.837,0" transform="translate(-8.821 -0.809)" fill="#1a1a1a"/>
      <path id="パス_241" data-name="パス 241" d="M139.847,90.639a1.86,1.86,0,0,1-1.209.186h-.744v.186a19.371,19.371,0,0,0-.186,2.047,1.675,1.675,0,0,0,.465,1.023,1.953,1.953,0,0,0,1.116.651l2.326.186a6.791,6.791,0,0,0,2.326-.279,7.628,7.628,0,0,0,1.767-.837c.465-.372.744-.186.651.465a4.837,4.837,0,0,1-.744,1.953,1.3,1.3,0,0,1-1.581.651,26.14,26.14,0,0,1-4.744-.651,4.093,4.093,0,0,1-2.419-1.209,2.512,2.512,0,0,1-.465-1.4c0-1.3-.093-2.233-.093-2.7H135.2l-.279.651a13.4,13.4,0,0,1-1.4,1.581,10.142,10.142,0,0,1-1.674,1.674l-1.86,1.4a2.419,2.419,0,0,1-2.047.279,1.581,1.581,0,0,1-.744-.837c-.093-.372.186-.558.744-.744a10.883,10.883,0,0,0,2.419-1.023,6.884,6.884,0,0,0,2.047-1.488l1.023-1.3h-.372a1.3,1.3,0,0,1-1.209-.186,1.767,1.767,0,0,1-.465-1.3V84.778a14.243,14.243,0,0,0,0-1.488,1.183,1.183,0,0,1,1.209-1.488h6.046a3.814,3.814,0,0,1,1.488.372.93.93,0,0,1,.465.93c0,2.14-.093,4.372-.093,6.419a1.209,1.209,0,0,1-.651,1.209m-.744-3.907V85.616h-6.512v1.116H139.1m-.093-2.326a4.744,4.744,0,0,0-.186-1.3H135.94a9.581,9.581,0,0,0-2.977.186,1.86,1.86,0,0,0-.279,1.116H139.1m-5.86,4.93h5.674a2.418,2.418,0,0,0,.279-1.209h-6.326a2.7,2.7,0,0,0,.372,1.3" transform="translate(-8.871 -5.709)" fill="#1a1a1a"/>
      <path id="パス_242" data-name="パス 242" d="M29.282,26.746c-.186.279-.372.465-.558.465s-.372-.279-.558-.651a6.512,6.512,0,0,1-.186-2.233V20.234l-.558.837a7.907,7.907,0,0,1-1.4,1.3,2.7,2.7,0,0,1-1.767.558.651.651,0,0,1-.558-.651c0-.279.372-.651,1.023-1.023a9.581,9.581,0,0,0,2.14-1.488A4.837,4.837,0,0,0,28.166,18v-.837h-.279l-2.233.279a.93.93,0,0,1-1.023-.372c-.186-.279.093-.651.744-1.023a2.791,2.791,0,0,1,1.953-.372h.837v-.744a4.744,4.744,0,0,0-.093-1.3H26.306a.426.426,0,0,1-.465-.372c0-.186.093-.279.372-.372a11.256,11.256,0,0,0,2.419-.465l1.116-.744c.279-.279.651-.279,1.023.093a1.116,1.116,0,0,1,.372,1.116.744.744,0,0,1-.837.558h-.558a3.163,3.163,0,0,0-.186,1.3c0,.279,0,.651,0,1.023l1.674.186c.372.093.651.186.744.372s0,.279-.372.465a2.7,2.7,0,0,1-1.4.186h-.651V25.35a2.977,2.977,0,0,1-.186,1.3m2.512-7.07a1.209,1.209,0,0,1,.093,1.209.744.744,0,0,1-.93.372,1.209,1.209,0,0,1-.837-1.023,4.372,4.372,0,0,0-.372-.837c-.093-.186-.093-.279.093-.372a1.581,1.581,0,0,1,.93.186,1.861,1.861,0,0,1,.93.465m.837-4.93a1.023,1.023,0,0,1,.93-.279.744.744,0,0,1,.558.651l.372,1.116a4.372,4.372,0,0,1,.372,1.023.186.186,0,0,1-.186.186l-.372-.279-1.674-1.4a.523.523,0,0,1,0-.837m7.721-3.349a1.488,1.488,0,0,1,.465.651,1.3,1.3,0,0,1,.186.837c0,.186-.279.372-.837.465l-5.023.372L33.1,13.63c-.372-.093-.558-.186-.465-.372s.279-.279.651-.279l2.884-.465,2.512-.465.837-.372c.372-.279.744-.372.837-.279M33.1,18.56a.558.558,0,0,1,.93.093,2.047,2.047,0,0,1,.372,1.488c0,.744-.093,1.581-.093,2.512v1.86a2.6,2.6,0,0,1-.279,1.86.558.558,0,0,1-.837,0,2.139,2.139,0,0,1-.372-1.581V19.955a1.488,1.488,0,0,1,.372-1.3m2.884-.093.93-.186h4.186a1.745,1.745,0,0,1,1.209.279,1.674,1.674,0,0,1,.186,1.116v5.209a1.674,1.674,0,0,1-.465,1.488,1.86,1.86,0,0,1-1.3.279H37a1.116,1.116,0,0,1-1.116-.372,2.512,2.512,0,0,1-.372-1.4V19.211a.837.837,0,0,1,.465-.744m1.209-4.186a.93.93,0,0,1,.93.186.93.93,0,0,1,.093.837,4,4,0,0,0-.279.93,2.233,2.233,0,0,1-.372.837h-.279a1.023,1.023,0,0,1-.186-.465l-.558-1.767c-.093-.372.093-.558.558-.651M41,21.35v-.372a4.186,4.186,0,0,0-.186-1.488,5.023,5.023,0,0,0-1.953-.186,5.953,5.953,0,0,0-2.047.186,5.861,5.861,0,0,0-.186,1.86H40.91m-4.279,1.4a7.163,7.163,0,0,0,.186,2.326,4.465,4.465,0,0,0,1.953.186,4.558,4.558,0,0,0,1.953-.186A2.7,2.7,0,0,0,41,23.583q0-.419,0-.837H36.631Zm5.023-8.465a.651.651,0,0,1,.744.372.93.93,0,0,1,.093.744c0,.186-.279.465-.651.744l-1.209.93-.372.186c-.093,0-.093-.093-.093-.279v-.465a9.86,9.86,0,0,1,.558-1.767.93.93,0,0,1,.744-.558" transform="translate(-1.655 -0.792)" fill="#1a1a1a"/>
      <path id="パス_243" data-name="パス 243" d="M29.2,87.072a.744.744,0,0,1,.558-.279c.186,0,.279.093.279.372a1.768,1.768,0,0,1-.465.93l-.837.837h.093a2.047,2.047,0,0,1,.279,1.4c0,.837-.093,1.767-.093,2.7v2.047a2.7,2.7,0,0,1-.279,1.86c-.279.279-.558.372-.837,0a2.046,2.046,0,0,1-.372-1.581v-5.4l-.372.279a8.093,8.093,0,0,1-1.86.93,1.3,1.3,0,0,1-1.116-.279.93.93,0,0,1-.372-.93.651.651,0,0,1,.744-.558,8.744,8.744,0,0,0,2.884-1.116l1.86-1.3m8.558-4.093v.279h3.535q.837,0,.837.279a1.624,1.624,0,0,1-.465.93,3.07,3.07,0,0,1-1.116.837,2.14,2.14,0,0,1-1.4-.093l-1.86-.558a2.418,2.418,0,0,1-.093.372,1.674,1.674,0,0,1-.465.93c-.186.186-.372.093-.465-.093a2.046,2.046,0,0,1-.093-1.023q0-.279,0-.558l-2.326-.279-2.6.279v.744a1.023,1.023,0,0,1-.279.744.372.372,0,0,1-.465,0,1.3,1.3,0,0,1-.465-.744l-.186-.651-2.233.651a3.294,3.294,0,0,1-1.674.279.744.744,0,0,1-.372-.651,1.4,1.4,0,0,1,.558-1.023,2.14,2.14,0,0,1,1.4-.651h1.86l-.186-.558c-.093-.279,0-.465.279-.744a.837.837,0,0,1,1.023-.093c.372.186.558.465.465.744a4.093,4.093,0,0,0,0,.558h5.023v-.465a.744.744,0,0,1,.465-.837.93.93,0,0,1,1.023.186.651.651,0,0,1,.186.93m5.3,5.674a3.721,3.721,0,0,1-.744.93A.93.93,0,0,1,41.2,89.3l-1.209-.465a3.814,3.814,0,0,1,0,.465,7.256,7.256,0,0,0-.093.837v2.791a8.651,8.651,0,0,1-.279,3.163A2.7,2.7,0,0,1,38.032,97.3a4.465,4.465,0,0,1-2.326,0,2.325,2.325,0,0,1-1.3-.651q-.419-.419-.279-.558c.093-.093.465-.093,1.209,0a3.163,3.163,0,0,0,1.674-.186,2.14,2.14,0,0,0,1.209-1.023,5.489,5.489,0,0,0,.372-2.326c-.093-1.3-.186-2.14-.186-2.7a7.628,7.628,0,0,1-.093-1.4H34.5l-2.047.279-1.116.372a.943.943,0,0,1-1.209-.093c-.279-.279-.186-.744.186-1.209a.93.93,0,0,1,.837-.372l2.419-.186a28,28,0,0,1,4.093-.093l5.209.558c.372,0,.372.279.186.651M30.963,91.63a1.953,1.953,0,0,1,.279-1.116.837.837,0,0,1,.651-.279h3.07a2.791,2.791,0,0,1,1.4.279.651.651,0,0,1,.279.837,3.348,3.348,0,0,0-.093.837v.186a2.977,2.977,0,0,1-.186,1.023,1.4,1.4,0,0,1-.651.744,1.674,1.674,0,0,1-1.116.093H32.544a1.4,1.4,0,0,1-1.023,0c-.279-.186-.372-.744-.465-1.674a8.054,8.054,0,0,1-.093-1.023m3.814,1.116c.093,0,.093-.279.093-.651a1.209,1.209,0,0,0-.093-.651H33.66l-1.116.186a1.4,1.4,0,0,0-.093.651,1.674,1.674,0,0,0,.093.651h2.233" transform="translate(-1.66 -5.676)" fill="#1a1a1a"/>
      <path id="パス_244" data-name="パス 244" d="M135.887,52.467h1.953l1.3.186c.279.093.465.093.465.186s-.465.837-.93.837H138.4l-.837-.279-.744-.186h-3.07l-.837.186-.837.186H131.7l-.651.279h-.465a.651.651,0,0,1-.186-.372,1.023,1.023,0,0,1,.93-.93h.651l2.233-.279h.279a1.572,1.572,0,0,0-.186-.465.483.483,0,0,1-.186-.372c0-.186.093-.279.465-.558l.465-.186c.372,0,.465.279.465.558v.837h.465Zm-4.93,5.674a3.814,3.814,0,0,0,1.488-.744.651.651,0,0,0,.186-.372l.372-.186a.558.558,0,0,1,.558.465c0,.093,0,.186-.372.558l-.558.651-.744.651h-.279c-.093,0-1.023-.279-1.116-.744s.093-.186.372-.279m4.372-1.581v2.512a.651.651,0,0,1-.465.651.837.837,0,0,1-.651-.837,1.4,1.4,0,0,1,.186-.558,2.14,2.14,0,0,0,.186-.651V56.467h-1.209l-.186-.279-.279-.837-.186-.465V54.7a.93.93,0,0,1,.558-.744,7.256,7.256,0,0,1,1.953-.186,6.6,6.6,0,0,1,1.953.279c.186.093.279.465.279.558a2.514,2.514,0,0,1-.279.465,9.116,9.116,0,0,1-.558,1.209h-1.209Zm-.558-.93h1.4l.186-.744h-1.953l-.558.186v.837Zm1.86,2.14c-.372-.372-.372-.372-.372-.558s.465-.465.744-.465.279.093.279.186v.186c0,.186,1.209.651,1.3.651l.837.372a1.3,1.3,0,0,1-1.023.93l-.465-.186-.744-.558Z" transform="translate(-9.096 -3.536)" fill="#1a1a1a"/>
      <path id="パス_245" data-name="パス 245" d="M34.326,54.615h-1.4l-.465.186a.372.372,0,0,1-.372-.372,1.023,1.023,0,0,1,.744-.837h1.674V52.94h-1.4a.279.279,0,0,1-.279-.372.744.744,0,0,1,.651-.744H34.6l-.186-.279v-.186c0-.279.465-.558.744-.558a.372.372,0,0,1,.372.372v.651c0,.093.093.093.186.093s.651,0,.744-.279v-.186h.186c.093,0,.465.279.465.465V52.1l-.279.372-.558.93v.186h.093c.837,0,1.023,0,1.023.279a.465.465,0,0,1-.372.465H35.535a2.613,2.613,0,0,0-.744.744h1.4a.982.982,0,0,1,.837.837V56.1a.558.558,0,0,0-.186.372v.93a4.093,4.093,0,0,1-.186,1.023l-.279.186H34.7l-.186.465h-.093a.465.465,0,0,1-.372-.465v-.837c0-.186,0-1.3-.186-1.3l-.465.372-.558.279A1.3,1.3,0,0,1,32,56.2c0-.186.279-.186.465-.186a3.721,3.721,0,0,0,1.953-1.3Zm.465,2.047h1.3a2.791,2.791,0,0,0,0-.465h-1.3c-.093,0-.186.093-.186.279v.186Zm.186.651H34.7v.465H36v-.558H34.977Zm.465-3.628.372-.651h-.465a1.4,1.4,0,0,0-.186.558h.186m2.884,4.093v1.023s-.093.651-.465.651-.651-.558-.651-1.023a6.325,6.325,0,0,1,.186-.651c.093-.279.093-2.7.093-3.07s-.093-1.86-.093-1.953a1.3,1.3,0,0,1-.093-.558c0-.465.372-.558,1.023-.558H40a.837.837,0,0,1,.651.744.325.325,0,0,1-.093.186l-.186.186-.465.651-.558.651.372.279a5.86,5.86,0,0,1,.93,1.209,5.116,5.116,0,0,1,.372,1.488,1.581,1.581,0,0,1-1.581,1.581l-.651-.279-.465-.465Zm0-.558a1.4,1.4,0,0,0,.93.186c.558,0,.93-.093.93-.558a3.442,3.442,0,0,0-1.116-2.047l-.744.651v1.488h0Zm0-3.628v.93l.651-.837a3.349,3.349,0,0,0,.372-1.023H38.233Z" transform="translate(-2.233 -3.545)" fill="#1a1a1a"/>
      <path id="パス_246" data-name="パス 246" d="M139.384,57.2,80.593,94.782l-8.372-5.3c-.093-.558,0-.837.744-1.3a38.14,38.14,0,0,0,5.4-1.3,46.882,46.882,0,0,0,4.651-2.14,45.4,45.4,0,0,0,5.953-4.558,21.675,21.675,0,0,0,4.651-5.488c.744-1.209.93-1.4,1.767-1.86a1.023,1.023,0,0,0,.558-.837c.186-1.4-1.674-4.279-2.419-4.837a4.558,4.558,0,0,0-4-.93A59.721,59.721,0,0,0,83.291,67.9a46.232,46.232,0,0,1-8.186,1.86h-1.4c-1.86,0-2.791-.372-2.977-.744s1.116-1.023,1.581-1.4l.279-.186,2.14-1.3.93-.558,3.628-2.14,2.233-1.209c2.233-1.488,2.6-1.674,3.814-2.047H85.8v-.744a3.442,3.442,0,0,0-1.3-2.512A11.535,11.535,0,0,0,80.872,55.9c-.651,0-1.488.465-1.488,1.209a1.953,1.953,0,0,0,.186.837h0c-2.047,1.4-4.093,2.884-6.6,4.372a52,52,0,0,0-6.419,4.465l-1.3,1.023a4.186,4.186,0,0,0-1.3,4.465c.558.93,3.349,1.674,3.814,1.674a27.349,27.349,0,0,0,4.186.279,33.582,33.582,0,0,0,4.837-.372,65.673,65.673,0,0,0,7.628-1.767,27.07,27.07,0,0,1,4.837-1.116h0a11.163,11.163,0,0,1-3.07,4.093l-.186.186a21.953,21.953,0,0,1-6.512,4.837,30.976,30.976,0,0,1-5.488,2.326,28,28,0,0,1-6.14.744,23.256,23.256,0,0,1-7.163-1.116L21.709,57.2H8.5L80.593,99.247,152.686,57.2Z" transform="translate(-0.593 -3.898)" fill="#1a1a1a"/>
      <path id="パス_247" data-name="パス 247" d="M21.709,50.547,80.593,13.058l58.791,37.488h13.3L80.593,8.5,8.5,50.547Z" transform="translate(-0.593 -0.593)" fill="#1a1a1a"/>
      <path id="パス_248" data-name="パス 248" d="M147.57,146.169v.744h0c0,.279.186.372,1.209.372s1.674,0,1.674-.465h0a40.594,40.594,0,0,1-.186-4.93,30.292,30.292,0,0,1,.186-3.814h0c0-.186-.093-.279-.372-.279l-5.581.186h-2.6l-4.651-.186h-.279c-.186,0-.279,0-.279.186v.186a42.054,42.054,0,0,1,.186,4.465,31.287,31.287,0,0,1-.279,4.558h0c0,.279,0,.465,1.488.465s1.488-.093,1.488-.465V145.7a17.024,17.024,0,0,1,0-2.233v-3.442h8v3.442c0,.558,0,1.767-.093,2.7" transform="translate(-9.524 -9.611)" fill="#1a1a1a"/>
      <path id="パス_249" data-name="パス 249" d="M146.92,143.891h-6.233v2.233h6.233Z" transform="translate(-9.804 -10.03)" fill="#1a1a1a"/>
      <path id="パス_250" data-name="パス 250" d="M144.163,123.756a3.442,3.442,0,0,1,.186-1.023c.093-.465.558-.93.558-1.3s-.093-.279-.372-.372a19.535,19.535,0,0,0-3.442-.558H141v.186a13.3,13.3,0,0,1,.372,2.7c.186.372.93.465,2.884.186" transform="translate(-9.837 -8.407)" fill="#1a1a1a"/>
      <path id="パス_251" data-name="パス 251" d="M143.744,124.974c2.512,0,4.93,0,8.279-.279h.093a.279.279,0,0,1,.279.279v.744c0,1.767,0,1.767-.372,1.767-4.465-.186-8-.279-9.581-.279h-7.256c0,.744.093,1.488.093,2.233,0,5.953-1.023,11.814-4.651,16.186l-.279.186h-.372a13.21,13.21,0,0,0-2.7-.651l-.279-.186v-.186c4.279-3.721,5.209-9.488,5.209-14.14a46.051,46.051,0,0,0-.372-5.674v-.186c0-.186,0-.186.186-.186h.186c1.767.186,4.93.279,7.442.279.558,0,1.767.093,3.907,0" transform="translate(-8.86 -8.695)" fill="#1a1a1a"/>
      <path id="パス_252" data-name="パス 252" d="M145.993,134.215l6.791.279h0a.2.2,0,0,0,.186-.186v-2.233c0-.186,0-.279-.186-.279a67.873,67.873,0,0,1-6.791.279,11.536,11.536,0,0,0,0,2.14" transform="translate(-10.179 -9.192)" fill="#1a1a1a"/>
      <path id="パス_253" data-name="パス 253" d="M144.749,131.56v-.279c0-1.3.093-.744.465-1.3a1.767,1.767,0,0,0,.279-.651c0-.558-2.233-.837-3.535-.93s-.186,0-.186.186v.186a32.462,32.462,0,0,1,.279,3.907V136.4h2.7V131.56" transform="translate(-9.866 -8.955)" fill="#1a1a1a"/>
      <path id="パス_254" data-name="パス 254" d="M106.953,141.109H105v1.767h1.953Z" transform="translate(-7.326 -9.854)" fill="#1a1a1a"/>
      <path id="パス_255" data-name="パス 255" d="M107.529,139.791v-.93h-3.535v.93c0,.558-.093,3.163,0,4.744-.093.279-.465.279-1.3.279s-1.4-.093-1.4-.372h0c.186-1.953.186-4,.186-4.558a23.06,23.06,0,0,0-.093-2.7V137h8.465c.186,0,.279.093.279.186h0a23.351,23.351,0,0,0-.186,2.512c0,.465.093,1.953.186,3.628h0c0,.186-.186.279-.465.372h-2.233a35.443,35.443,0,0,0,.093-3.907" transform="translate(-7.064 -9.558)" fill="#1a1a1a"/>
      <path id="パス_256" data-name="パス 256" d="M107.264,122.64h0c.186-.558.651-.837.651-1.209s-.093-.279-.372-.372a20.372,20.372,0,0,0-3.256-.558H104.1v.186a18.233,18.233,0,0,0,.465,1.767c.186.465,1.674.279,2.791.186" transform="translate(-7.264 -8.407)" fill="#1a1a1a"/>
      <path id="パス_257" data-name="パス 257" d="M101.529,129.584l-5.86-.186h-.186c-.186,0-.279,0-.279.186v.186a49.768,49.768,0,0,1,.279,5.488c0,6.233-.186,9.3-.279,11.535h0c0,.186.186.186.279.186h2.512c.186,0,.372-.093.372-.186-.186-3.907-.186-5.4-.186-10.419v-.837a5.582,5.582,0,0,1,1.4.93h.465a7.535,7.535,0,0,0,4.093-4.372,1.3,1.3,0,0,1,.558-.651h1.116c0,.558-.093,1.86-.093,2.14,0,1.86,1.953,1.953,2.977,1.953,3.163,0,3.907-1.023,3.907-1.953v9.581c0,.837-.837,1.023-1.767,1.023l-2.14-.186h-.279v.186a12.839,12.839,0,0,1,1.86,2.326c.093.186.186.372.372.372,3.07,0,4.651-1.4,4.651-3.07v-.186c-.186-3.163-.186-7.814-.186-9.488a39.632,39.632,0,0,1,.186-4.372h0a.247.247,0,0,0-.279-.279h-6.046c-3.07.093-6.233.093-7.349,0m-3.349,5.4v-3.442h3.814a5.86,5.86,0,0,1-3.907,3.442m14.419-1.674-.186-.186a7.628,7.628,0,0,1-1.767-1.209h-.186v.372c0,1.023-.186,1.581-1.488,1.581s-1.023-.186-1.023-.558v-1.581H112.6Z" transform="translate(-6.645 -9.026)" fill="#1a1a1a"/>
      <path id="パス_258" data-name="パス 258" d="M109.3,128.134l.651-.372c.372-.279.744-.372.744-.651s-.558-.651-2.14-1.3l8.186.186c.186,0,.186-.093.186-.186a9.586,9.586,0,0,0,.093-1.116,9.029,9.029,0,0,0-.093-1.116c0-.186,0-.279-.186-.279h-.093c-3.814.186-7.163.279-10.14.279h-2.791L93.669,123.3h-.186c-.186,0-.186.093-.186,1.3v1.116c0,.279.093.186.279.186l7.628-.186h-.093c-.186.093-1.581.744-1.581,1.023l.186.279.93.93a4.186,4.186,0,0,0,2.977.186,10.232,10.232,0,0,0-1.953-2.326h6.047a8,8,0,0,1-.93,2.14c0,.372.93.465,1.581.372a2.606,2.606,0,0,0,.837-.279" transform="translate(-6.506 -8.599)" fill="#1a1a1a"/>
      <path id="パス_259" data-name="パス 259" d="M62.478,141.186h0c.837,2.884,4.186,3.442,8.372,3.442a63.624,63.624,0,0,0,10.791-1.3h.279v.186a12.558,12.558,0,0,0-1.3,2.884.558.558,0,0,1-.465.372,90.883,90.883,0,0,1-9.488.651c-5.023,0-8.093-1.581-9.3-3.628l-4.186,2.791c-.372.186-.465.651-.744.651a7.721,7.721,0,0,1-2.233-2.7c0-.093.093-.186.279-.186a34.793,34.793,0,0,0,4.465-2.046l3.163-1.4a.279.279,0,0,1,.372.372" transform="translate(-3.781 -9.837)" fill="#1a1a1a"/>
      <path id="パス_260" data-name="パス 260" d="M60.063,140.476c.093-1.4.093-2.14.093-3.07v-1.4a28.093,28.093,0,0,0-4.093.279H55.97c-.186,0-.279-.093-.279-.186s-.093-.837-.093-1.4v-.93c0-.186.093-.372.186-.372h.093l3.535.186,3.349-.186h.093a.279.279,0,0,1,.279.279h0c-.372,3.256-.558,2.7-.744,5.116,0,.465-.279.558-2.326,1.488" transform="translate(-3.877 -9.313)" fill="#1a1a1a"/>
      <path id="パス_261" data-name="パス 261" d="M61.1,127.93l.279.186.279-.186a8.482,8.482,0,0,0,1.581-2.14c0-.372-3.349-2.233-4.558-2.791H58.5a5.488,5.488,0,0,0-1.4,1.674.279.279,0,0,0,.186.186,33.861,33.861,0,0,1,3.814,3.07" transform="translate(-3.985 -8.581)" fill="#1a1a1a"/>
      <path id="パス_262" data-name="パス 262" d="M74.678,135.064V133.3H70.4v1.767h4.279" transform="translate(-4.91 -9.297)" fill="#1a1a1a"/>
      <path id="パス_263" data-name="パス 263" d="M75.648,124.129a9.81,9.81,0,0,0,1.209-.744,2.7,2.7,0,0,1,.744-.744c.279-.186.558-.372.558-.558a10.478,10.478,0,0,0-2.884-1.488c-.372,0-.093.093-.186.279a28.556,28.556,0,0,1-1.488,3.442,4.279,4.279,0,0,0,2.047-.093" transform="translate(-5.136 -8.408)" fill="#1a1a1a"/>
      <path id="パス_264" data-name="パス 264" d="M71.651,124.34l.186-.279c0-.558-2.512-2.884-2.7-3.163H68.86c-.186,0-1.86.744-1.86,1.023v.186a17.022,17.022,0,0,1,1.581,1.953c.651.558,2.512.372,2.977.279" transform="translate(-4.674 -8.433)" fill="#1a1a1a"/>
      <path id="パス_265" data-name="パス 265" d="M70.4,136.812v1.767h4.279v-1.767H70.4" transform="translate(-4.91 -9.557)" fill="#1a1a1a"/>
      <path id="パス_266" data-name="パス 266" d="M70.445,128.629a8.1,8.1,0,0,0,.093-1.209l-5.767.279c-.372,0-.372-.279-.372-1.209s.093-1.4.279-1.4h.093l4,.279c1.023,0,2.7.093,7.442,0l4.279-.279a.372.372,0,0,1,.279.279v1.209c0,.465,0,1.116-.372,1.116l-6.977-.279q.279.14.279.279a1.17,1.17,0,0,1-.558.651,3.349,3.349,0,0,1-2.791.186" transform="translate(-4.491 -8.722)" fill="#1a1a1a"/>
      <path id="パス_267" data-name="パス 267" d="M70.433,129.677h-.744l-2.419-.186h-.186c-.186,0-.279,0-.279.372a52.4,52.4,0,0,1,.279,5.4c0,2.14-.093,3.814-.279,6.884h0c0,.279.186.279,1.209.279s1.488-.093,1.488-.465v-.651h5.86v.558c0,.186.186.465,1.3.465s1.488,0,1.488-.372v-.279c-.186-3.07-.279-4.651-.279-6.233s.093-3.721.279-5.767h0a.247.247,0,0,0-.279-.279h-.093l-3.442.186H70.619m4.744,10.14H69.409c-.093-1.767-.186-3.442-.186-4.558s.186-3.628.186-3.628h5.86v.93h0c0,1.3-.186,3.907,0,7.256" transform="translate(-4.665 -9.026)" fill="#1a1a1a"/>
      <path id="パス_268" data-name="パス 268" d="M30.962,122.809a1.581,1.581,0,0,1,.558-.558c.372-.279.558-.465.558-.651a12.446,12.446,0,0,0-3.163-1.3c-.372,0-.186.093-.186.372a12.093,12.093,0,0,1-.93,3.442,3.442,3.442,0,0,0,1.767-.186,3.628,3.628,0,0,0,1.4-1.116" transform="translate(-1.938 -8.39)" fill="#1a1a1a"/>
      <path id="パス_269" data-name="パス 269" d="M38.228,139.5c-.093,0-.186.093-.372.279-1.581,1.86-6.6,5.4-15.07,5.581H22.6l.186.186a5.4,5.4,0,0,1,1.86,1.953c0,.093.186.186.279.186h.558a28.372,28.372,0,0,0,13.3-5.209,1.861,1.861,0,0,1,1.116-.465c.465-.093.837-.186.837-.465a8.581,8.581,0,0,0-2.419-2.047" transform="translate(-1.576 -9.733)" fill="#1a1a1a"/>
      <path id="パス_270" data-name="パス 270" d="M25.953,143.942h.279a21.023,21.023,0,0,0,9.209-4.744,1.674,1.674,0,0,1,1.023-.465c.372-.093.744-.186.744-.465a6.8,6.8,0,0,0-2.419-1.767c-.372,0-.186.093-.279.279-1.3,1.767-4.93,4.465-10.233,5.3H24v.186a6.512,6.512,0,0,1,1.767,1.488" transform="translate(-1.674 -9.523)" fill="#1a1a1a"/>
      <path id="パス_271" data-name="パス 271" d="M26.05,128.492a.415.415,0,0,1,.279.372c0,.279-.093.093-.372.279a1.4,1.4,0,0,0-.558.651c-.279.465-.465.372-.744.558a4.186,4.186,0,0,1-1.953.279,9.86,9.86,0,0,0,.558-1.767c.465,0-.093.093,2.7-.372" transform="translate(-1.585 -8.957)" fill="#1a1a1a"/>
      <path id="パス_272" data-name="パス 272" d="M26.35,127.764l9.953-1.488L34.071,124.6l-3.256.372-4.465.465h0L23,125.625H21.7a10.511,10.511,0,0,0,1.3,2.6c.093,0,.279.186,3.349-.465" transform="translate(-1.513 -8.695)" fill="#1a1a1a"/>
      <path id="パス_273" data-name="パス 273" d="M38.548,125.9h.186l1.488,1.4.279.186h.093a9.023,9.023,0,0,0,1.4-1.4l.186-.279c0-.558-5.4-4-5.767-4s-.372.186-1.209,1.209v.372c.465.372,1.674,1.116,3.349,2.419" transform="translate(-2.455 -8.502)" fill="#1a1a1a"/>
      <path id="パス_274" data-name="パス 274" d="M38.7,129.131a1.4,1.4,0,0,1,.465-.651c.372-.186.465-.372.465-.558a8.782,8.782,0,0,0-2.791-1.023c-.465,0-.093.093-.093.279A9.023,9.023,0,0,1,36,130.061a3.535,3.535,0,0,0,1.581-.186,1.767,1.767,0,0,0,1.116-.744" transform="translate(-2.512 -8.852)" fill="#1a1a1a"/>
      <path id="パス_275" data-name="パス 275" d="M26.59,132.46l-4.93,1.209-.744.372c-.372,0-1.116-1.953-1.116-2.233s.093-.186.186-.186h2.233l3.07-.372,1.4-.186-.558-.558-.186-.186c0-.186,1.3-1.023,1.4-1.023h.093l1.116,1.023a10.884,10.884,0,0,1-1.953,2.419" transform="translate(-1.38 -9.018)" fill="#1a1a1a"/>
      <path id="パス_276" data-name="パス 276" d="M42.233,132.119l.651.93.186.186c.093,0,1.581-1.116,1.581-1.488a11.72,11.72,0,0,0-1.488-1.86h0L41.674,128.4h-.186A4.279,4.279,0,0,0,40,129.422v.186l2.14,2.512" transform="translate(-2.791 -8.957)" fill="#1a1a1a"/>
      <path id="パス_277" data-name="パス 277" d="M38.14,132.648l2.791-.558a11.722,11.722,0,0,0-1.4-1.488L36,130.974a16.189,16.189,0,0,0,2.047,1.767" transform="translate(-2.512 -9.113)" fill="#1a1a1a"/>
      <path id="パス_278" data-name="パス 278" d="M31.568,131.264a46.977,46.977,0,0,1-7.721,7.442,13.861,13.861,0,0,0,7.349-4.93l.279-.279a8.651,8.651,0,0,1,2.326,1.488c0,.186-.186.279-.465.372a1.581,1.581,0,0,0-.744.465c-4.186,4-6.326,4.372-6.512,4.372H25.8a5.116,5.116,0,0,0-1.86-1.116l-.186-.186h0a15.816,15.816,0,0,1-3.07,2.047H20.5a6.047,6.047,0,0,0-2.419-1.488l-.279-.186.279-.186a27.256,27.256,0,0,0,8.93-6.047H27.1L29.15,130.8l.279-.279.186-.186a6.512,6.512,0,0,0,1.116-2.047c0-.186.093-.186.186-.186s2.884,1.023,2.884,1.581-.372.372-.651.465a10.42,10.42,0,0,0-1.488,1.4" transform="translate(-1.243 -8.939)" fill="#1a1a1a"/>
      <path id="パス_279" data-name="パス 279" d="M33.2,132.091a37.8,37.8,0,0,0,10.7,8l.279-.186a8.093,8.093,0,0,1,2.512-1.674l.279-.279-.279-.186a32.093,32.093,0,0,1-9.116-4.651,26.145,26.145,0,0,1-2.512-2.047l-.372-.372a5.861,5.861,0,0,0-1.488,1.4" transform="translate(-2.315 -9.114)" fill="#1a1a1a"/>
    </g>
  </g>
</svg>
