<svg xmlns="http://www.w3.org/2000/svg" xmlns:xlink="http://www.w3.org/1999/xlink" width="153.3" height="158.536" viewBox="0 0 153.3 158.536">
  <defs>
    <clipPath id="clip-path">
      <rect id="長方形_262" data-name="長方形 262" width="153.3" height="158.536" fill="none"/>
    </clipPath>
  </defs>
  <g id="アートワーク_19" data-name="アートワーク 19" transform="translate(76.65 79.268)">
    <g id="グループ_226" data-name="グループ 226" transform="translate(-76.65 -79.268)" clip-path="url(#clip-path)">
      <path id="パス_3511" data-name="パス 3511" d="M111.35,56.377l-4.968-.7A81.766,81.766,0,0,1,86.115,46.84l-2.186-1.391c-1.788-1.192-4.073-2.683-5.067-3.179l.7-.4a1.59,1.59,0,0,0,.894-1.391A3.08,3.08,0,0,0,77.173,37.6l-2.881.2h-.3l-.3,2.186.2.2c.4.4.5.5.5.6S69.424,46.74,60.383,51.807C56.806,53.794,46.97,57.47,43.99,57.47c-1.391,0-1.59.5-1.59.994,0,2.384,3.477,3.279,5.762,3.279s8.147-2.285,16-7.153a43.815,43.815,0,0,0,4.868-3.577l2.086-1.59,2.782-2.186,2.484-1.987c.795.2,1.788.795,7.551,4.868,10.432,7.352,17.486,11.127,20.963,11.127,1.59,0,4.968-.7,5.762-1.888a10.928,10.928,0,0,0,1.292-2.384v-.4Z" transform="translate(-0.275 -0.244)" fill="#1a1a1a"/>
      <path id="パス_3512" data-name="パス 3512" d="M65.374,38.469c-.6,0-1.192.4-1.192.894a1.391,1.391,0,0,0,.2.6v.2h0c-.5,1.59-2.881,3.279-3.974,3.279s-4.868-1.093-4.868-1.788,3.279-2.683,4.073-2.981,2.583-1.192,2.583-2.186S59.313,33.6,56.829,33.7h-.2v.6a2.583,2.583,0,0,0,.2.6v.4h0a15.6,15.6,0,0,1-3.179,3.676c-2.981,2.086-3.378,2.285-5.464,2.583S46,44.43,46,45.424a1.292,1.292,0,0,0,1.292,1.292,3.121,3.121,0,0,0,1.192-.4,10.1,10.1,0,0,1,2.186-.994,12.32,12.32,0,0,1,3.279.6c3.08.894,4.272,1.292,5.266,1.292S61.9,46.02,64.38,44.629h.1l1.788-.994c1.192-.2,2.086-.4,2.086-2.186a3.08,3.08,0,0,0-3.08-3.179" transform="translate(-0.298 -0.218)" fill="#ff8c00"/>
      <path id="パス_3513" data-name="パス 3513" d="M88.622,31.44h.1l1.391.4A2.782,2.782,0,0,0,92.2,29.552c0-.994-1.292-1.689-1.888-1.987l-.6-.4c-1.689-1.093-3.279-2.086-3.974-2.086a2.682,2.682,0,0,0-1.292.4h-.1a9.637,9.637,0,0,0-.1,2.384v.3h-.1c-3.179,2.086-3.875,2.086-8.445,2.086l-3.676-.795h-.3v-.3c.1-.3.3-.4,1.292-.894l.4-.2c3.279-1.788,3.775-1.987,4.968-2.086s.6-.3,1.192-.994h.3l.2-.2h0C79.084,22.9,76.3,22.2,74.812,22.2a1.788,1.788,0,0,0-.994.3h-.1v.4a1.391,1.391,0,0,1,.1.4c0,.795-2.583,2.782-4.968,4.173s-2.881,1.59-4.371,1.59A3.875,3.875,0,0,0,61.3,31.936a2.186,2.186,0,0,0,.795,1.391h0l1.093.3h.3a22.652,22.652,0,0,1,4.272-.5,16.89,16.89,0,0,1,3.179.3h.6l2.484.6c4.968,0,8.246-.5,10.233-1.59a7.948,7.948,0,0,1,3.477-1.391l.894.3" transform="translate(-0.397 -0.144)" fill="#ff8c00"/>
      <path id="パス_3514" data-name="パス 3514" d="M104.671,38.065h-.1c-.994-1.391-1.292-1.391-3.179-1.689h-.2a1.093,1.093,0,0,0-.4.7h0v.3a1.888,1.888,0,0,1,.2.7c0,.894-2.981,2.981-4.073,2.981l-2.484-.7-1.192-.4h-.2c-.795-.2-1.391-.4-1.391-.894s1.689-1.59,2.782-1.987l1.888-.4h.1l2.086-.4h.1v-.3a3.278,3.278,0,0,0,.1-.7c0-1.689-3.279-2.583-4.769-2.583h-.4a2.385,2.385,0,0,0-.3.994h-.1A31.693,31.693,0,0,1,85.1,39.456h-.2c-.1,1.689-.1,2.782.4,3.279a.993.993,0,0,0,.7.3l1.292-.3h.1l1.292-.3,2.285.7.994.3c2.484.894,2.782.894,3.775.894a9.935,9.935,0,0,0,7.253-2.683h.1c1.292-.3,2.583-.795,2.583-1.888a1.49,1.49,0,0,0-.1-.7,5.2,5.2,0,0,0-1.192-1.292" transform="translate(-0.55 -0.212)" fill="#ff8c00"/>
      <path id="パス_3515" data-name="パス 3515" d="M117.968,11.6l.5-.4a.317.317,0,0,1,.3.3,1.689,1.689,0,0,1-.2.994,12.817,12.817,0,0,1-1.391,2.086h.1a1.888,1.888,0,0,1,.3,1.391c-.1,1.391-.1,2.881-.1,4.57v3.378a2.484,2.484,0,0,1-.3,1.788c-.3.3-.6.3-.795,0a1.987,1.987,0,0,1-.3-1.49c0-1.59.1-3.378.1-5.166V15.77a6.16,6.16,0,0,1-1.391,1.093,1.192,1.192,0,0,1-1.192,0,.894.894,0,0,1-.5-.795.7.7,0,0,1,.5-.7,8.346,8.346,0,0,0,2.881-1.987,11.724,11.724,0,0,0,1.689-1.788m7.054,6.557v.5l.5.6c1.49,1.192,2.782,2.285,3.875,3.08l2.484,1.49c.6.2.7.5.3.795a3.974,3.974,0,0,1-1.49.795,1.192,1.192,0,0,1-1.391-.5,52.775,52.775,0,0,0-3.775-4.173,2.782,2.782,0,0,0-.994-.6h-.1l-.3.5a10.532,10.532,0,0,1-1.888,2.186,9.439,9.439,0,0,1-1.788,1.391,2.484,2.484,0,0,1-1.49.5,1.292,1.292,0,0,1-.795-.6.993.993,0,0,1-.3-.7c0-.2.3-.3.6-.5a6.855,6.855,0,0,0,2.583-1.292,8.345,8.345,0,0,0,1.888-1.888,4.868,4.868,0,0,0,.894-2.285q0-.149,0-.3l-3.08.4c-.6.2-1.093.1-1.292-.2s-.1-.7.3-1.093a1.391,1.391,0,0,1,1.292-.6l2.881.2a25.186,25.186,0,0,0-.1-2.583,1.391,1.391,0,0,1,.1-.894.7.7,0,0,1,.6-.3.8.8,0,0,1,.6.2.994.994,0,0,1,.2.795c0,.4,0,.7,0,.994v1.888h3.875c.6,0,.994,0,1.192.3a.7.7,0,0,1-.1.795c-.2.3-.6.4-1.192.4H125.32c0,.4-.1.795-.1,1.093M128.9,12.79a.6.6,0,0,1,.3.7l-.5.894-.6.894c-.3.3-.5.5-.7.4s-.2-.3-.1-.6l.4-1.49a1.292,1.292,0,0,1,.4-.795.7.7,0,0,1,.795,0" transform="translate(-0.733 -0.073)" fill="#1a1a1a"/>
      <path id="パス_3516" data-name="パス 3516" d="M125.622,81.746a1.689,1.689,0,0,1-1.192.1h-.7v.2a18.875,18.875,0,0,0-.2,1.888,1.49,1.49,0,0,0,.4.994,1.788,1.788,0,0,0,1.093.6l2.186.2a6.358,6.358,0,0,0,2.186-.3l1.689-.795c.5-.3.7-.1.6.5a4.57,4.57,0,0,1-.7,1.788,1.292,1.292,0,0,1-1.49.6,24.739,24.739,0,0,1-4.471-.7,3.875,3.875,0,0,1-2.285-1.093,2.285,2.285,0,0,1-.4-1.391c0-1.192-.1-2.086-.1-2.583h-1.093l-.3.6-1.292,1.49a9.437,9.437,0,0,1-1.59,1.59l-1.689,1.49a2.285,2.285,0,0,1-1.888.2,1.49,1.49,0,0,1-.7-.795c-.1-.3.2-.6.7-.7a10.035,10.035,0,0,0,2.285-.894,6.557,6.557,0,0,0,1.987-1.391l.994-1.292h-.3a1.192,1.192,0,0,1-1.093-.2,1.689,1.689,0,0,1-.4-1.192c0-.6,0-1.391,0-2.285V76.082a13.713,13.713,0,0,0,0-1.391,1.192,1.192,0,0,1,.3-.994,1.291,1.291,0,0,1,.894-.3h5.762l1.391.3a.894.894,0,0,1,.4.894c0,2.086-.1,4.073-.1,6.16a1.192,1.192,0,0,1-.6,1.192m-.7-3.676V77.175h-6.06v1.093h5.762m-.1-2.186a4.372,4.372,0,0,0-.2-1.192h-2.682a9.141,9.141,0,0,0-2.881.2,1.788,1.788,0,0,0-.3,1.093h6.06m-5.564,4.67h5.365a2.285,2.285,0,0,0,.3-1.093h-5.961a2.583,2.583,0,0,0,.3,1.292" transform="translate(-0.737 -0.476)" fill="#1a1a1a"/>
      <path id="パス_3517" data-name="パス 3517" d="M27.265,25.606c-.2.3-.3.4-.5.4s-.4-.2-.6-.7a6.259,6.259,0,0,1-.1-2.086V19.446l-.6.795a7.352,7.352,0,0,1-1.391,1.292,2.583,2.583,0,0,1-1.689.5.6.6,0,0,1-.5-.6c0-.3.4-.6.894-.994a9.041,9.041,0,0,0,2.186-1.49,4.57,4.57,0,0,0,1.192-1.689v-.795h-.2l-2.086.3a.894.894,0,0,1-.994-.3c-.2-.3.1-.6.7-.994a2.583,2.583,0,0,1,1.888-.4h.795v-.7a4.471,4.471,0,0,0-.1-1.192H24.384a.455.455,0,0,1-.5-.4c0-.2.1-.3.4-.3l2.285-.4,1.093-.7c.3-.3.6-.2.994.1a1.093,1.093,0,0,1,.4,1.093.7.7,0,0,1-.795.6h-.6a2.981,2.981,0,0,0-.2,1.093v.994l1.59.2c.4.1.6.2.7.4s0,.3-.3.5a2.484,2.484,0,0,1-1.391.2h-.6v7.849a2.782,2.782,0,0,1-.2,1.292m2.384-6.756a1.192,1.192,0,0,1,.1,1.093.7.7,0,0,1-.894.4,1.192,1.192,0,0,1-.795-.994l-.3-.795c-.1-.1-.1-.3.1-.3l.894.2a1.788,1.788,0,0,1,.894.5m.795-4.67a.994.994,0,0,1,.894-.3.7.7,0,0,1,.6.6l.4,1.093a4.173,4.173,0,0,1,.3.994.2.2,0,0,1-.2.2l-.4-.3-1.59-1.391a.6.6,0,0,1,0-.795M37.8,11.3a1.391,1.391,0,0,1,.5.6,1.292,1.292,0,0,1,.2.795c0,.2-.3.4-.795.4l-4.868.4H30.941c-.4-.1-.5-.2-.5-.4s.2-.2.6-.2l2.682-.4,2.384-.5.795-.3a2.689,2.689,0,0,1,.795-.3m-6.756,6.557a.6.6,0,0,1,.894.1,1.987,1.987,0,0,1,.3,1.391c0,.7-.1,1.49-.1,2.384v1.788a2.484,2.484,0,0,1-.3,1.788.5.5,0,0,1-.795,0,1.987,1.987,0,0,1-.3-1.49V19.148a1.391,1.391,0,0,1,.3-1.192m2.682-.1.894-.2h3.974a1.59,1.59,0,0,1,1.093.3,1.59,1.59,0,0,1,.2.994v4.968a1.59,1.59,0,0,1-.4,1.391,1.788,1.788,0,0,1-1.192.3H34.617a1.093,1.093,0,0,1-.994-.4,2.384,2.384,0,0,1-.3-1.292V18.453a.8.8,0,0,1,.4-.7m1.192-3.875a.894.894,0,0,1,.894.2.894.894,0,0,1,.1.795,4.074,4.074,0,0,0-.2.894,2.087,2.087,0,0,1-.3.795h-.2a.894.894,0,0,1-.2-.5l-.5-1.689a.457.457,0,0,1,.5-.6m3.676,6.756v-.4a3.875,3.875,0,0,0-.2-1.391,4.868,4.868,0,0,0-1.888-.2H34.518a5.465,5.465,0,0,0-.1,1.788h4.073m-4.073,1.59a6.756,6.756,0,0,0,.2,2.186,4.173,4.173,0,0,0,1.788.2,4.371,4.371,0,0,0,1.888-.2,2.484,2.484,0,0,0,.2-1.391c0-.3,0-.6,0-.795H34.418Zm4.471-8.147a.6.6,0,0,1,.7.3.894.894,0,0,1,.1.7c0,.2-.3.4-.6.7L38,16.366h-.4c-.1,0-.1-.1-.1-.3v-.4a9.439,9.439,0,0,1,.5-1.59.894.894,0,0,1,.7-.5" transform="translate(-0.142 -0.073)" fill="#1a1a1a"/>
      <path id="パス_3518" data-name="パス 3518" d="M27.166,78.367l.5-.3c.2,0,.2.1.2.4a1.59,1.59,0,0,1-.4.894l-.795.795h.1a1.888,1.888,0,0,1,.3,1.391c0,.795-.1,1.689-.1,2.583v1.987a2.583,2.583,0,0,1-.3,1.788c-.3.3-.6.3-.795,0a1.987,1.987,0,0,1-.3-1.49V81.049l-.4.3-1.788.894a1.192,1.192,0,0,1-1.093-.2.894.894,0,0,1-.3-.894.7.7,0,0,1,.7-.5,8.246,8.246,0,0,0,2.782-.994l1.788-1.192m8.147-3.974v.2h3.279c.5,0,.795.1.795.3s-.1.4-.5.894a2.881,2.881,0,0,1-1.093.795,2.086,2.086,0,0,1-1.391-.1l-1.689-.5a2.087,2.087,0,0,1-.1.4,1.59,1.59,0,0,1-.5.894c-.2.1-.4.1-.5-.1a1.888,1.888,0,0,1-.1-.894c0-.2,0-.4,0-.5l-2.186-.2-2.484.3v.7a.994.994,0,0,1-.2.7.3.3,0,0,1-.5,0,1.192,1.192,0,0,1-.4-.7v-.6l-2.086.6c-.795.3-1.292.4-1.59.2a.7.7,0,0,1-.4-.6,1.292,1.292,0,0,1,.6-.994,2.086,2.086,0,0,1,1.292-.6h1.788l-.2-.5a.581.581,0,0,1,.3-.7.925.925,0,0,1,1.49.6,3.576,3.576,0,0,0,0,.5h4.769v-.4a.8.8,0,0,1,.5-.795.894.894,0,0,1,.994.2.6.6,0,0,1,.2.795m4.968,5.365a3.577,3.577,0,0,1-.7.894.894.894,0,0,1-1.093.1l-1.192-.5a3.678,3.678,0,0,1,0,.4,6.358,6.358,0,0,0-.1.795V84.03a8.147,8.147,0,0,1-.3,2.981,2.583,2.583,0,0,1-1.49,1.093,4.272,4.272,0,0,1-2.186,0,2.285,2.285,0,0,1-1.192-.6c-.2-.2-.3-.4-.2-.5s.5-.1,1.093,0a2.981,2.981,0,0,0,1.59-.2,1.987,1.987,0,0,0,1.192-.994,5.266,5.266,0,0,0,.3-2.186c-.1-1.192-.1-2.086-.2-2.583a7.351,7.351,0,0,1-.1-1.292H32.134l-1.888.3-.994.4a1.021,1.021,0,0,1-1.192-.1c-.3-.3-.2-.7.2-1.192a.894.894,0,0,1,.795-.4h6.16l4.968.5c.3,0,.4.3.2.6M28.855,82.738a1.788,1.788,0,0,1,.2-1.093.8.8,0,0,1,.6-.2h2.881a2.683,2.683,0,0,1,1.292.2.6.6,0,0,1,.3.795,3.08,3.08,0,0,0-.1.795v.2a2.782,2.782,0,0,1-.2.894,1.391,1.391,0,0,1-.6.7,1.59,1.59,0,0,1-.994.1H30.345a1.292,1.292,0,0,1-.994,0,2.352,2.352,0,0,1-.4-1.59,2.375,2.375,0,0,0-.1-.894m3.577,1.093c.1,0,.1-.3.1-.6a1.192,1.192,0,0,0-.1-.6H30.345a1.292,1.292,0,0,0-.1.6,1.49,1.49,0,0,0,.1.6h2.086" transform="translate(-0.142 -0.475)" fill="#1a1a1a"/>
      <path id="パス_3519" data-name="パス 3519" d="M121.667,47.49h1.788l1.292.2c.3,0,.5.1.5.2s-.4.795-.795.795h-.2l-.795-.3-.7-.2h-2.881l-.795.2-.795.2h-.3l-.7.3h-.4a.7.7,0,0,1-.1-.3.994.994,0,0,1,.795-.894h.6l2.086-.3h.3l-.1-.4s-.2-.2-.2-.3.1-.3.4-.5l.4-.2c.3,0,.4.2.4.6v.795h.5ZM117,52.955a3.577,3.577,0,0,0,1.391-.7.6.6,0,0,0,.2-.4l.4-.2a.5.5,0,0,1,.5.5c0,.1,0,.1-.3.5l-.5.6-.7.6h-.2c-.1,0-.994-.2-1.093-.7s.1-.2.3-.3m4.073-1.49v2.384a.6.6,0,0,1-.4.6.8.8,0,0,1-.6-.795,1.291,1.291,0,0,1,.1-.5,1.987,1.987,0,0,0,.1-.6v-.994h-1.192l-.2-.2-.2-.795-.2-.4v-.2a.8.8,0,0,1,.6-.7,6.756,6.756,0,0,1,1.888-.2,6.259,6.259,0,0,1,1.888.2.708.708,0,0,1,.3.6l-.3.5a8.446,8.446,0,0,1-.5,1.093h-1.292Zm-.7-.795h1.292v-.7h-2.384v.795Zm1.788,1.987c-.3-.3-.4-.4-.4-.5a.926.926,0,0,1,.7-.4c.3,0,.3.1.3.2v.1c0,.2,1.192.6,1.192.6l.795.4a1.292,1.292,0,0,1-.994.795l-.5-.2-.7-.5Z" transform="translate(-0.756 -0.298)" fill="#1a1a1a"/>
      <path id="パス_3520" data-name="パス 3520" d="M31.485,49.576H29.8a.4.4,0,0,1-.4-.4.894.894,0,0,1,.7-.795h1.59v-.6H30.392a.3.3,0,0,1-.3-.3.7.7,0,0,1,.6-.7h.994l-.2-.2v-.2c0-.3.5-.5.7-.5a.4.4,0,0,1,.4.3v.6h.1c.6,0,.6,0,.7-.2v-.2h.2c.1,0,.5.3.5.5h0l-.2.3-.5.894v.2h.1c.795,0,.994,0,.994.2a.5.5,0,0,1-.3.5h-1.49l-.7.7h1.391c.2,0,.795.3.795.795v.2a.5.5,0,0,0-.2.4v.894a3.875,3.875,0,0,1-.2.994l-.3.2h-1.59l-.2.4h-.1a.5.5,0,0,1-.4-.5v-.5c0-.1,0-1.292-.2-1.292l-.5.4-.5.3a1.192,1.192,0,0,1-.795-.894c0-.1.2-.2.5-.2a3.577,3.577,0,0,0,1.888-1.192Zm.4,1.987h1.192a2.98,2.98,0,0,0,0-.4H31.982c-.1,0-.1.1-.1.2Zm.2.6h-.3v.4h1.292v-.5h-.994Zm.4-3.378.4-.6h-.4a1.291,1.291,0,0,0-.2.6h.2m2.782,3.875v.994s-.1.6-.4.6-.6-.5-.6-.994a5.664,5.664,0,0,1,.1-.6,26.974,26.974,0,0,0,.1-2.881c0-.4-.1-1.788-.1-1.788a1.192,1.192,0,0,1-.1-.5c0-.4.3-.5.894-.5h1.788a.8.8,0,0,1,.6.7c0,.1,0,.1-.1.2l-.2.2-.4.6-.5.7.4.3a5.464,5.464,0,0,1,.894,1.093,4.868,4.868,0,0,1,.3,1.192,1.49,1.49,0,0,1-1.59,1.292l-.6-.2-.4-.4Zm0-.5a1.292,1.292,0,0,0,.894.2c.5,0,.795-.1.795-.5a3.279,3.279,0,0,0-.994-2.086l-.7.6v1.49h0Zm0-3.477v.894l.6-.795a3.179,3.179,0,0,0,.4-.894H35.26Z" transform="translate(-0.189 -0.297)" fill="#1a1a1a"/>
      <path id="パス_3521" data-name="パス 3521" d="M132.392,51.692,76.755,87.26l-7.948-5.067c-.1-.5,0-.795.7-1.192a36.064,36.064,0,0,0,5.067-1.292,44.115,44.115,0,0,0,4.371-1.987A42.921,42.921,0,0,0,84.7,73.45a20.566,20.566,0,0,0,4.371-5.166c.7-1.192.795-1.292,1.689-1.788a.994.994,0,0,0,.5-.795c.1-1.292-1.59-3.974-2.285-4.57a4.372,4.372,0,0,0-3.775-.795,56.035,56.035,0,0,0-5.961,1.59,43.417,43.417,0,0,1-7.749,1.689H70.2c-1.788,0-2.583-.3-2.881-.7s1.093-.994,1.49-1.292l.3-.2,2.086-1.292.894-.6,3.477-1.788,1.987-1.292c2.186-1.391,2.484-1.59,3.676-1.888h.4v-.7a3.279,3.279,0,0,0-1.292-2.384,10.929,10.929,0,0,0-3.477-.994,1.292,1.292,0,0,0-1.391,1.093,1.888,1.888,0,0,0,.2.795h0A68.391,68.391,0,0,1,69.4,56.56a48.681,48.681,0,0,0-6.16,4.173l-1.292.994A3.974,3.974,0,0,0,60.759,65.9c.5.894,3.179,1.59,3.577,1.59a25.833,25.833,0,0,0,3.875.3,31.892,31.892,0,0,0,4.57-.3A62.094,62.094,0,0,0,80.033,65.8a25.731,25.731,0,0,1,4.57-1.093h0a10.531,10.531,0,0,1-2.683,3.875l-.2.2a20.765,20.765,0,0,1-6.16,4.57A29.41,29.41,0,0,1,70.3,75.636a26.428,26.428,0,0,1-5.762.7,22.056,22.056,0,0,1-6.657-1.093L21.118,51.792H8.5L76.655,91.532l68.155-39.84Z" transform="translate(-0.055 -0.327)" fill="#1a1a1a"/>
      <path id="パス_3522" data-name="パス 3522" d="M21.018,48.34,76.655,12.772,132.392,48.34H144.91L76.655,8.5,8.5,48.34Z" transform="translate(-0.055 -0.055)" fill="#1a1a1a"/>
      <path id="パス_3523" data-name="パス 3523" d="M132.333,130.949v.7h0c0,.3.2.4,1.192.4s1.59,0,1.59-.4h0a34.466,34.466,0,0,1-.2-4.67c0-.894,0-2.186.1-3.577h0c0-.2-.1-.3-.4-.3l-5.266.2H122.3c-.2,0-.2,0-.2.1v.2a39.542,39.542,0,0,1,.1,4.173,40.42,40.42,0,0,1-.2,4.371h0c0,.3,0,.4,1.391.4s1.49-.1,1.49-.4V130.75a13.955,13.955,0,0,1,0-2.086v-3.279h7.551v3.279a23.4,23.4,0,0,1-.1,2.484" transform="translate(-0.791 -0.798)" fill="#1a1a1a"/>
      <path id="パス_3524" data-name="パス 3524" d="M131.562,128.4H125.7v2.086h5.862Z" transform="translate(-0.815 -0.832)" fill="#1a1a1a"/>
      <path id="パス_3525" data-name="パス 3525" d="M128.881,110.781a3.279,3.279,0,0,1,.2-.894c.1-.5.6-.894.6-1.192s-.1-.3-.4-.4a18.679,18.679,0,0,0-3.279-.5h-.1a12.617,12.617,0,0,1,.3,2.583c.2.3.894.4,2.682.2" transform="translate(-0.816 -0.699)" fill="#1a1a1a"/>
      <path id="パス_3526" data-name="パス 3526" d="M129.3,111.7c2.384,0,4.67,0,7.849-.2h.1a.2.2,0,0,1,.3.2v.7c0,1.689,0,1.689-.3,1.689-4.272-.2-7.551-.2-9.041-.2H121.35c0,.7.1,1.391.1,2.186,0,5.663-.994,11.227-4.371,15.3l-.3.2h-.3a12.419,12.419,0,0,0-2.583-.6h-.2v-.2c4.073-3.477,4.968-8.942,4.968-13.313a44.017,44.017,0,0,0-.4-5.365v-.2c0-.2,0-.2.2-.2h.2c1.689.2,4.67.3,7.054.3.5,0,1.689.1,3.676,0" transform="translate(-0.737 -0.722)" fill="#1a1a1a"/>
      <path id="パス_3527" data-name="パス 3527" d="M130.3,119.984l6.458.3h0c.1,0,.1-.1.1-.2a9.632,9.632,0,0,0,0-1.093,10.824,10.824,0,0,0,0-1.093c0-.2,0-.3-.2-.3-3.08.2-4.67.3-6.458.3a10.93,10.93,0,0,0,0,2.086" transform="translate(-0.844 -0.762)" fill="#1a1a1a"/>
      <path id="パス_3528" data-name="パス 3528" d="M129.378,117.681v-.2c0-1.192.1-.7.4-1.192a1.59,1.59,0,0,0,.3-.6c0-.6-2.086-.795-3.378-.894s-.2,0-.2.1v.2a30.7,30.7,0,0,1,.3,3.775v3.577h2.484v-4.57" transform="translate(-0.817 -0.744)" fill="#1a1a1a"/>
      <path id="パス_3529" data-name="パス 3529" d="M95.788,125.9H93.9v1.689h1.888Z" transform="translate(-0.609 -0.816)" fill="#1a1a1a"/>
      <path id="パス_3530" data-name="パス 3530" d="M96.561,124.984v-.894H93.183v5.464c0,1.59-.4.3-1.292.3s-1.292-.1-1.292-.4h0c.2-1.888.2-3.775.2-4.272a21.56,21.56,0,0,0-.1-2.484v-.2h7.948c.2,0,.3.1.3.2h0a22.252,22.252,0,0,0-.1,2.384c0,.5.1,1.888.2,3.477h0c0,.2-.1.3-.4.3H96.462a33.582,33.582,0,0,0,.1-3.775" transform="translate(-0.587 -0.794)" fill="#1a1a1a"/>
      <path id="パス_3531" data-name="パス 3531" d="M96.18,109.786h0c.1-.5.6-.795.6-1.192s-.1-.3-.4-.3a19.176,19.176,0,0,0-3.08-.6h-.2v.2q.156.854.4,1.689c.2.4,1.59.3,2.583.1" transform="translate(-0.603 -0.698)" fill="#1a1a1a"/>
      <path id="パス_3532" data-name="パス 3532" d="M91.36,115.7l-5.564-.2h-.2c-.2,0-.2,0-.2.1v.2a47.292,47.292,0,0,1,.2,5.166c0,5.862-.1,8.842-.3,10.929h0c0,.1.2.2.3.2h2.384c.2,0,.3-.1.3-.2-.2-3.676-.2-5.067-.2-9.836v-.795a5.265,5.265,0,0,1,1.292.894h.4a7.153,7.153,0,0,0,3.875-4.173,1.292,1.292,0,0,1,.5-.6h1.093c0,.6-.1,1.788-.1,2.086a5.018,5.018,0,0,0,2.782,1.788c3.08,0,3.676-.994,3.775-1.888v9.14c0,.795-.795.994-1.59.994l-1.987-.2h-.2v.2a12.022,12.022,0,0,1,1.788,2.186c.1.2.2.4.4.4,2.881,0,4.371-1.292,4.371-2.881v-.2c-.2-2.981-.2-7.352-.2-9.041a36.96,36.96,0,0,1,.2-4.173h0c0-.2-.1-.2-.3-.2H91.261m-3.179,5.166v-3.279h3.676a5.564,5.564,0,0,1-3.676,3.279m13.611-1.59-.2-.2a7.252,7.252,0,0,1-1.59-.994h-.2v.3c0,.994-.1,1.49-1.49,1.49s-.894-.2-.994-.5v-1.49h4.471Z" transform="translate(-0.553 -0.749)" fill="#1a1a1a"/>
      <path id="パス_3533" data-name="パス 3533" d="M98.8,114.771l.6-.3c.3-.3.7-.3.7-.6s-.5-.6-1.987-1.192l7.749.2a.214.214,0,0,0,.2-.2,9.737,9.737,0,0,0,.1-1.093,9.24,9.24,0,0,0-.1-.994c0-.1,0-.2-.2-.2h-.1c-3.577.2-6.756.2-9.637.2H93.536L84,110.4h-.1c-.2,0-.2.1-.2,1.292v.994c0,.2.1.2.3.2l7.253-.2h-.1c-.2.1-1.49.7-1.49.894l.2.2.894.894a3.974,3.974,0,0,0,2.782.2,9.736,9.736,0,0,0-1.888-2.186h5.762a7.451,7.451,0,0,1-.894,1.987c0,.4.894.4,1.49.3l.795-.3" transform="translate(-0.542 -0.715)" fill="#1a1a1a"/>
      <path id="パス_3534" data-name="パス 3534" d="M56.851,126.1h0c.795,2.782,3.974,3.179,7.948,3.279a60.5,60.5,0,0,0,10.233-1.292h.3v.2a12.022,12.022,0,0,0-1.292,2.682.5.5,0,0,1-.4.3,86.531,86.531,0,0,1-8.942.6c-4.769,0-7.65-1.49-8.743-3.477l-3.875,2.682c-.3.2-.5.6-.7.6a7.352,7.352,0,0,1-2.086-2.484c0-.1.1-.1.3-.2a33.084,33.084,0,0,0,4.272-1.987l2.981-1.391a.3.3,0,0,1,.3.3" transform="translate(-0.32 -0.814)" fill="#1a1a1a"/>
      <path id="パス_3535" data-name="パス 3535" d="M54.472,125.757c.1-1.292.1-1.987.1-2.881v-1.292a26.625,26.625,0,0,0-3.875.3h-.1c-.1,0-.3-.1-.3-.2s-.1-.795-.1-1.391V119.4c0-.2.1-.3.2-.3h.1l3.378.2,3.179-.2h0a.263.263,0,0,1,.3.3h0c-.4,3.08-.5,2.484-.7,4.868,0,.4-.3.6-2.186,1.391" transform="translate(-0.325 -0.772)" fill="#1a1a1a"/>
      <path id="パス_3536" data-name="パス 3536" d="M55.374,114.571l.3.2h.2c.3-.3,1.49-1.59,1.49-2.086S54.182,110.5,52.99,110.1h-.2a5.166,5.166,0,0,0-1.391,1.59l.2.2a32.39,32.39,0,0,1,3.676,2.881" transform="translate(-0.333 -0.714)" fill="#1a1a1a"/>
      <path id="パス_3537" data-name="パス 3537" d="M67.373,120.689V119H63.3v1.689h4.073" transform="translate(-0.41 -0.771)" fill="#1a1a1a"/>
      <path id="パス_3538" data-name="パス 3538" d="M68.087,111.178c.5-.4.894-.5,1.093-.7a2.484,2.484,0,0,1,.7-.7c.3-.2.5-.3.5-.5a9.9,9.9,0,0,0-2.683-1.49c-.3,0-.1.1-.2.3a27.123,27.123,0,0,1-1.391,3.179,4.074,4.074,0,0,0,1.888-.1" transform="translate(-0.428 -0.699)" fill="#1a1a1a"/>
      <path id="パス_3539" data-name="パス 3539" d="M64.77,111.279v-.2c0-.5-2.285-2.782-2.583-2.981h-.2c-.1,0-1.788.7-1.788.994v.2a16.194,16.194,0,0,1,1.49,1.888,4.972,4.972,0,0,0,2.881.3" transform="translate(-0.39 -0.701)" fill="#1a1a1a"/>
      <path id="パス_3540" data-name="パス 3540" d="M63.3,122.1v1.59h4.073V122H63.3" transform="translate(-0.41 -0.791)" fill="#1a1a1a"/>
      <path id="パス_3541" data-name="パス 3541" d="M63.762,115.079a7.651,7.651,0,0,0,.1-1.093l-5.464.3c-.3,0-.4-.2-.4-1.093s.1-1.292.3-1.292h.1l3.775.3c.894,0,2.583.1,7.054,0l4.073-.3a.3.3,0,0,1,.3.3c0,.2,0,.7,0,1.192s0,1.093-.3,1.093l-6.557-.3q.3.149.3.3a1.127,1.127,0,0,1-.6.6,3.179,3.179,0,0,1-2.583.2" transform="translate(-0.376 -0.725)" fill="#1a1a1a"/>
      <path id="パス_3542" data-name="パス 3542" d="M63.577,115.8H60.4c-.2,0-.2,0-.2.4.1,1.987.2,3.08.2,5.166s-.1,3.577-.3,6.458h0c0,.2.2.3,1.192.3s1.391-.1,1.391-.4v-.6h5.564v.5c0,.2.2.4,1.192.4s1.391,0,1.391-.4v-.2c-.2-2.881-.3-4.471-.3-5.862s.1-3.477.2-5.464h0c0-.2-.1-.2-.3-.2H63.577m4.67,9.538H62.584c-.1-1.689-.1-3.279-.1-4.272s.2-3.477.2-3.477h5.564v.894h0c0,1.192-.2,3.676,0,6.855" transform="translate(-0.39 -0.75)" fill="#1a1a1a"/>
      <path id="パス_3543" data-name="パス 3543" d="M28.581,109.984l.5-.6q.6-.447.6-.6a14.282,14.282,0,0,0-2.981-1.192c-.4,0-.1.1-.2.3a11.426,11.426,0,0,1-.894,3.279,3.279,3.279,0,0,0,1.689-.2,3.477,3.477,0,0,0,1.292-1.093" transform="translate(-0.166 -0.697)" fill="#1a1a1a"/>
      <path id="パス_3544" data-name="パス 3544" d="M35.8,124.6l-.3.3c-1.49,1.788-6.259,5.166-14.207,5.266h-.2v.2a5.067,5.067,0,0,1,1.788,1.788l.3.2h.5A26.825,26.825,0,0,0,36.3,127.382a1.689,1.689,0,0,1,1.093-.5c.5-.1.795-.2.795-.4A6.955,6.955,0,0,0,35.9,124.6" transform="translate(-0.137 -0.808)" fill="#1a1a1a"/>
      <path id="パス_3545" data-name="パス 3545" d="M24.088,128.955h.3a19.87,19.87,0,0,0,8.743-4.471,1.59,1.59,0,0,1,.894-.4c.4-.1.7-.2.7-.4A6.06,6.06,0,0,0,32.434,122l-.3.3c-1.192,1.689-4.67,4.272-9.736,5.067h-.1v.2a6.16,6.16,0,0,1,1.689,1.391" transform="translate(-0.145 -0.791)" fill="#1a1a1a"/>
      <path id="パス_3546" data-name="パス 3546" d="M24.28,114.8s.3.1.3.3,0,.1-.3.3a1.391,1.391,0,0,0-.5.6c-.2.5-.4.4-.7.5a3.974,3.974,0,0,1-1.888.3,9.438,9.438,0,0,0,.6-1.689c.4,0-.1.1,2.583-.3" transform="translate(-0.137 -0.744)" fill="#1a1a1a"/>
      <path id="パス_3547" data-name="パス 3547" d="M24.571,114.281l9.339-1.391-2.186-1.59-3.08.4-4.173.4H20.2a9.935,9.935,0,0,0,1.292,2.384c.1,0,.3.2,3.179-.4" transform="translate(-0.131 -0.721)" fill="#1a1a1a"/>
      <path id="パス_3548" data-name="パス 3548" d="M35.278,112.775h.1l1.391,1.391.3.2h.2a8.644,8.644,0,0,0,1.292-1.292v-.3c0-.5-5.067-3.775-5.464-3.775s-.3.2-1.192,1.093v.4l3.179,2.285" transform="translate(-0.207 -0.706)" fill="#1a1a1a"/>
      <path id="パス_3549" data-name="パス 3549" d="M35.384,115.386a1.292,1.292,0,0,1,.5-.6c.3-.2.5-.4.5-.5a10.186,10.186,0,0,0-2.683-.994c-.5,0-.1.1-.1.2a8.644,8.644,0,0,1-.7,2.682,3.378,3.378,0,0,0,1.49-.2,1.689,1.689,0,0,0,.994-.7" transform="translate(-0.213 -0.734)" fill="#1a1a1a"/>
      <path id="パス_3550" data-name="パス 3550" d="M24.958,118.479l-4.67,1.093-.7.3c-.4,0-1.093-1.888-1.093-2.186s.1-.1.2-.1h2.186l2.881-.4,1.292-.2-.5-.5v-.2c0-.2,1.292-.894,1.292-.994h.1l.994.994a10.134,10.134,0,0,1-1.888,2.285" transform="translate(-0.12 -0.747)" fill="#1a1a1a"/>
      <path id="パス_3551" data-name="パス 3551" d="M38.486,118.177l.6.894h.2c.1,0,1.49-1.093,1.49-1.391a11.028,11.028,0,0,0-1.391-1.689h0L37.99,114.6h-.2a3.974,3.974,0,0,0-1.391.994v.2l2.086,2.384" transform="translate(-0.236 -0.743)" fill="#1a1a1a"/>
      <path id="パス_3552" data-name="パス 3552" d="M34.888,118.587l2.683-.6L36.279,116.6,33,116.9a15.3,15.3,0,0,0,1.987,1.689" transform="translate(-0.214 -0.756)" fill="#1a1a1a"/>
      <path id="パス_3553" data-name="パス 3553" d="M29.714,117.382a44.509,44.509,0,0,1-7.352,7.054,13.114,13.114,0,0,0,6.955-4.67l.2-.2a8.246,8.246,0,0,1,2.186,1.49c0,.1-.2.2-.5.4a1.391,1.391,0,0,0-.7.4c-3.974,3.775-5.961,4.173-6.16,4.173h-.2a4.868,4.868,0,0,0-1.788-1.093h-.2a15,15,0,0,1-2.881,1.888h-.2a5.663,5.663,0,0,0-2.285-1.391l-.3-.2.3-.2a25.831,25.831,0,0,0,8.445-5.663h.1l1.888-2.186.2-.3v-.2a6.06,6.06,0,0,0,1.093-1.888.214.214,0,0,1,.2-.2c.1,0,2.683.894,2.683,1.49s-.3.4-.6.5l-1.391,1.292" transform="translate(-0.107 -0.743)" fill="#1a1a1a"/>
      <path id="パス_3554" data-name="パス 3554" d="M30.3,117.992c3.179,3.775,9.637,7.551,10.134,7.551l.3-.2a7.749,7.749,0,0,1,2.384-1.59l.3-.2h-.3a30.4,30.4,0,0,1-8.644-4.371,24.839,24.839,0,0,1-2.384-1.987l-.4-.4a5.564,5.564,0,0,0-1.391,1.292" transform="translate(-0.196 -0.757)" fill="#1a1a1a"/>
      <path id="パス_3555" data-name="パス 3555" d="M20.3,148.746l.3.5a2.086,2.086,0,0,0,.994.2,1.788,1.788,0,0,0,1.888-1.689c0-1.689-3.179-2.086-3.279-4.272a2.384,2.384,0,0,1,2.285-2.583h1.192l.3-.5h.1v2.186h-.1l-.3-.5c-.7-.6-2.384-.2-2.384.994s3.577,2.086,3.279,4.868-2.881,2.384-4.073,2.285l-.3.4h-.1v-1.987Z" transform="translate(-0.13 -0.91)"/>
      <path id="パス_3556" data-name="パス 3556" d="M35.358,150.339H33.371l.4-.5-.6-2.285H30.986l-.6,2.285.4.5H28.9l.4-.5L31.781,141h.894l2.285,8.842Zm-2.384-3.775c-.3-1.093-.6-2.186-.894-3.378l-.994,3.378Z" transform="translate(-0.187 -0.914)"/>
      <path id="パス_3557" data-name="パス 3557" d="M44.172,141H46.06v.2l-.4.4v8.147l.4.5H44.669l-3.279-6.855v6.359l.4.5H39.9l.4-.5v-7.948l-.4-.894h1.391l3.279,6.855V141.4Z" transform="translate(-0.259 -0.913)"/>
      <path id="パス_3558" data-name="パス 3558" d="M56.661,145.868c0,2.285-1.292,4.471-3.775,4.471H50.7l.4-.7V141.7l-.4-.7h1.788c2.683,0,4.073,2.484,4.073,4.968m-1.192-.5c-.1-1.987-1.093-3.775-2.881-3.775h-.4v7.551c0,.4.1.5.6.5s2.782-2.186,2.683-4.272" transform="translate(-0.329 -0.914)"/>
      <path id="パス_3559" data-name="パス 3559" d="M64.579,150.438c-2.086-.2-3.279-2.086-3.279-4.67S62.989,141,64.877,141s3.179,1.987,3.179,4.471S66.665,150.438,64.579,150.438Zm.2-.7c1.391,0,2.086-2.086,2.086-4.073s-.6-4.073-1.987-4.073-2.186,2.086-2.186,4.073S63.386,149.743,64.777,149.743Z" transform="translate(-0.397 -0.914)"/>
      <path id="パス_3560" data-name="パス 3560" d="M79.5,148.746l.3.5a2.086,2.086,0,0,0,.994.2,1.788,1.788,0,0,0,1.888-1.689c0-1.689-3.179-2.086-3.279-4.272a2.384,2.384,0,0,1,2.384-2.583h1.192l.3-.5h.1v2.186h-.1l-.3-.5c-.7-.6-2.384-.2-2.384.994s3.577,2.086,3.279,4.868-2.881,2.384-4.073,2.285l-.3.4h-.1v-1.987Z" transform="translate(-0.515 -0.91)"/>
      <path id="パス_3561" data-name="パス 3561" d="M88.4,141h1.888l-.4.5v3.477h2.881V141.5l-.4-.5h1.888l-.4.5v8.346l.4.5v.1H92.374v-.1l.4-.5v-3.875H89.89v3.875l.4.5v.1H88.4v-.1l.4-.5V141.5l-.4-.5Z" transform="translate(-0.573 -0.914)"/>
      <path id="パス_3562" data-name="パス 3562" d="M102.179,150.438c-2.086-.2-3.279-2.086-3.279-4.67s1.59-4.868,3.577-4.868,3.179,1.987,3.179,4.471-1.391,4.968-3.477,4.968Zm.2-.7c1.391,0,2.086-2.086,2.086-4.073s-.6-4.073-1.987-4.073-2.186,2.086-2.186,4.073S100.986,149.742,102.377,149.742Z" transform="translate(-0.641 -0.913)"/>
      <path id="パス_3563" data-name="パス 3563" d="M112.586,149.838v-8.147H110.8l-.3.6h-.1V140.4h.1l.3.6h4.67l.3-.6h.1v1.888h-.1l-.3-.6h-1.788v8.147l.5.5h-2.086Z" transform="translate(-0.715 -0.91)"/>
      <path id="パス_3564" data-name="パス 3564" d="M124.671,142.188l-.3-.6H121.79v3.577h1.292l.3-.6h.2v1.788h-.2l-.3-.6H121.79v3.775h2.682l.3-.6h.2v1.888h-.2l-.3-.6H120.3l.4-.795v-7.849l-.4-.6h4.173l.3-.6h.2v1.788Z" transform="translate(-0.78 -0.91)"/>
      <path id="パス_3565" data-name="パス 3565" d="M133.772,141h1.888v.2l-.4.4v8.147l.4.5h-1.391l-3.279-6.855v6.359l.4.5H129.5l.4-.5v-7.948l-.4-.894h1.391l3.279,6.855V141.4Z" transform="translate(-0.839 -0.913)"/>
    </g>
  </g>
</svg>
