<svg xmlns="http://www.w3.org/2000/svg" xmlns:xlink="http://www.w3.org/1999/xlink" width="160" height="145.981" viewBox="0 0 160 145.981">
  <defs>
    <clipPath id="clip-path">
      <rect id="長方形_7" data-name="長方形 7" width="160" height="145.981" fill="none"/>
    </clipPath>
  </defs>
  <g id="参道茶屋" transform="translate(80 72.991)">
    <g id="グループ_10" data-name="グループ 10" transform="translate(-80 -72.991)" clip-path="url(#clip-path)">
      <path id="パス_67" data-name="パス 67" d="M119.723,61.114c-.744-.093-4.558-.558-5.209-.744a86.419,86.419,0,0,1-21.4-9.4l-2.419-1.4c-1.953-1.3-4.279-2.791-5.4-3.349l.744-.372a1.674,1.674,0,0,0,.93-1.488,3.256,3.256,0,0,0-3.442-3.07l-2.977.186h-.372l-.279,2.233.186.186c.465.372.558.558.558.651S75.444,50.881,65.77,56.183c-3.721,2.14-14.14,6.047-17.4,6.047-1.4,0-1.674.558-1.674,1.023,0,2.512,3.628,3.442,6.047,3.442s8.651-2.419,16.93-7.535a46.326,46.326,0,0,0,5.209-3.814l2.14-1.674L80,51.346l2.6-2.047c.837.186,1.86.837,8,5.209,10.977,7.721,18.419,11.628,22.14,11.628,1.674,0,5.3-.744,6.047-2.047a11.535,11.535,0,0,0,1.3-2.512v-.465Z" transform="translate(-3.258 -2.881)" fill="#1a1a1a"/>
      <path id="パス_68" data-name="パス 68" d="M71.258,42.015c-.651,0-1.3.372-1.3.93a1.4,1.4,0,0,0,.186.558v.186h0c-.558,1.674-2.977,3.442-4.279,3.442s-5.116-1.116-5.116-1.86,3.442-2.791,4.279-3.163,2.791-1.3,2.791-2.326-3.07-3.07-5.674-2.884h-.186v.651a2.791,2.791,0,0,0,.186.651v.651h0a18.283,18.283,0,0,1-3.349,3.907c-3.163,2.233-3.535,2.419-5.767,2.7S50.7,48.527,50.7,49.55a1.4,1.4,0,0,0,1.4,1.4c.372,0,.558-.093,1.209-.465a7.685,7.685,0,0,1,2.233-1.023,13.023,13.023,0,0,1,3.535.651c3.256.93,4.558,1.3,5.581,1.3s2.884-1.3,5.488-2.791h.093L72.1,47.6c1.209-.186,2.233-.372,2.233-2.326a3.256,3.256,0,0,0-3.256-3.349" transform="translate(-3.537 -2.574)" fill="#ff1900"/>
      <path id="パス_69" data-name="パス 69" d="M96.937,33.781h.186l1.488.372a2.871,2.871,0,0,0,2.233-2.419c0-.93-1.4-1.767-2.047-2.047l-.651-.372c-1.767-1.116-3.535-2.233-4.186-2.233a2.791,2.791,0,0,0-1.4.465h-.093a10.419,10.419,0,0,0-.093,2.512v.279h-.093c-3.349,2.233-4.093,2.233-8.837,2.233l-3.814-.837h-.279v-.279c.093-.279.372-.372,1.3-.93l.465-.186c3.535-1.86,3.907-2.14,5.3-2.233s.651-.279,1.3-1.023h.093l.186-.186h0c-1.116-1.953-4-2.7-5.581-2.7a1.86,1.86,0,0,0-1.023.279h-.186v.558a1.489,1.489,0,0,1,.093.465c0,.837-2.7,2.884-5.209,4.465s-3.07,1.674-4.558,1.674A4.093,4.093,0,0,0,68.1,34.619a2.326,2.326,0,0,0,.837,1.488h0l1.116.279h.279a24.093,24.093,0,0,1,4.558-.558,17.954,17.954,0,0,1,3.349.372l.558.186,2.6.651c5.209,0,8.744-.558,10.791-1.674s2.7-1.488,3.628-1.488l.93.279" transform="translate(-4.751 -1.688)" fill="#ff1900"/>
      <path id="パス_70" data-name="パス 70" d="M115.648,41.46h-.186c-1.023-1.4-1.4-1.488-3.349-1.767h-.186a1.116,1.116,0,0,0-.465.744h0v.279a1.953,1.953,0,0,1,.186.744c0,.93-3.07,3.163-4.372,3.163l-2.6-.744-1.209-.372h-.093c-.837-.279-1.488-.465-1.488-1.023s1.767-1.674,2.977-2.14l2.047-.465H107l2.14-.465h.093v-.279a3.534,3.534,0,0,0,.093-.744c0-1.86-3.535-2.791-5.023-2.791h-.465a2.512,2.512,0,0,0-.279,1.116h-.093A33.488,33.488,0,0,1,95,42.856h0v.186c-.093,1.86-.093,2.977.465,3.535a1.023,1.023,0,0,0,.744.279l1.4-.372h.093l1.4-.372,2.419.744,1.023.372c2.6.93,2.884,1.023,4,1.023a10.512,10.512,0,0,0,7.628-2.791h.093c1.4-.279,2.7-.837,2.7-2.047a1.581,1.581,0,0,0-.186-.744c-.093-.279-.372-.651-1.3-1.4" transform="translate(-6.624 -2.484)" fill="#ff1900"/>
      <path id="パス_71" data-name="パス 71" d="M131.716,11.972l.465-.372c.186,0,.279.093.372.372A1.86,1.86,0,0,1,132.274,13a13.768,13.768,0,0,1-1.488,2.233h.093a2.047,2.047,0,0,1,.372,1.4q-.093,2.14-.093,4.744V25a2.6,2.6,0,0,1-.279,1.86c-.279.279-.558.372-.837,0a2.046,2.046,0,0,1-.372-1.581c0-1.674.093-3.535.093-5.4V16.437a6.326,6.326,0,0,1-1.488,1.116,1.3,1.3,0,0,1-1.209,0,.93.93,0,0,1-.465-.837.744.744,0,0,1,.558-.651,8.837,8.837,0,0,0,3.07-2.047A12.372,12.372,0,0,0,132,12.065m7.442,6.884-.186.558.558.651c1.581,1.3,2.884,2.419,4.093,3.256a19.254,19.254,0,0,0,2.6,1.581c.558.186.744.465.372.837a4.186,4.186,0,0,1-1.581.837,1.3,1.3,0,0,1-1.488-.465c-1.3-1.581-2.6-3.163-3.907-4.465a2.883,2.883,0,0,0-1.023-.651h-.186l-.279.558a10.977,10.977,0,0,1-1.953,2.326,9.953,9.953,0,0,1-1.86,1.488,2.6,2.6,0,0,1-1.581.558,1.3,1.3,0,0,1-.837-.558,1.116,1.116,0,0,1-.279-.744c0-.186.279-.372.651-.465a7.256,7.256,0,0,0,2.7-1.3A8.837,8.837,0,0,0,137.3,21a5.116,5.116,0,0,0,.93-2.419V18.2l-3.256.372a1.36,1.36,0,0,1-1.4-.186c-.279-.279-.093-.651.279-1.209a1.488,1.488,0,0,1,1.4-.558l3.07.279c0-.744,0-1.674-.093-2.791a1.488,1.488,0,0,1,.186-.93.651.651,0,0,1,.651-.372.837.837,0,0,1,.651.279,1.116,1.116,0,0,1,.186.837V16.9h4.186c.651,0,1.116,0,1.209.279a.744.744,0,0,1-.093.837c-.186.279-.651.372-1.209.372h-4.186q-.019.56-.093,1.116m3.907-6.047A.558.558,0,0,1,144,14.2a4.094,4.094,0,0,1-.465.93l-.651.93a.966.966,0,0,1-.744.465c-.186,0-.186-.279-.186-.651l.372-1.581a1.4,1.4,0,0,1,.465-.837.744.744,0,0,1,.837,0" transform="translate(-8.832 -0.809)" fill="#1a1a1a"/>
      <path id="パス_72" data-name="パス 72" d="M139.85,90.63a1.861,1.861,0,0,1-1.209.186H137.9V91a19.382,19.382,0,0,0-.186,2.047,1.675,1.675,0,0,0,.465,1.023,1.954,1.954,0,0,0,1.116.651l2.326.186a6.7,6.7,0,0,0,2.326-.279,7.628,7.628,0,0,0,1.767-.837c.465-.372.744-.186.651.465a4.837,4.837,0,0,1-.744,1.953,1.3,1.3,0,0,1-1.581.651,26.048,26.048,0,0,1-4.744-.651A4.093,4.093,0,0,1,136.873,95a2.512,2.512,0,0,1-.465-1.488c0-1.3-.093-2.233-.093-2.7H135.2l-.279.651a13.3,13.3,0,0,1-1.4,1.581,10.046,10.046,0,0,1-1.674,1.674l-1.86,1.4a2.419,2.419,0,0,1-2.047.279,1.581,1.581,0,0,1-.744-.837c-.093-.279.186-.558.744-.744a10.882,10.882,0,0,0,2.419-1.023,6.883,6.883,0,0,0,2.047-1.488l1.023-1.3h-.372a1.3,1.3,0,0,1-1.209-.186,1.767,1.767,0,0,1-.465-1.3V84.677a14.235,14.235,0,0,0,0-1.488,1.183,1.183,0,0,1,1.209-1.488h6.047a3.814,3.814,0,0,1,1.488.372.93.93,0,0,1,.465.93c0,2.14-.093,4.372-.093,6.419a1.209,1.209,0,0,1-.651,1.209m-.744-3.907V85.514h-6.512V86.63h6.512m-.093-2.326a4.743,4.743,0,0,0-.186-1.3h-2.884a9.581,9.581,0,0,0-2.977.186,1.86,1.86,0,0,0-.279,1.116h6.419m-5.86,4.93h5.674a2.419,2.419,0,0,0,.279-1.209h-6.326a2.7,2.7,0,0,0,.372,1.3" transform="translate(-8.873 -5.7)" fill="#1a1a1a"/>
      <path id="パス_73" data-name="パス 73" d="M29.281,26.746c-.186.279-.372.465-.558.465s-.372-.279-.558-.651a6.512,6.512,0,0,1-.186-2.233V20.235l-.558.837a7.907,7.907,0,0,1-1.4,1.3,2.7,2.7,0,0,1-1.767.558.651.651,0,0,1-.558-.651c0-.279.372-.651,1.023-1.023a9.581,9.581,0,0,0,2.14-1.488A4.837,4.837,0,0,0,28.165,18v-.837h-.279l-2.233.279a.93.93,0,0,1-1.023-.372c-.186-.279.093-.651.744-1.023a2.791,2.791,0,0,1,1.953-.372h.837v-.744a4.744,4.744,0,0,0-.093-1.3H26.3a.426.426,0,0,1-.465-.372c0-.186.093-.279.372-.372a11.349,11.349,0,0,0,2.419-.465l1.116-.744c.279-.279.651-.279,1.023.093a1.116,1.116,0,0,1,.372,1.116.744.744,0,0,1-.837.558h-.558a3.163,3.163,0,0,0-.186,1.3v1.023l1.674.186c.372.093.651.186.744.372s0,.279-.372.465a2.7,2.7,0,0,1-1.4.186H29.56v8.372a2.977,2.977,0,0,1-.186,1.3m2.512-7.07a1.209,1.209,0,0,1,.093,1.209.744.744,0,0,1-.93.372,1.209,1.209,0,0,1-.837-1.023,4.465,4.465,0,0,0-.372-.837c-.093-.186-.093-.279.093-.372a1.581,1.581,0,0,1,.93.186,1.86,1.86,0,0,1,.93.465m.837-4.93a1.023,1.023,0,0,1,.93-.372.744.744,0,0,1,.558.651l.372,1.116a4.372,4.372,0,0,1,.372,1.023.186.186,0,0,1-.186.186l-.372-.279-1.674-1.3a.523.523,0,0,1,0-.837m7.721-3.349a1.488,1.488,0,0,1,.465.651,1.3,1.3,0,0,1,.186.837c0,.186-.279.372-.837.465l-5.023.372L33.1,13.63c-.372-.093-.558-.186-.465-.372s.279-.279.651-.279l2.884-.465,2.512-.465.837-.372c.372-.279.744-.372.837-.279M33.1,18.56a.558.558,0,0,1,.93.093,2.047,2.047,0,0,1,.372,1.488c0,.744-.093,1.581-.093,2.512v1.86a2.6,2.6,0,0,1-.279,1.86.558.558,0,0,1-.837,0,2.14,2.14,0,0,1-.372-1.581V19.956a1.488,1.488,0,0,1,.372-1.3m2.884-.093.93-.186h4.186a1.746,1.746,0,0,1,1.209.279,1.674,1.674,0,0,1,.186,1.023c0,.465,0,1.116,0,1.86v3.442a1.674,1.674,0,0,1-.465,1.488,1.86,1.86,0,0,1-1.3.279H37a1.116,1.116,0,0,1-1.116-.372,2.512,2.512,0,0,1-.372-1.4V19.211a.837.837,0,0,1,.465-.744m1.209-4.186a.93.93,0,0,1,.93.186.93.93,0,0,1,.093.837,4,4,0,0,0-.279.93,2.233,2.233,0,0,1-.372.837h-.279a1.023,1.023,0,0,1-.186-.465l-.558-1.767c-.093-.372.093-.558.558-.651M41,21.351v-.372a4.186,4.186,0,0,0-.186-1.488,5.023,5.023,0,0,0-1.953-.186,5.953,5.953,0,0,0-2.047.186,5.861,5.861,0,0,0-.186,1.86h4.279m-4.279,1.4a7.163,7.163,0,0,0,.186,2.326,4.465,4.465,0,0,0,1.953.186,4.558,4.558,0,0,0,1.953-.186A2.7,2.7,0,0,0,41,23.583q0-.419,0-.837H36.63Zm5.023-8.465a.651.651,0,0,1,.744.372.93.93,0,0,1,.093.744c0,.186-.279.465-.651.744l-1.209.93-.372.186c-.093,0-.093-.093-.093-.279v-.465a9.86,9.86,0,0,1,.558-1.767.93.93,0,0,1,.744-.558" transform="translate(-1.653 -0.793)" fill="#1a1a1a"/>
      <path id="パス_74" data-name="パス 74" d="M29.194,87.071a.744.744,0,0,1,.558-.279c.186,0,.279.093.279.372a1.767,1.767,0,0,1-.465.93l-.837.837h.093A2.046,2.046,0,0,1,29.1,90.42c0,.837-.093,1.767-.093,2.7v2.047a2.7,2.7,0,0,1-.279,1.86c-.279.279-.558.372-.837,0a2.046,2.046,0,0,1-.372-1.581V89.955l-.372.279a8.093,8.093,0,0,1-1.86.93,1.3,1.3,0,0,1-1.116-.279.93.93,0,0,1-.372-.93.651.651,0,0,1,.744-.558,8.744,8.744,0,0,0,2.884-1.116l1.86-1.3m8.558-4.093v.279H41.38q.837,0,.837.279a1.624,1.624,0,0,1-.465.93,2.977,2.977,0,0,1-1.116.837,2.14,2.14,0,0,1-1.4-.093l-1.86-.558a2.418,2.418,0,0,1-.093.372,1.674,1.674,0,0,1-.465.93c-.186.186-.372.093-.465-.093a2.047,2.047,0,0,1-.093-1.023q0-.279,0-.558l-2.326-.279-2.6.279v.744a1.023,1.023,0,0,1-.279.744.372.372,0,0,1-.465,0,1.3,1.3,0,0,1-.465-.744l-.186-.651-2.233.651a3.294,3.294,0,0,1-1.674.279.744.744,0,0,1-.372-.651,1.4,1.4,0,0,1,.558-1.023,2.139,2.139,0,0,1,1.4-.651h1.86l-.186-.558c-.093-.279,0-.465.279-.744a.837.837,0,0,1,1.023-.093c.372.186.558.465.465.744a4.187,4.187,0,0,0,0,.558h5.023v-.465a.744.744,0,0,1,.465-.837.93.93,0,0,1,1.023.186.651.651,0,0,1,.186.93m5.3,5.674a3.721,3.721,0,0,1-.744.93.93.93,0,0,1-1.116.093l-1.209-.465a3.813,3.813,0,0,1,0,.465,7.255,7.255,0,0,0-.093.837v2.791a8.651,8.651,0,0,1-.279,3.163A2.7,2.7,0,0,1,38.031,97.3a4.465,4.465,0,0,1-2.326,0,2.326,2.326,0,0,1-1.3-.651q-.419-.419-.279-.558c.093-.093.465-.093,1.209,0a3.163,3.163,0,0,0,1.674-.186,2.14,2.14,0,0,0,1.209-1.023,5.488,5.488,0,0,0,.372-2.326c-.093-1.3-.186-2.14-.186-2.7a7.628,7.628,0,0,1-.093-1.4H34.5l-2.047.279-1.116.372a.943.943,0,0,1-1.209-.093c-.279-.279-.186-.744.186-1.209a.93.93,0,0,1,.837-.372l2.419-.186a28.184,28.184,0,0,1,4.093-.093l5.209.558c.372,0,.372.279.186.651M30.962,91.63a1.953,1.953,0,0,1,.279-1.116.837.837,0,0,1,.651-.279h3.07a2.791,2.791,0,0,1,1.4.279.651.651,0,0,1,.279.837,3.349,3.349,0,0,0-.093.837v.186a2.977,2.977,0,0,1-.186,1.023,1.4,1.4,0,0,1-.651.744,1.674,1.674,0,0,1-1.116.093H32.543a1.3,1.3,0,0,1-1.023,0c-.279-.186-.372-.744-.465-1.674a8.054,8.054,0,0,1-.093-1.023m3.814,1.116c.093,0,.093-.279.093-.651a1.209,1.209,0,0,0-.093-.651H33.659l-1.116.186a1.4,1.4,0,0,0-.093.651,1.675,1.675,0,0,0,.093.651h2.233" transform="translate(-1.659 -5.676)" fill="#1a1a1a"/>
      <path id="パス_75" data-name="パス 75" d="M135.888,52.467h1.953l1.3.186c.279.093.465.093.465.186s-.465.837-.93.837H138.4l-.837-.279-.744-.186h-3.07l-.837.186-.837.186H131.7l-.651.279h-.465a.651.651,0,0,1-.186-.372,1.023,1.023,0,0,1,.93-.93h.651l2.233-.279h.279a1.572,1.572,0,0,0-.186-.465.483.483,0,0,1-.186-.372c0-.186.093-.279.465-.558l.465-.186c.372,0,.465.279.465.558V52.1h.465Zm-4.93,5.674a3.907,3.907,0,0,0,1.488-.744.651.651,0,0,0,.186-.372L133,56.84a.558.558,0,0,1,.558.465c0,.093,0,.186-.372.558l-.558.651-.744.651h-.279c-.093,0-1.023-.279-1.116-.744s.093-.186.372-.279m4.372-1.581v2.512a.651.651,0,0,1-.465.651.837.837,0,0,1-.651-.837,1.4,1.4,0,0,1,.186-.558,2.139,2.139,0,0,0,.186-.651V56.467h-1.209l-.186-.279-.279-.837-.186-.465V54.7a.93.93,0,0,1,.558-.744,7.256,7.256,0,0,1,1.953-.186,6.6,6.6,0,0,1,1.953.279c.186.093.279.465.279.558a2.6,2.6,0,0,1-.279.465,9.116,9.116,0,0,1-.558,1.209H135.33Zm-.558-.93h1.4l.186-.744h-1.953l-.558.186v.837Zm1.86,2.14c-.372-.372-.372-.372-.372-.558s.465-.465.744-.465.279.093.279.186v.186c0,.186,1.209.651,1.3.651l.837.372a1.3,1.3,0,0,1-1.023.93l-.465-.186-.744-.558Z" transform="translate(-9.098 -3.537)" fill="#1a1a1a"/>
      <path id="パス_76" data-name="パス 76" d="M34.326,54.614h-1.4l-.465.186a.372.372,0,0,1-.372-.372,1.023,1.023,0,0,1,.744-.837h1.674V52.94h-1.4a.279.279,0,0,1-.279-.372.744.744,0,0,1,.651-.744H34.6l-.186-.279v-.186c0-.279.465-.558.744-.558a.372.372,0,0,1,.372.372v.651c0,.093.093.093.186.093s.651,0,.744-.279v-.186h.186c.093,0,.465.279.465.465V52.1l-.279.372-.558.93v.186h.093c.837,0,1.023,0,1.023.279a.465.465,0,0,1-.372.465H35.535a2.613,2.613,0,0,0-.744.744h1.4a.982.982,0,0,1,.837.837V56.1a.558.558,0,0,0-.186.372v.93a4.093,4.093,0,0,1-.186,1.023l-.279.186H34.7l-.186.465h-.093a.465.465,0,0,1-.372-.465v-.837c0-.186,0-1.3-.186-1.3l-.465.372-.558.279A1.3,1.3,0,0,1,32,56.2c0-.186.279-.186.465-.186a3.721,3.721,0,0,0,1.953-1.3Zm.465,2.047h1.3a2.79,2.79,0,0,0,0-.465h-1.3c-.093,0-.186.093-.186.279v.186Zm.186.651H34.7v.465H36v-.558H34.977Zm.465-3.628.372-.651h-.465a1.4,1.4,0,0,0-.186.558h.186m2.884,4.093v1.023s-.093.651-.465.651-.651-.558-.651-1.023a6.233,6.233,0,0,1,.186-.651c.093-.279.093-2.7.093-3.07s-.093-1.86-.093-1.953a1.3,1.3,0,0,1-.093-.558c0-.465.372-.558,1.023-.558H40a.837.837,0,0,1,.651.744.325.325,0,0,1-.093.186l-.186.186-.465.651-.558.651.372.279a5.86,5.86,0,0,1,.93,1.209,5.117,5.117,0,0,1,.372,1.488,1.581,1.581,0,0,1-1.581,1.581l-.651-.279-.465-.465Zm0-.558a1.4,1.4,0,0,0,.93.186c.558,0,.93-.093.93-.558a3.442,3.442,0,0,0-1.116-2.047l-.744.651v1.488h0Zm0-3.628v.93l.651-.837a3.349,3.349,0,0,0,.372-1.023H38.233Z" transform="translate(-2.233 -3.544)" fill="#1a1a1a"/>
      <path id="パス_77" data-name="パス 77" d="M139.384,57.2,80.593,94.784l-8.372-5.3c-.093-.558,0-.837.744-1.3a38.048,38.048,0,0,0,5.4-1.3,46.324,46.324,0,0,0,4.651-2.14,45.486,45.486,0,0,0,5.953-4.558,21.767,21.767,0,0,0,4.651-5.488c.744-1.209.93-1.4,1.767-1.86a1.023,1.023,0,0,0,.558-.837c.186-1.4-1.674-4.279-2.419-4.837a4.558,4.558,0,0,0-4-.93A59.718,59.718,0,0,0,83.291,67.9,46.232,46.232,0,0,1,75.1,69.76h-1.4c-1.86,0-2.791-.372-2.977-.744s1.116-1.023,1.581-1.4l.279-.186,2.14-1.3.93-.558,3.628-2.14,2.233-1.209c2.233-1.488,2.6-1.674,3.814-2.047H85.8v-.744a3.442,3.442,0,0,0-1.3-2.512A11.535,11.535,0,0,0,80.872,55.9c-.651,0-1.488.465-1.488,1.209a1.953,1.953,0,0,0,.186.837h0a79.159,79.159,0,0,1-6.6,4.372,51.908,51.908,0,0,0-6.419,4.465l-1.3,1.023a4.186,4.186,0,0,0-1.3,4.465c.558.93,3.349,1.674,3.814,1.674a27.347,27.347,0,0,0,4.186.279,33.767,33.767,0,0,0,4.837-.372,65.487,65.487,0,0,0,7.628-1.767,27.071,27.071,0,0,1,4.837-1.116h0a11.163,11.163,0,0,1-3.07,4.093l-.186.186a21.954,21.954,0,0,1-6.512,4.837,30.977,30.977,0,0,1-5.488,2.326,28.094,28.094,0,0,1-6.14.744,23.257,23.257,0,0,1-7.163-1.116L21.709,57.2H8.5L80.593,99.249,152.686,57.2Z" transform="translate(-0.593 -3.9)" fill="#1a1a1a"/>
      <path id="パス_78" data-name="パス 78" d="M21.709,50.547,80.593,13.058l58.791,37.488h13.3L80.593,8.5,8.5,50.547Z" transform="translate(-0.593 -0.593)" fill="#1a1a1a"/>
      <path id="パス_79" data-name="パス 79" d="M62.386,141.284h0c.837,2.884,4.093,3.349,8.279,3.442a62.974,62.974,0,0,0,10.7-1.3h.279v.186a13.023,13.023,0,0,0-1.3,2.884.558.558,0,0,1-.465.372,89.394,89.394,0,0,1-9.4.651c-4.93,0-8-1.488-9.209-3.628l-4.093,2.791c-.372.186-.558.651-.744.651a7.721,7.721,0,0,1-2.233-2.6c0-.093.093-.186.279-.186a34.045,34.045,0,0,0,4.465-2.047l3.163-1.4a.279.279,0,0,1,.372.372" transform="translate(-3.781 -9.842)" fill="#1a1a1a"/>
      <path id="パス_80" data-name="パス 80" d="M59.965,140.47c.093-1.4.093-2.14.093-3.07V136a27.905,27.905,0,0,0-4.093.279h-.093c-.186,0-.279-.093-.279-.186s-.093-.837-.093-1.4v-.93c0-.186.093-.372.186-.372h.093l3.535.186,3.349-.186h.093a.279.279,0,0,1,.279.279h0c-.372,3.256-.558,2.6-.744,5.116,0,.465-.279.558-2.326,1.4" transform="translate(-3.872 -9.307)" fill="#1a1a1a"/>
      <path id="パス_81" data-name="パス 81" d="M61,128.037l.279.186.279-.186c.279-.279,1.581-1.674,1.581-2.14s-3.349-2.233-4.558-2.7H58.4a5.4,5.4,0,0,0-1.4,1.674l.186.186A32.743,32.743,0,0,1,61,128.037" transform="translate(-3.977 -8.595)" fill="#1a1a1a"/>
      <path id="パス_82" data-name="パス 82" d="M74.479,135.167V133.4H70.2v1.674h4.279" transform="translate(-4.898 -9.307)" fill="#1a1a1a"/>
      <path id="パス_83" data-name="パス 83" d="M75.347,124.335c.558-.372.93-.465,1.116-.744a2.791,2.791,0,0,1,.744-.744c.279-.186.558-.372.558-.558a10.478,10.478,0,0,0-2.884-1.488c-.372,0-.093.093-.186.279a27.905,27.905,0,0,1-1.4,3.349,4.186,4.186,0,0,0,2.047-.093" transform="translate(-5.114 -8.428)" fill="#1a1a1a"/>
      <path id="パス_84" data-name="パス 84" d="M71.451,124.442l.186-.279c0-.558-2.419-2.884-2.7-3.163H68.66c-.093,0-1.86.744-1.86,1.023v.186a17.58,17.58,0,0,1,1.581,1.953c.651.558,2.512.372,2.977.279" transform="translate(-4.66 -8.442)" fill="#1a1a1a"/>
      <path id="パス_85" data-name="パス 85" d="M70.2,136.893v1.674h4.279V136.8H70.2" transform="translate(-4.898 -9.544)" fill="#1a1a1a"/>
      <path id="パス_86" data-name="パス 86" d="M70.247,128.735a8.467,8.467,0,0,0,.093-1.209l-5.767.279c-.372,0-.372-.279-.372-1.209s.093-1.4.279-1.4h.093l4,.279c.93,0,2.7.093,7.349,0L80.2,125.2a.372.372,0,0,1,.279.279v1.209c0,.465,0,1.116-.372,1.116l-6.884-.279q.279.14.279.279a1.17,1.17,0,0,1-.558.651,3.349,3.349,0,0,1-2.791.279" transform="translate(-4.479 -8.735)" fill="#1a1a1a"/>
      <path id="パス_87" data-name="パス 87" d="M70.228,129.772h-.744l-2.419-.186h-.186c-.186,0-.279,0-.279.372a52.4,52.4,0,0,1,.279,5.4c0,2.14-.093,3.814-.279,6.791h0c0,.279.186.279,1.209.279s1.488-.093,1.488-.465v-.651h5.767v.558c0,.186.186.465,1.3.465s1.488,0,1.488-.372v-.279c-.186-3.07-.279-4.651-.279-6.233s.093-3.721.279-5.767h0a.247.247,0,0,0-.279-.279h-.093l-3.442.186H70.321m4.837,9.953H69.2c-.093-1.767-.093-3.442-.093-4.465s.186-3.628.186-3.628h5.767v.93h0c0,1.3-.186,3.907,0,7.163" transform="translate(-4.647 -9.028)" fill="#1a1a1a"/>
      <path id="パス_88" data-name="パス 88" d="M31.063,123.012a1.674,1.674,0,0,1,.558-.558c.372-.279.558-.465.558-.651a11.167,11.167,0,0,0-3.163-1.3c-.465,0-.093.093-.186.372a12.093,12.093,0,0,1-.93,3.442,3.349,3.349,0,0,0,1.767-.186,3.628,3.628,0,0,0,1.4-1.116" transform="translate(-1.947 -8.407)" fill="#1a1a1a"/>
      <path id="パス_89" data-name="パス 89" d="M38.342,139.6c-.093,0-.186.093-.372.279-1.581,1.86-6.512,5.4-14.884,5.581H22.9l.186.186a5.4,5.4,0,0,1,1.86,1.954.279.279,0,0,0,.279.186h.465A28.186,28.186,0,0,0,38.9,142.577a1.861,1.861,0,0,1,1.116-.465c.465-.093.744-.186.744-.465a8.581,8.581,0,0,0-2.419-2.047" transform="translate(-1.598 -9.74)" fill="#1a1a1a"/>
      <path id="パス_90" data-name="パス 90" d="M26.153,143.942h.279a20.837,20.837,0,0,0,9.116-4.744,1.674,1.674,0,0,1,1.023-.465c.372-.093.744-.186.744-.465A6.419,6.419,0,0,0,34.9,136.5q-.14,0-.279.279c-1.3,1.767-4.93,4.465-10.233,5.3H24.2l.186.186a6.791,6.791,0,0,1,1.767,1.4" transform="translate(-1.688 -9.523)" fill="#1a1a1a"/>
      <path id="パス_91" data-name="パス 91" d="M26.256,128.6a.415.415,0,0,1,.279.372c0,.279-.093.093-.372.279a1.4,1.4,0,0,0-.465.558c-.279.465-.465.372-.744.558A4.186,4.186,0,0,1,23,130.74a10.14,10.14,0,0,0,.558-1.767c.465,0-.093.093,2.7-.372" transform="translate(-1.605 -8.972)" fill="#1a1a1a"/>
      <path id="パス_92" data-name="パス 92" d="M26.551,127.863l9.86-1.488L34.086,124.7l-3.163.372-4.372.465h0l-3.256.186H21.9a10.419,10.419,0,0,0,1.3,2.512c.093,0,.279.186,3.349-.372" transform="translate(-1.528 -8.7)" fill="#1a1a1a"/>
      <path id="パス_93" data-name="パス 93" d="M38.556,126.093h.186l1.4,1.4.279.186H40.6a8.929,8.929,0,0,0,1.4-1.4l.186-.279c0-.558-5.3-4-5.674-4s-.372.186-1.209,1.209v.372L38.556,126" transform="translate(-2.463 -8.512)" fill="#1a1a1a"/>
      <path id="パス_94" data-name="パス 94" d="M38.7,129.233a1.3,1.3,0,0,1,.465-.651c.372-.186.465-.372.465-.558A8.783,8.783,0,0,0,36.837,127c-.465,0-.093.093-.093.279A9.023,9.023,0,0,1,36,130.163a3.535,3.535,0,0,0,1.581-.186,1.767,1.767,0,0,0,1.116-.651" transform="translate(-2.512 -8.86)" fill="#1a1a1a"/>
      <path id="パス_95" data-name="パス 95" d="M26.791,132.556l-4.93,1.116-.744.372c-.372,0-1.116-1.953-1.116-2.233s.093-.186.186-.186h2.233l3.07-.372,1.4-.186-.465-.558v-.186c0-.186,1.3-1.023,1.4-1.023h.093l1.116,1.023a10.511,10.511,0,0,1-1.953,2.419" transform="translate(-1.395 -9.021)" fill="#1a1a1a"/>
      <path id="パス_96" data-name="パス 96" d="M42.233,132.242l.651.93.186.186c.093,0,1.581-1.116,1.581-1.4a11.908,11.908,0,0,0-1.488-1.767h0l-1.488-1.4h-.186A4.186,4.186,0,0,0,40,129.823v.186l2.14,2.512" transform="translate(-2.791 -8.986)" fill="#1a1a1a"/>
      <path id="パス_97" data-name="パス 97" d="M38.247,132.647l2.791-.558a11.349,11.349,0,0,0-1.4-1.488l-3.442.372a15.535,15.535,0,0,0,2.047,1.674" transform="translate(-2.526 -9.112)" fill="#1a1a1a"/>
      <path id="パス_98" data-name="パス 98" d="M31.674,131.356a46.883,46.883,0,0,1-7.721,7.442,13.674,13.674,0,0,0,7.349-4.93l.279-.279a8.559,8.559,0,0,1,2.326,1.488c0,.186-.186.279-.465.372a1.488,1.488,0,0,0-.744.465c-4.186,3.907-6.233,4.372-6.512,4.372h-.279a5.209,5.209,0,0,0-1.86-1.116l-.186-.186h0a15.535,15.535,0,0,1-3.07,2.047H20.6a6.047,6.047,0,0,0-2.419-1.4L18,139.17l.279-.186a26.884,26.884,0,0,0,8.837-5.953h.093l2.047-2.233.279-.279.186-.186a6.512,6.512,0,0,0,1.116-2.047.2.2,0,0,1,.186-.186c.093,0,2.884,1.023,2.884,1.581s-.372.372-.651.465l-1.4,1.4" transform="translate(-1.256 -8.937)" fill="#1a1a1a"/>
      <path id="パス_99" data-name="パス 99" d="M33.3,132.188C36.649,136.1,43.44,140.1,44,140.1l.279-.186a8,8,0,0,1,2.512-1.674l.279-.279-.279-.186a32,32,0,0,1-9.116-4.651,26.325,26.325,0,0,1-2.512-2.046l-.372-.372a5.675,5.675,0,0,0-1.488,1.4" transform="translate(-2.323 -9.119)" fill="#1a1a1a"/>
      <path id="パス_100" data-name="パス 100" d="M141.4,134.407a1.3,1.3,0,0,0,.372-.465l.372-.465c.279-.186.558-.372.558-.558l-.279-.279h1.3l5.581.186c.093,0,.186,0,.279-.186a3.614,3.614,0,0,0,0-1.023v-.93c0-.186-.093-.186-.186-.186H149.3c-2.6.186-3.907.186-7.535.186l-5.488-.186h-.093c-.093,0-.186,0-.186.186v1.86c0,.186.186.186.279.186h.093l3.349-.186a6.977,6.977,0,0,1-.558,1.767c.093.186.372.186.651.186a4.838,4.838,0,0,0,1.767-.279" transform="translate(-9.488 -9.105)" fill="#1a1a1a"/>
      <path id="パス_101" data-name="パス 101" d="M147.649,136.979h.186l.279.186h0l1.116,1.023.279.186c.093,0,1.767-1.3,1.767-1.767s-5.4-3.907-5.767-3.907-.186,0-1.209,1.209v.372l1.209.837a23.529,23.529,0,0,1,2.14,1.581" transform="translate(-10.067 -9.258)" fill="#1a1a1a"/>
      <path id="パス_102" data-name="パス 102" d="M149.3,143.019a.2.2,0,0,0,.186-.186,8.465,8.465,0,0,0,.093-1.023,8.934,8.934,0,0,0-.093-1.023c0-.186,0-.186-.186-.186l-4,.186v2.047l4,.186" transform="translate(-10.137 -9.809)" fill="#1a1a1a"/>
      <path id="パス_103" data-name="パス 103" d="M135.786,128.519H146.67a3.811,3.811,0,0,1-.093.558h0c0,.186,0,.279,1.209.279s1.86-.093,1.86-.372V128.8a17.956,17.956,0,0,1-.279-3.256,31.346,31.346,0,0,1,.186-3.163h0c0-.186-.093-.186-.279-.186h-.093c-4.279.186-5.86.186-8.651.186s-4.465,0-8.558-.279h-.186c-.186,0-.186,0-.186.093v.186c.093.558.186,1.3.279,2.14h14.884v1.674H135.786c-.186,0-.093.744-.093,1.116a2.893,2.893,0,0,0,.093,1.023" transform="translate(-9.181 -8.519)" fill="#1a1a1a"/>
      <path id="パス_104" data-name="パス 104" d="M134.251,126.6v2.233h0v.93c0,12.186-4.744,16.372-5.3,16.372l-.372-.186a8.373,8.373,0,0,0-2.7-.744H125.6l.186-.186c4.837-3.535,5.86-10.233,5.86-15.535a25.257,25.257,0,0,0-.093-2.7,2.233,2.233,0,0,1,1.116-.186,6.233,6.233,0,0,1,1.488.186" transform="translate(-8.763 -8.832)" fill="#1a1a1a"/>
      <path id="パス_105" data-name="パス 105" d="M135.7,141.809v.93c0,.186.093.186.279.186l4.093-.186v-1.953l-4-.186c-.279,0-.372,0-.372,1.209" transform="translate(-9.467 -9.809)" fill="#1a1a1a"/>
      <path id="パス_106" data-name="パス 106" d="M140.851,143.521v.279h0v.558c-2.14,0-4.093,0-8.279-.279-.372,0-.372,0-.372,1.3s.093,1.3.372,1.3c3.814-.186,5.674-.279,9.488-.279s5.3,0,9.953.279c.186,0,.186-.093.186-.186a9.02,9.02,0,0,0,0-1.023,9.581,9.581,0,0,0,0-1.023c0-.186,0-.279-.186-.279-4,.279-6.419.279-8.651.279V142.5a8.28,8.28,0,0,1,.186-2.326,1.489,1.489,0,0,1,.465-.651.93.93,0,0,0,.279-.558.372.372,0,0,0-.372-.372l-3.07-.558h-.093l4.372-.558A11.35,11.35,0,0,0,142.8,135.8l-2.326.186h-5.953c0,.558.93,2.7,1.3,2.7s.372-.279.744-.279l4-.465h0v.186a9.024,9.024,0,0,1,.093,1.581c0,.558.093,2.7.093,3.721" transform="translate(-9.223 -9.474)" fill="#1a1a1a"/>
      <path id="パス_107" data-name="パス 107" d="M104.033,131.07a34.047,34.047,0,0,1-11.163,8.279l-.372-.186a12.929,12.929,0,0,0-2.512-1.581L89.8,137.4h.186c5.953-1.767,11.814-6.791,13.4-9.4h.279s2.7,1.023,2.7,1.4-.372.279-.651.372a9.4,9.4,0,0,0-1.767,1.581" transform="translate(-6.265 -8.93)" fill="#1a1a1a"/>
      <path id="パス_108" data-name="パス 108" d="M98.685,137.1c-.093,0-.186.093-.186.279V138.4a8.276,8.276,0,0,0,0,.93.3.3,0,0,0,.279.279l3.814-.279v-1.953l-3.814-.279Z" transform="translate(-6.871 -9.565)" fill="#1a1a1a"/>
      <path id="パス_109" data-name="パス 109" d="M103.567,126.981h-1.86a9.165,9.165,0,0,0,.186,1.581h0c0,.186-.093.279-1.4.279s-1.674,0-1.674-.279h0a8.143,8.143,0,0,0,.186-1.488l-4.837.186c-.279,0-.372,0-.372-1.3s.093-1.3.186-1.3h.093l4.93.186a10.7,10.7,0,0,0-.372-3.163v-.186c0-.093.093-.093.186-.093,2.884.279,3.349.372,3.349.744a1.4,1.4,0,0,1-.372.651c-.186.186-.372.558-.372,2.14h1.953c.186.093.186.93.186,1.116s.093.93-.186,1.116" transform="translate(-6.544 -8.47)" fill="#1a1a1a"/>
      <path id="パス_110" data-name="パス 110" d="M105.885,126.974h2.047c0,.372-.093.744-.093,1.209h0c0,.279.558.279,1.581.279s1.488,0,1.488-.279a6.4,6.4,0,0,0-.186-1.209l4.93.186c.186,0,.279-.186.279-1.116s-.093-1.581-.372-1.581l-5.023.279c0-1.3,0-1.581.372-2.047a1.4,1.4,0,0,0,.372-.651c0-.279-.093-.465-3.349-.744-.186,0-.186.093-.186.093v.186a10.512,10.512,0,0,1,.279,3.256h-2.14c-.186.186-.186.465-.186,1.023a2.7,2.7,0,0,0,.186,1.209" transform="translate(-7.374 -8.463)" fill="#1a1a1a"/>
      <path id="パス_111" data-name="パス 111" d="M99,140.693l-.279.186a11.07,11.07,0,0,1-4.93,4.093l-.186.186.186.186a10.048,10.048,0,0,1,2.233,1.4H96.3l.372-.186a21.3,21.3,0,0,0,3.628-3.442,1.488,1.488,0,0,1,.651-.465c.465-.093.744-.372.744-.558A15.263,15.263,0,0,0,99,140.6" transform="translate(-6.53 -9.809)" fill="#1a1a1a"/>
      <path id="パス_112" data-name="パス 112" d="M106.284,139.774c.093,2.046.186,5.209.465,6.977a.372.372,0,0,1-.279.279h-1.4c-1.488,0-1.674-.093-1.674-.279h0a61.3,61.3,0,0,0,.465-6.884c.093-.651,0-2.7,0-3.535a8.651,8.651,0,0,0-.279-2.046h0c0-.093,0-.186.186-.186,3.163.186,3.349.372,3.349.558a7.443,7.443,0,0,1-.465,1.023,3.907,3.907,0,0,0-.186.837c-.093.651-.093,2.14-.093,3.535" transform="translate(-7.214 -9.356)" fill="#1a1a1a"/>
      <path id="パス_113" data-name="パス 113" d="M110.719,140.986l-.279-.186h-.186a9.024,9.024,0,0,0-1.953,1.023c0,.465,3.907,4.465,4.744,4.465h.186a13.208,13.208,0,0,1,2.6-1.581l.186-.186h-.186a13.488,13.488,0,0,1-5.116-3.349" transform="translate(-7.556 -9.823)" fill="#1a1a1a"/>
      <path id="パス_114" data-name="パス 114" d="M106,132a30.047,30.047,0,0,0,10.233,6.791c.186,0,.279-.093.465-.279a22.145,22.145,0,0,1,2.512-1.674l.186-.186h-.186a27.535,27.535,0,0,1-11.628-6.047,4.28,4.28,0,0,0-.93.837c-.372.372-.651.651-.651.837" transform="translate(-7.395 -9.112)" fill="#1a1a1a"/>
      <path id="パス_115" data-name="パス 115" d="M111.686,139.326a10.147,10.147,0,0,0,.093-1.023c0-1.023-.093-1.3-.279-1.3h0l-4,.279v1.954l4,.279c.093,0,.279-.093.279-.186" transform="translate(-7.5 -9.558)" fill="#1a1a1a"/>
    </g>
  </g>
</svg>
