<svg xmlns="http://www.w3.org/2000/svg" xmlns:xlink="http://www.w3.org/1999/xlink" width="153.3" height="158.97" viewBox="0 0 153.3 158.97">
  <defs>
    <clipPath id="clip-path">
      <rect id="長方形_179" data-name="長方形 179" width="153.3" height="158.97" fill="none"/>
    </clipPath>
  </defs>
  <g id="アートワーク_17" data-name="アートワーク 17" transform="translate(76.65 79.485)">
    <g id="グループ_156" data-name="グループ 156" transform="translate(-76.65 -79.485)" clip-path="url(#clip-path)">
      <path id="パス_1905" data-name="パス 1905" d="M111.1,56.1l-5-.7a81.7,81.7,0,0,1-20.3-8.9l-2.2-1.4c-1.8-1.2-4.1-2.7-5.1-3.2l.7-.4a1.6,1.6,0,0,0,.9-1.4,3.1,3.1,0,0,0-3.2-2.9l-2.8.2h-.3l-.3,2.1.2.2c.4.4.5.5.5.6s-4.9,6-14.1,11c-3.5,2-13.4,5.7-16.4,5.7-1.3,0-1.6.5-1.6,1,0,2.4,3.4,3.3,5.7,3.3s8.2-2.3,16-7.1a44,44,0,0,0,4.9-3.6l2-1.6,2.8-2.2,2.5-2c.8.2,1.7.8,7.6,4.9,10.4,7.4,17.5,11.1,21,11.1,1.6,0,5-.7,5.7-1.9a11,11,0,0,0,1.2-2.4v-.4Z" fill="#1a1a1a"/>
      <path id="パス_1906" data-name="パス 1906" d="M65.1,38.3c-.6,0-1.2.4-1.2.9a1.4,1.4,0,0,0,.2.6V40h0c-.5,1.5-2.8,3.3-4,3.3s-4.8-1.1-4.8-1.8,3.2-2.6,4.1-3S62,37.3,62,36.3s-2.9-2.9-5.3-2.7h-.2v.6a2.6,2.6,0,0,0,.2.6v.4h0a15.5,15.5,0,0,1-3.1,3.7c-3,2.1-3.4,2.3-5.5,2.6s-2.2,2.9-2.2,3.9a1.3,1.3,0,0,0,1.3,1.3,3.141,3.141,0,0,0,1.2-.4,12.527,12.527,0,0,1,2.1-1,12.3,12.3,0,0,1,3.3.6c3.1.9,4.3,1.2,5.3,1.2s2.7-1.2,5.2-2.6h.1l1.8-1c1.1-.2,2.1-.4,2.1-2.2a3.1,3.1,0,0,0-3.1-3.2" fill="#ff1900"/>
      <path id="パス_1907" data-name="パス 1907" d="M88.2,31.3h.1l1.4.4a2.8,2.8,0,0,0,2.1-2.3c0-1-1.3-1.7-1.9-2l-.6-.4c-1.6-1-3.3-2-4-2a2.6,2.6,0,0,0-1.3.4h0a9.8,9.8,0,0,0-.1,2.3V28h-.1c-3.1,2.1-3.8,2.1-8.4,2.1l-3.6-.8h-.3V29c.1-.3.3-.4,1.3-.9l.4-.2c3.3-1.8,3.7-2,5-2.1s.6-.3,1.2-1h.1l.2-.2h0c-1-1.9-3.8-2.6-5.3-2.6a1.8,1.8,0,0,0-1,.3h-.1v.4a1.4,1.4,0,0,1,.1.4c0,.8-2.6,2.8-5,4.2s-2.9,1.6-4.3,1.6a3.9,3.9,0,0,0-3.1,3,2.2,2.2,0,0,0,.8,1.4h0l1.1.3h.3a22.7,22.7,0,0,1,4.3-.5l3.2.3h.6l2.4.6c4.9,0,8.3-.5,10.2-1.6A8,8,0,0,1,87.4,31l.9.2" fill="#ff1900"/>
      <path id="パス_1908" data-name="パス 1908" d="M104.1,37.9H104c-1-1.4-1.3-1.4-3.1-1.6h-.2a1.1,1.1,0,0,0-.4.7h0v.3a1.9,1.9,0,0,1,.2.7c0,.9-2.9,3-4.1,3l-2.5-.7-1.2-.4h-.2c-.8-.2-1.4-.4-1.4-.9s1.7-1.6,2.8-2l1.9-.4h.1l2.1-.4h0v-.3a3.3,3.3,0,0,0,.1-.7c0-1.7-3.3-2.6-4.7-2.6H93a2.3,2.3,0,0,0-.3,1h-.1a31.7,31.7,0,0,1-8,5.8h-.2c-.1,1.7-.1,2.8.4,3.3a1,1,0,0,0,.7.3l1.3-.3h.1l1.3-.3,2.3.7,1,.3c2.4.9,2.7.9,3.8.9a9.9,9.9,0,0,0,7.2-2.6h.1c1.3-.3,2.6-.8,2.6-1.9a1.5,1.5,0,0,0-.1-.7,5.238,5.238,0,0,0-1.2-1.3" fill="#ff1900"/>
      <path id="パス_1909" data-name="パス 1909" d="M117.2,11.6l.5-.4a.319.319,0,0,1,.3.3,1.7,1.7,0,0,1-.2,1,13,13,0,0,1-1.4,2.1h.1a1.9,1.9,0,0,1,.3,1.4q-.1,2-.1,4.5v3.4a2.5,2.5,0,0,1-.3,1.8c-.3.3-.6.3-.8,0a2,2,0,0,1-.3-1.5c0-1.6.1-3.3.1-5.1V15.8a5.9,5.9,0,0,1-1.4,1.1,1.2,1.2,0,0,1-1.2,0,.9.9,0,0,1-.5-.8.7.7,0,0,1,.5-.7,8.3,8.3,0,0,0,2.9-1.9,11.7,11.7,0,0,0,1.6-1.8m7.1,6.5v.5l.5.6c1.5,1.2,2.8,2.3,3.9,3.1l2.5,1.5c.6.2.7.5.3.8a3.9,3.9,0,0,1-1.5.8,1.2,1.2,0,0,1-1.4-.5c-1.3-1.5-2.5-2.9-3.7-4.2a2.7,2.7,0,0,0-1-.6h-.1l-.3.5a10.4,10.4,0,0,1-1.9,2.2,9.4,9.4,0,0,1-1.8,1.4,2.4,2.4,0,0,1-1.5.5,1.2,1.2,0,0,1-.8-.6,1,1,0,0,1-.3-.7c0-.2.2-.3.6-.5a6.8,6.8,0,0,0,2.5-1.3,8.4,8.4,0,0,0,1.9-1.9,4.9,4.9,0,0,0,.9-2.3v-.3l-3.1.4c-.6.2-1.1.1-1.3-.2s-.1-.7.3-1.1a1.4,1.4,0,0,1,1.3-.6l2.9.2a25.351,25.351,0,0,0-.1-2.6,1.4,1.4,0,0,1,.1-.9.7.7,0,0,1,.6-.3.8.8,0,0,1,.6.2,1,1,0,0,1,.2.8v2.8h3.9c.6,0,1,0,1.2.3a.7.7,0,0,1-.1.8c-.2.3-.6.4-1.2.4h-3.9c0,.4-.1.8-.1,1.1m3.7-5.7a.6.6,0,0,1,.3.7l-.5.9-.6.8c-.3.3-.5.5-.7.4s-.2-.3-.1-.6l.4-1.5a1.3,1.3,0,0,1,.4-.8.7.7,0,0,1,.8,0" fill="#1a1a1a"/>
      <path id="パス_1910" data-name="パス 1910" d="M124.9,81.3a1.7,1.7,0,0,1-1.2.1H123v.2a15.379,15.379,0,0,0-.2,1.9,1.5,1.5,0,0,0,.4,1,1.8,1.8,0,0,0,1.1.6l2.2.2a6.4,6.4,0,0,0,2.2-.3l1.7-.8c.5-.3.7-.1.6.5a4.6,4.6,0,0,1-.7,1.8,1.2,1.2,0,0,1-1.5.6,24.6,24.6,0,0,1-4.5-.7,3.9,3.9,0,0,1-2.2-1.1,2.3,2.3,0,0,1-.4-1.4c0-1.2-.1-2.1-.1-2.6h-1.1l-.3.6-1.3,1.5a9.5,9.5,0,0,1-1.6,1.6l-1.8,1.3a2.3,2.3,0,0,1-1.9.2,1.5,1.5,0,0,1-.7-.8c-.1-.3.2-.6.7-.7a10.2,10.2,0,0,0,2.2-.9,6.5,6.5,0,0,0,1.9-1.4l1-1.3h-.3a1.2,1.2,0,0,1-1.1-.2,1.7,1.7,0,0,1-.4-1.2c0-.6,0-1.4,0-2.3V75.5a13.3,13.3,0,0,0,0-1.4,1.2,1.2,0,0,1,.3-1,1.3,1.3,0,0,1,.9-.3h5.7l1.4.3a.9.9,0,0,1,.4.8c0,2.1-.1,4.1-.1,6.1a1.2,1.2,0,0,1-.6,1.2m-.7-3.7v-1H118v1.1h6.1m-.1-2.2a4.4,4.4,0,0,0-.2-1.2h-2.7a9.1,9.1,0,0,0-2.8.2,1.8,1.8,0,0,0-.3,1.1h6M118.5,80h5.4a2.3,2.3,0,0,0,.3-1.1h-6a2.6,2.6,0,0,0,.3,1.3" fill="#1a1a1a"/>
      <path id="パス_1911" data-name="パス 1911" d="M27.2,25.6c-.2.3-.3.4-.5.4s-.4-.2-.6-.7a6.2,6.2,0,0,1-.1-2.1V19.4l-.6.8a7.5,7.5,0,0,1-1.3,1.3,2.6,2.6,0,0,1-1.7.5.6.6,0,0,1-.5-.6c0-.3.3-.6.9-1a9,9,0,0,0,2-1.4A4.6,4.6,0,0,0,26,17.3v-.8h-.2l-2.1.3a.9.9,0,0,1-.9-.3c-.2-.3.1-.6.7-1a2.6,2.6,0,0,1,1.9-.4h.8v-.7a4.5,4.5,0,0,0-.1-1.2H24.3a.458.458,0,0,1-.5-.4c0-.2.1-.3.4-.3l2.3-.4,1.1-.7c.3-.3.6-.2,1,.1a1.1,1.1,0,0,1,.4,1.1.7.7,0,0,1-.8.6h-.6a3,3,0,0,0-.2,1.1c0,.3,0,.6,0,1l1.6.2c.4.1.6.2.7.4s0,.3-.3.5a2.5,2.5,0,0,1-1.4.2h-.6v7.9a2.8,2.8,0,0,1-.2,1.3m2.4-6.6a1.1,1.1,0,0,1,.1,1.1.7.7,0,0,1-.9.3,1.2,1.2,0,0,1-.8-1l-.3-.8c-.1-.1-.1-.3.1-.3l.9.2a1.8,1.8,0,0,1,.9.5m.8-4.6a1,1,0,0,1,.8-.3.7.7,0,0,1,.6.6l.4,1.1a4.2,4.2,0,0,1,.3,1,.2.2,0,0,1-.2.2l-.4-.3-1.6-1.4a.6.6,0,0,1,0-.8m7.3-3.2a1.4,1.4,0,0,1,.5.6,1.3,1.3,0,0,1,.2.8c0,.2-.3.4-.8.4l-4.9.4H30.8c-.4-.1-.5-.2-.5-.4s.2-.2.6-.2l2.7-.4,2.4-.5.8-.3a2.707,2.707,0,0,1,.8-.3m-6.9,6.8a.6.6,0,0,1,.8.1,2,2,0,0,1,.3,1.4c0,.7-.1,1.5-.1,2.4v1.8a2.5,2.5,0,0,1-.3,1.8.5.5,0,0,1-.8,0,2,2,0,0,1-.3-1.5V19.2a1.4,1.4,0,0,1,.4-1.3m2.7-.1.9-.2h3.9c.6,0,1,.1,1.1.3a1.6,1.6,0,0,1,.2,1v4.9a1.6,1.6,0,0,1-.4,1.4,1.8,1.8,0,0,1-1.2.3H34.5a1.1,1.1,0,0,1-1-.4,2.4,2.4,0,0,1-.3-1.3V18.4a.8.8,0,0,1,.4-.7m1.2-3.9a.9.9,0,0,1,.9.2.8.8,0,0,1,.1.8,3.7,3.7,0,0,0-.2.9,2.2,2.2,0,0,1-.3.8h-.2a.9.9,0,0,1-.2-.5l-.5-1.7a.46.46,0,0,1,.5-.6m3.7,6.7V20a4,4,0,0,0-.2-1.4,4.9,4.9,0,0,0-1.9-.2H34.4a5.5,5.5,0,0,0-.1,1.8h4.1m-4.1,1.3a6.7,6.7,0,0,0,.2,2.2,4.2,4.2,0,0,0,1.8.2,4.3,4.3,0,0,0,1.9-.2,2.5,2.5,0,0,0,.2-1.4v-.8H34.3Zm4.5-8.2a.6.6,0,0,1,.7.3.9.9,0,0,1,.1.7c0,.2-.3.4-.6.7l-1.1.9h-.4c-.1,0-.1-.1-.1-.2v-.4a9.3,9.3,0,0,1,.5-1.6.9.9,0,0,1,.7-.5" fill="#1a1a1a"/>
      <path id="パス_1912" data-name="パス 1912" d="M27.1,78l.5-.3c.2,0,.2.1.2.4a1.6,1.6,0,0,1-.4.9l-.8.8h.1a1.9,1.9,0,0,1,.3,1.4c0,.8-.1,1.7-.1,2.6v2a2.6,2.6,0,0,1-.3,1.8c-.3.3-.6.3-.8,0a2,2,0,0,1-.3-1.5V80.7l-.4.3-1.8.9a1.2,1.2,0,0,1-1.1-.2.9.9,0,0,1-.3-.9.6.6,0,0,1,.7-.5,8.3,8.3,0,0,0,2.8-1L27.1,78m8.1-4v.2h3.3c.5,0,.8.1.8.3s-.1.4-.5.8a2.9,2.9,0,0,1-1.1.8,2.1,2.1,0,0,1-1.3-.1l-1.7-.5a2.3,2.3,0,0,1-.1.4,1.6,1.6,0,0,1-.5.9c-.2.1-.4.1-.5-.1a1.9,1.9,0,0,1-.1-.9c0-.2,0-.3,0-.5l-2.2-.2-2.5.3v.7a1,1,0,0,1-.2.7.3.3,0,0,1-.5,0,1.2,1.2,0,0,1-.4-.7v-.6l-2.1.6c-.8.3-1.3.4-1.6.2a.7.7,0,0,1-.4-.6,1.3,1.3,0,0,1,.6-.9,2,2,0,0,1,1.3-.6h1.8l-.2-.5a.585.585,0,0,1,.3-.7.8.8,0,0,1,1-.1,1.035,1.035,0,0,1,.5.7,4.2,4.2,0,0,0,0,.5h4.8v-.4A.7.7,0,0,1,34,73a.9.9,0,0,1,1,.2.6.6,0,0,1,.2.8m5,5.4a3.5,3.5,0,0,1-.7.9.9.9,0,0,1-1.1.1l-1.2-.5a3.8,3.8,0,0,1,0,.4,6.4,6.4,0,0,0-.1.8c0,.3,0,1.2,0,2.6a8.2,8.2,0,0,1-.3,3,2.6,2.6,0,0,1-1.5,1.1,4.3,4.3,0,0,1-2.2,0,2.2,2.2,0,0,1-1.2-.6c-.2-.2-.3-.4-.2-.5s.5-.1,1.1,0a3,3,0,0,0,1.5-.2,2,2,0,0,0,1.2-.9,5.2,5.2,0,0,0,.3-2.2c-.1-1.2-.1-2.1-.2-2.6a7.3,7.3,0,0,1-.1-1.3H32.1l-1.9.3-1,.4a1.028,1.028,0,0,1-1.2-.1c-.3-.3-.2-.7.2-1.2a.9.9,0,0,1,.8-.4h6.2l4.9.5c.3,0,.4.2.2.6M28.7,82.3a1.8,1.8,0,0,1,.2-1.1.8.8,0,0,1,.6-.2h2.9a2.6,2.6,0,0,1,1.3.2.6.6,0,0,1,.3.8,3.2,3.2,0,0,0-.1.8V83a2.8,2.8,0,0,1-.2.9,1.4,1.4,0,0,1-.6.7,1.6,1.6,0,0,1-1,.1H30.2a1.3,1.3,0,0,1-1,0,2.233,2.233,0,0,1-.4-1.5,3.139,3.139,0,0,0-.1-.9m3.6,1.1c.1,0,.1-.3.1-.6a1.1,1.1,0,0,0-.1-.6H30.2a1.3,1.3,0,0,0-.1.6,1.6,1.6,0,0,0,.1.6h2.1" fill="#1a1a1a"/>
      <path id="パス_1913" data-name="パス 1913" d="M120.9,47.3h1.8l1.3.2c.3,0,.5.1.5.2s-.4.8-.8.8h-.2l-.8-.3L122,48h-2.9l-.8.2-.8.2h-.3l-.7.3H116a.6.6,0,0,1-.1-.3,1,1,0,0,1,.8-.9h.6l2.1-.3h.3a.9.9,0,0,0-.1-.4c-.1-.1-.2-.2-.2-.3s.1-.3.4-.5l.4-.2c.3,0,.4.2.4.6v.8h.5Zm-4.6,5.4a3.6,3.6,0,0,0,1.4-.7.6.6,0,0,0,.2-.4l.4-.2a.5.5,0,0,1,.5.5c0,.1,0,.1-.3.5l-.5.6-.7.6H117c-.1,0-1-.2-1-.7s.1-.2.3-.3m4.1-1.5v2.3a.6.6,0,0,1-.4.6.8.8,0,0,1-.6-.8,1.3,1.3,0,0,1,.1-.5,2.1,2.1,0,0,0,.1-.6v-1h-1.2l-.2-.2-.2-.8-.2-.4v-.2a.8.8,0,0,1,.6-.7,6.8,6.8,0,0,1,1.9-.2,6.3,6.3,0,0,1,1.9.2.713.713,0,0,1,.3.6l-.2.5a8.5,8.5,0,0,1-.5,1.1h-1.2Zm-.7-.8H121v-.7h-2.4v.8Zm1.7,2c-.3-.3-.4-.4-.4-.5a.932.932,0,0,1,.7-.4c.3,0,.3.1.3.2v.2c0,.2,1.1.6,1.2.6l.8.4a1.3,1.3,0,0,1-.9.8l-.5-.2-.7-.5Z" fill="#1a1a1a"/>
      <path id="パス_1914" data-name="パス 1914" d="M31.3,49.3H29.6a.4.4,0,0,1-.4-.4.9.9,0,0,1,.7-.8h1.6v-.6H30.3a.3.3,0,0,1-.3-.3.7.7,0,0,1,.6-.7h1l-.2-.2v-.2c0-.3.4-.5.7-.5a.4.4,0,0,1,.4.3v.6h.1c.6,0,.6,0,.7-.2v-.2h.2c.1,0,.5.3.5.5h0l-.2.3-.5.9V48h.1c.8,0,1,0,1,.2a.5.5,0,0,1-.3.5H32.5c-.1,0-.4.3-.7.7h1.4c.2,0,.8.3.8.8v.2a.5.5,0,0,0-.2.4v.9a3.8,3.8,0,0,1-.2,1l-.3.2H31.7l-.2.4h-.1a.5.5,0,0,1-.4-.5v-.5c0-.1,0-1.3-.2-1.3l-.5.3-.5.3a1.2,1.2,0,0,1-.8-.9c0-.1.2-.2.5-.2a3.5,3.5,0,0,0,1.9-1.2Zm.4,2H33a2.8,2.8,0,0,0,0-.4H31.8c-.1,0-.1.1-.1.2Zm.2.6h-.3v.4h1.3v-.5H32Zm.4-3.4.4-.6h-.4a1.4,1.4,0,0,0-.2.6h.2m2.8,3.9v.9s-.1.6-.4.6-.6-.5-.6-1a5.5,5.5,0,0,1,.1-.6,27.151,27.151,0,0,0,.1-2.9c0-.4-.1-1.7-.1-1.8a1.2,1.2,0,0,1-.1-.5c0-.4.3-.5.9-.5h1.7a.8.8,0,0,1,.6.7.2.2,0,0,1-.1.2l-.2.2-.4.6-.5.6.4.2a5.5,5.5,0,0,1,.9,1.1,4.8,4.8,0,0,1,.4,1.4A1.5,1.5,0,0,1,36.2,53l-.6-.2-.4-.4Zm0-.5a1.4,1.4,0,0,0,.9.2c.5,0,.8-.1.8-.5a3.3,3.3,0,0,0-1-2.1l-.7.6v1.4h0Zm0-3.4v.9l.6-.8a3.1,3.1,0,0,0,.4-.9h-1Z" fill="#1a1a1a"/>
      <path id="パス_1915" data-name="パス 1915" d="M132.3,51.4,76.7,86.9l-7.9-5.1c-.1-.5,0-.8.7-1.2a35.9,35.9,0,0,0,5.1-1.2,43.8,43.8,0,0,0,4.4-2,43,43,0,0,0,5.7-4.2A20.6,20.6,0,0,0,89,68c.7-1.1.8-1.3,1.7-1.7a1,1,0,0,0,.5-.8c.1-1.3-1.6-4-2.3-4.6a4.3,4.3,0,0,0-3.8-.8,56.3,56.3,0,0,0-5.9,1.6,43.7,43.7,0,0,1-7.7,1.7H70.2c-1.8,0-2.6-.3-2.8-.7s1-1,1.5-1.3l.3-.2,2-1.3.9-.5,3.4-2.1,2-1.3c2.1-1.4,2.5-1.6,3.6-1.9h.4v-.7a3.3,3.3,0,0,0-1.2-2.3,10.9,10.9,0,0,0-3.5-1c-.7,0-1.4.5-1.4,1.1a1.9,1.9,0,0,0,.2.8h0c-1.9,1.3-3.9,2.7-6.3,4.1a48.9,48.9,0,0,0-6.1,4.2l-1.3,1a4,4,0,0,0-1.3,4.3c.5.9,3.2,1.5,3.6,1.6a25.7,25.7,0,0,0,3.9.3,32.1,32.1,0,0,0,4.6-.3A62.2,62.2,0,0,0,80,65.4a25.6,25.6,0,0,1,4.6-1h0a10.6,10.6,0,0,1-2.7,3.9l-.2.2A20.8,20.8,0,0,1,75.5,73a29.3,29.3,0,0,1-5.2,2.2,26.6,26.6,0,0,1-5.8.7,22,22,0,0,1-6.7-1.1L21,51.4H8.5L76.7,91.2l68.2-39.8Z" fill="#1a1a1a"/>
      <path id="パス_1916" data-name="パス 1916" d="M21,48.3,76.7,12.8l55.6,35.5h12.5L76.7,8.5,8.5,48.3Z" fill="#1a1a1a"/>
      <path id="パス_1917" data-name="パス 1917" d="M56.5,125.3h0c.8,2.7,3.9,3.2,7.8,3.2a59.7,59.7,0,0,0,10.1-1.3h.3v.2a12.2,12.2,0,0,0-1.3,2.7.5.5,0,0,1-.4.3,84.5,84.5,0,0,1-8.9.6c-4.7,0-7.6-1.4-8.7-3.4l-3.9,2.6c-.3.2-.5.6-.7.6a7.3,7.3,0,0,1-2.1-2.5c0-.1.1-.1.3-.2a32.2,32.2,0,0,0,4.2-1.9l3-1.3a.3.3,0,0,1,.3.3" fill="#1a1a1a"/>
      <path id="パス_1918" data-name="パス 1918" d="M54,125c.1-1.3.1-2,.1-2.9v-1.3a26.2,26.2,0,0,0-3.8.3h-.1c-.1,0-.3-.1-.3-.2s-.1-.8-.1-1.3v-.9c0-.2.1-.3.2-.3h.1l3.3.2,3.1-.2h.1a.3.3,0,0,1,.3.3h0c-.4,3-.5,2.5-.7,4.8,0,.4-.2.6-2.2,1.4" fill="#1a1a1a"/>
      <path id="パス_1919" data-name="パス 1919" d="M55,114l.3.2h.2c.3-.3,1.5-1.6,1.5-2s-3.1-2.1-4.3-2.6h-.2a5.1,5.1,0,0,0-1.3,1.6l.2.2A30.8,30.8,0,0,1,55,114" fill="#1a1a1a"/>
      <path id="パス_1920" data-name="パス 1920" d="M66.8,120v-1.6h-4V120h4" fill="#1a1a1a"/>
      <path id="パス_1921" data-name="パス 1921" d="M67.5,110.6c.5-.4.9-.5,1.1-.7a2.6,2.6,0,0,1,.7-.7c.3-.2.5-.3.5-.5a9.81,9.81,0,0,0-2.7-1.4c-.3,0-.1.1-.2.3a26.4,26.4,0,0,1-1.4,3.2,4,4,0,0,0,1.9-.1" fill="#1a1a1a"/>
      <path id="パス_1922" data-name="パス 1922" d="M64.2,110.7v-.2c0-.5-2.3-2.7-2.6-3h-.2c-.1,0-1.8.7-1.8,1v.2a16.8,16.8,0,0,1,1.5,1.8,4.7,4.7,0,0,0,2.8.3" fill="#1a1a1a"/>
      <path id="パス_1923" data-name="パス 1923" d="M62.8,121.4V123h4v-1.6h-4" fill="#1a1a1a"/>
      <path id="パス_1924" data-name="パス 1924" d="M63.2,114.5a8.1,8.1,0,0,0,.1-1.1l-5.4.3c-.3,0-.4-.2-.4-1.1s.1-1.3.3-1.3h.1l3.8.3c.9,0,2.5.1,7,0l4-.3a.3.3,0,0,1,.3.3v1.2c0,.5,0,1-.3,1l-6.5-.3q.3.15.3.3a1.134,1.134,0,0,1-.6.6,3.2,3.2,0,0,1-2.6.2" fill="#1a1a1a"/>
      <path id="パス_1925" data-name="パス 1925" d="M63,115.2H59.9c-.2,0-.2,0-.2.3.1,2,.2,3.1.2,5.1s-.1,3.6-.3,6.4h0c0,.2.2.3,1.1.3s1.4-.1,1.4-.4v-.6h5.5v.5c0,.2.2.4,1.2.4s1.4,0,1.4-.3v-.2c-.2-2.9-.3-4.4-.3-5.9s.1-3.5.2-5.4h0c0-.2-.1-.2-.3-.2H63m4.6,9.4H62.1c-.1-1.7-.1-3.2-.1-4.3s.2-3.4.2-3.4h5.5v.8h0c0,1.2-.2,3.7,0,6.8" fill="#1a1a1a"/>
      <path id="パス_1926" data-name="パス 1926" d="M28.6,109.4l.5-.5q.6-.45.6-.6a14.375,14.375,0,0,0-3-1.2c-.4,0-.1.1-.2.3a11.4,11.4,0,0,1-.9,3.3,3.2,3.2,0,0,0,1.6-.2,3.4,3.4,0,0,0,1.3-1.1" fill="#1a1a1a"/>
      <path id="パス_1927" data-name="パス 1927" d="M35.8,123.8l-.3.3c-1.5,1.7-6.2,5.1-14.1,5.2h-.2v.2a5.1,5.1,0,0,1,1.7,1.8l.3.2h.5a26.6,26.6,0,0,0,12.5-5,1.8,1.8,0,0,1,1-.5c.4-.1.7-.2.7-.4a6.9,6.9,0,0,0-2.3-1.9" fill="#1a1a1a"/>
      <path id="パス_1928" data-name="パス 1928" d="M24.1,128.1h.3a19.7,19.7,0,0,0,8.6-4.4,1.6,1.6,0,0,1,.9-.4c.4-.1.7-.2.7-.4a6,6,0,0,0-2.3-1.7l-.3.3c-1.2,1.6-4.7,4.2-9.6,5h-.1v.2a6.4,6.4,0,0,1,1.7,1.4" fill="#1a1a1a"/>
      <path id="パス_1929" data-name="パス 1929" d="M24.3,114.2s.3.1.2.3,0,.1-.3.3a1.3,1.3,0,0,0-.5.6c-.2.5-.4.4-.7.5a4,4,0,0,1-1.9.3,9.4,9.4,0,0,0,.6-1.7c.4,0-.1.1,2.6-.3" fill="#1a1a1a"/>
      <path id="パス_1930" data-name="パス 1930" d="M24.7,113.7l9.3-1.4-2.1-1.6-3,.4-4.2.4H20.2a9.8,9.8,0,0,0,1.3,2.4c.1,0,.3.2,3.2-.4" fill="#1a1a1a"/>
      <path id="パス_1931" data-name="パス 1931" d="M35.2,112.2h.1l1.4,1.3.3.2h.2a8.4,8.4,0,0,0,1.3-1.3v-.3c0-.5-5-3.8-5.4-3.8s-.3.2-1.2,1.1v.4l3.1,2.3" fill="#1a1a1a"/>
      <path id="パス_1932" data-name="パス 1932" d="M35.3,114.8a1.3,1.3,0,0,1,.5-.6c.3-.2.5-.4.5-.5a10.873,10.873,0,0,0-2.6-1c-.4,0-.1.1-.1.2a8.5,8.5,0,0,1-.7,2.7,3.3,3.3,0,0,0,1.5-.2,1.7,1.7,0,0,0,1-.7" fill="#1a1a1a"/>
      <path id="パス_1933" data-name="パス 1933" d="M25,117.8l-4.7,1.1-.7.3c-.4,0-1.1-1.8-1.1-2.1s.1-.1.2-.1h2.1l2.9-.4,1.3-.2-.5-.5v-.2c0-.2,1.3-.9,1.3-1h.1l1,1a9.9,9.9,0,0,1-1.9,2.2" fill="#1a1a1a"/>
      <path id="パス_1934" data-name="パス 1934" d="M38.3,117.5l.6.9h.2c.1,0,1.5-1,1.5-1.4a11.3,11.3,0,0,0-1.4-1.7h0l-1.4-1.4h-.2a4,4,0,0,0-1.4,1v.2l2,2.3" fill="#1a1a1a"/>
      <path id="パス_1935" data-name="パス 1935" d="M34.8,117.9l2.6-.6-1.3-1.4-3.3.3a15.1,15.1,0,0,0,1.9,1.6" fill="#1a1a1a"/>
      <path id="パス_1936" data-name="パス 1936" d="M29.8,116.8a44.3,44.3,0,0,1-7.3,7,13,13,0,0,0,6.9-4.6l.2-.2a8.1,8.1,0,0,1,2.2,1.4c0,.1-.2.2-.5.3a1.4,1.4,0,0,0-.7.4c-4,3.7-5.9,4.1-6.1,4.1h-.2a4.9,4.9,0,0,0-1.8-1.1h-.2a14.7,14.7,0,0,1-2.9,1.9h-.2a5.7,5.7,0,0,0-2.3-1.4l-.3-.2.3-.2a25.5,25.5,0,0,0,8.3-5.6h.1l1.9-2.1.2-.3V116a6.2,6.2,0,0,0,1.1-1.9.215.215,0,0,1,.2-.2c.1,0,2.7.9,2.7,1.5s-.3.4-.6.5l-1.4,1.3" fill="#1a1a1a"/>
      <path id="パス_1937" data-name="パス 1937" d="M30.3,117.3c3.2,3.7,9.6,7.5,10.1,7.5l.3-.2a7.6,7.6,0,0,1,2.4-1.6l.3-.2H43a30.3,30.3,0,0,1-8.6-4.4,24.8,24.8,0,0,1-2.4-1.9l-.4-.4a5.4,5.4,0,0,0-1.4,1.3" fill="#1a1a1a"/>
      <path id="パス_1938" data-name="パス 1938" d="M125.7,119.5a1.2,1.2,0,0,0,.3-.4l.3-.4c.3-.2.6-.4.6-.5l-.3-.3h1.2l5.2.2c.1,0,.2,0,.2-.2v-1.8c0-.2-.1-.2-.2-.2h-.1l-7.1.2-5.2-.2h-.1c-.1,0-.2,0-.2.2v1.8c0,.2.1.2.2.2h.1l3.1-.2a6.6,6.6,0,0,1-.5,1.7c.1.2.3.1.6.1a4.6,4.6,0,0,0,1.7-.2" fill="#1a1a1a"/>
      <path id="パス_1939" data-name="パス 1939" d="M131.1,121.8h.1l.3.2h0l1,1,.2.2c.1,0,1.6-1.2,1.6-1.7s-5.1-3.7-5.4-3.7-.2,0-1.1,1.2v.3l1.2.8a22.3,22.3,0,0,1,2,1.5" fill="#1a1a1a"/>
      <path id="パス_1940" data-name="パス 1940" d="M132.6,127a.215.215,0,0,0,.2-.2,7.6,7.6,0,0,0,0-.9,8.1,8.1,0,0,0,0-.9c0-.1,0-.2-.2-.2l-3.8.2v1.9l3.8.2" fill="#1a1a1a"/>
      <path id="パス_1941" data-name="パス 1941" d="M120.8,114.5h10.3a3.4,3.4,0,0,1-.1.5h0c0,.2,0,.3,1.1.3s1.7-.1,1.7-.3v-.2a16.9,16.9,0,0,1-.2-3.1,29.2,29.2,0,0,1,.2-3h0c0-.2-.1-.2-.2-.2h-.1c-4.1.2-5.5.2-8.2.2s-4.2,0-8.1-.3H117c-.1,0-.2,0-.2.1v.2a10.315,10.315,0,0,1,.2,2h14.1v1.6H120.8c-.2,0-.1.7-.1,1.1a2.509,2.509,0,0,0,.1,1" fill="#1a1a1a"/>
      <path id="パス_1942" data-name="パス 1942" d="M119.7,112.4v2.1h0v.9c0,11.5-4.4,15.4-5,15.4h-.4a8,8,0,0,0-2.6-.7h-.2l.2-.2c4.6-3.4,5.6-9.7,5.6-14.7a20.083,20.083,0,0,0-.1-2.5l1.1-.2,1.4.2" fill="#1a1a1a"/>
      <path id="パス_1943" data-name="パス 1943" d="M120.4,125.8v.9c0,.2.1.2.3.2l3.8-.2v-1.8l-3.8-.2c-.3,0-.3,0-.3,1.1" fill="#1a1a1a"/>
      <path id="パス_1944" data-name="パス 1944" d="M125.5,127.8v.3h0v.6c-2.1,0-3.9,0-7.8-.2-.3,0-.3,0-.3,1.2s.1,1.2.3,1.2c3.6-.2,5.4-.2,8.9-.2s5,0,9.4.2a.215.215,0,0,0,.2-.2,8.2,8.2,0,0,0,0-1,8.7,8.7,0,0,0,0-1c0-.2,0-.2-.2-.2-3.8.2-6,.2-8.2.2v-1.8a7.8,7.8,0,0,1,.2-2.2,1.4,1.4,0,0,1,.4-.6.9.9,0,0,0,.3-.6.4.4,0,0,0-.3-.3l-2.9-.6h-.1l4.1-.5a10.7,10.7,0,0,0-2.2-1.6l-2.2.2h-5.7a5.6,5.6,0,0,0,1.2,2.5l.7-.3,3.8-.4h0a7.569,7.569,0,0,1,.1,1.5c0,.5.1,2.5.1,3.5" fill="#1a1a1a"/>
      <path id="パス_1945" data-name="パス 1945" d="M93.5,116.5a32.3,32.3,0,0,1-10.6,7.8l-.3-.2a12.3,12.3,0,0,0-2.4-1.5l-.2-.2h.2c5.7-1.6,11.2-6.4,12.7-8.9h.3s2.6,1,2.6,1.3-.3.3-.6.4a8.9,8.9,0,0,0-1.6,1.5" fill="#1a1a1a"/>
      <path id="パス_1946" data-name="パス 1946" d="M87.9,121.6c-.1,0-.2.1-.2.3v1a7.9,7.9,0,0,0,0,.9c0,.2.2.2.3.2l3.6-.2v-1.9l-3.6-.3Z" fill="#1a1a1a"/>
      <path id="パス_1947" data-name="パス 1947" d="M92.8,113.1H91a7.719,7.719,0,0,0,.2,1.5h0c0,.2-.1.3-1.3.3s-1.6,0-1.6-.3h0c.1-.5.1-.9.2-1.4l-4.6.2c-.2,0-.3,0-.3-1.3s.1-1.3.2-1.3h.1l4.7.2a10.1,10.1,0,0,0-.3-3h.2c2.7.3,3.2.3,3.2.7a1.4,1.4,0,0,1-.3.6c-.2.2-.3.5-.3,2h1.8a5.05,5.05,0,0,1,0,2" fill="#1a1a1a"/>
      <path id="パス_1948" data-name="パス 1948" d="M94.2,113.1h2c0,.4-.1.7-.1,1.2h0c0,.3.5.3,1.5.3s1.4,0,1.4-.3-.1-.8-.1-1.2l4.7.2c.2,0,.3-.2.3-1.1s-.1-1.5-.3-1.5l-4.7.2c0-1.2,0-1.5.3-2a1.3,1.3,0,0,0,.3-.6c0-.3-.1-.4-3.2-.7-.2,0-.2.1-.2.1h0a9.9,9.9,0,0,1,.3,3h-2a1.974,1.974,0,0,0-.1.9,2.5,2.5,0,0,0,.1,1.1" fill="#1a1a1a"/>
      <path id="パス_1949" data-name="パス 1949" d="M88.4,124.8l-.2.2a10.5,10.5,0,0,1-4.7,3.9h0a9.5,9.5,0,0,1,2.1,1.4h.6a20.2,20.2,0,0,0,3.4-3.2,1.4,1.4,0,0,1,.6-.4c.5-.1.7-.3.7-.5a15.706,15.706,0,0,0-2.5-1.4" fill="#1a1a1a"/>
      <path id="パス_1950" data-name="パス 1950" d="M94.7,124.3c0,1.9.2,5,.4,6.6a.3.3,0,0,1-.2.3H93.5c-1.4,0-1.5-.1-1.5-.3h0a58.2,58.2,0,0,0,.4-6.5c.1-.6,0-2.6,0-3.4a8.2,8.2,0,0,0-.3-2h0c0-.1,0-.2.2-.2,3,.1,3.1.4,3.1.5s-.3.5-.4.9a3.7,3.7,0,0,0-.2.8,31.265,31.265,0,0,0-.1,3.4" fill="#1a1a1a"/>
      <path id="パス_1951" data-name="パス 1951" d="M98.6,125.1l-.2-.2h-.2a8.5,8.5,0,0,0-1.8.9c0,.5,3.7,4.3,4.5,4.3h.2a12.5,12.5,0,0,1,2.4-1.5l.2-.2h-.2a12.8,12.8,0,0,1-4.9-3.2" fill="#1a1a1a"/>
      <path id="パス_1952" data-name="パス 1952" d="M94.2,117.3a28.4,28.4,0,0,0,9.6,6.4l.5-.3a20.9,20.9,0,0,1,2.4-1.6l.2-.2h-.2a26,26,0,0,1-11-5.8l-.8.8c-.3.3-.6.6-.6.8" fill="#1a1a1a"/>
      <path id="パス_1953" data-name="パス 1953" d="M99.6,123.8a9.7,9.7,0,0,0,.1-1c0-1-.1-1.2-.3-1.2h0l-3.8.3v1.9l3.8.2a.215.215,0,0,0,.2-.2" fill="#1a1a1a"/>
      <path id="パス_1954" data-name="パス 1954" d="M19.9,148.4l.3.5a2.1,2.1,0,0,0,1,.2,1.8,1.8,0,0,0,1.9-1.7c0-1.6-3.2-2.1-3.2-4.2a2.4,2.4,0,0,1,2.3-2.5h1.2l.3-.5h.1v2.2h-.1l-.3-.5c-.7-.6-2.4-.2-2.4,1s3.5,2.1,3.3,4.9-2.9,2.3-4.1,2.3l-.3.4h-.1v-2Z"/>
      <path id="パス_1955" data-name="パス 1955" d="M36,150.1H34.1l.4-.5-.6-2.3H31.6l-.6,2.3.4.5H29.5l.4-.5,2.4-8.8h.9l2.3,8.8Zm-2.3-3.7-.9-3.3-1,3.3Z"/>
      <path id="パス_1956" data-name="パス 1956" d="M45.6,140.7h1.9v.2l-.4.4v8.1l.4.5H46.2L43,143.1v6.3l.4.5h-2l.4-.5v-7.9l-.4-.9h1.4l3.3,6.9v-6.3l-.4-.4Z"/>
      <path id="パス_1957" data-name="パス 1957" d="M59.1,145.6c0,2.3-1.2,4.5-3.8,4.5H53.2l.4-.7v-7.9l-.4-.7H55c2.7,0,4.1,2.5,4.1,4.9m-1.2-.5c-.1-1.9-1.1-3.8-2.8-3.8h-.4v7.5c0,.4.1.5.6.5s2.8-2.2,2.7-4.3"/>
      <path id="パス_1958" data-name="パス 1958" d="M67.9,150.1c-2.1-.2-3.2-2.1-3.2-4.6s1.6-4.8,3.6-4.8,3.2,1.9,3.2,4.4-1.4,5-3.5,5Zm.2-.7c1.4,0,2-2.1,2-4s-.6-4.1-2-4.1-2.2,2.1-2.2,4,.7,4.1,2.1,4.1Z"/>
      <path id="パス_1959" data-name="パス 1959" d="M90.3,142.4l-.3-.6a2.5,2.5,0,0,0-1.4-.4c-1.4,0-2.6,1.9-2.6,4.2s1,3.8,2.4,3.8A4.3,4.3,0,0,0,90,149l.2-.6h.2v1.8h-.2l-.3-.5a5.1,5.1,0,0,1-2,.4c-1.8,0-3.2-1.6-3.3-4.2s1.6-5.2,3.9-5.2l1.4.2.3-.5h.2v2Z"/>
      <path id="パス_1960" data-name="パス 1960" d="M96,140.7h1.9v.1l-.4.5v3.5h2.9v-3.5l-.4-.5v-.1h1.9v.1l-.4.5v8.3l.4.5H100l.4-.5v-3.9H97.5v3.9l.4.5H96l.4-.5v-8.3l-.4-.5Z"/>
      <path id="パス_1961" data-name="パス 1961" d="M113.5,150.1h-1.9l.4-.5-.6-2.3h-2.3l-.6,2.3.4.5H107l.4-.5,2.4-8.8h.9l2.3,8.8Zm-2.3-3.7-.9-3.3-1,3.3Z"/>
      <path id="パス_1962" data-name="パス 1962" d="M124.7,140.8l-.8.5-2.4,4.2v4.1l.4.5H120l.4-.5v-4.1l-2.3-4.2-.8-.5h2.4l-.4.5,1.7,3.2,1.8-3.2-.5-.5h2.4Z"/>
      <path id="パス_1963" data-name="パス 1963" d="M134.9,150.1H133l.4-.5-.6-2.3h-2.3l-.6,2.3.4.5h-1.9l.4-.5,2.4-8.8h.9l2.3,8.8Zm-2.3-3.7-.9-3.3-1,3.3Z"/>
    </g>
  </g>
</svg>
