<svg xmlns="http://www.w3.org/2000/svg" xmlns:xlink="http://www.w3.org/1999/xlink" width="71.538" height="232.798" viewBox="0 0 71.538 232.798">
  <defs>
    <clipPath id="clip-path">
      <rect id="長方形_129" data-name="長方形 129" width="71.538" height="232.798" fill="none"/>
    </clipPath>
  </defs>
  <g id="アートワーク_8" data-name="アートワーク 8" transform="translate(35.769 116.399)">
    <g id="グループ_117" data-name="グループ 117" transform="translate(-35.769 -116.399)" clip-path="url(#clip-path)">
      <path id="パス_1156" data-name="パス 1156" d="M55.643,23.235c0,.32-.534.534-.961.534s-.641-.214-.641-.427V22.274H47.208v1.068c0,.107,0,.534-.961.534s-.641-.107-.641-.427h0V22.7c.107-1.175.107-2.669.107-3.844V11.383A23.063,23.063,0,0,0,45.5,8.5l1.815.747h6.406l.854-.747c.214,0,1.495.854,1.495,1.175s-.214.32-.641.427,0,.961,0,1.815v6.727s.107,4.271.107,4.484ZM54.149,9.781h-6.94V15.12h6.94Zm0,5.873h-6.94V21.74h6.94V15.654Z" transform="translate(3.082 0.576)" fill="#1a1a1a"/>
      <path id="パス_1157" data-name="パス 1157" d="M51.5,43.259c0,1.068,0,2.669.107,3.63s0,.427,0,.641-.107.534-.961.534S50,47.957,50,47.636h0v-.747c0-.961.107-2.349.107-3.524H46.691a1.388,1.388,0,0,1-.32-.747l3.417.214H50V37.706a17.831,17.831,0,0,1-7.688,7.047.214.214,0,0,1-.214-.214h.107A20.287,20.287,0,0,0,49.361,36.1H47.973l-4.8.214a2.135,2.135,0,0,1-.427-.854l5.659.214h1.708V34.29a16.337,16.337,0,0,0-.214-2.99c1.388.107,2.242.107,2.242.534s-.214.427-.747.534,0,1.495,0,3.1h4.591c.854-1.175,1.068-1.495,1.175-1.495a5.445,5.445,0,0,1,1.922,1.708.32.32,0,0,1-.32.32H51.6a15.7,15.7,0,0,0,7.9,7.154v.214a.214.214,0,0,1-.214.214,2.669,2.669,0,0,0-1.495.747h-.107c-.427,0-4.484-3.1-6.406-7.9v6.406h.961c0-.107.747-1.175.961-1.175S54.7,42.725,54.7,43.152s-.107.214-.32.214Z" transform="translate(2.852 2.12)" fill="#1a1a1a"/>
      <path id="パス_1158" data-name="パス 1158" d="M51.274,59.049c0,2.563-2.242,6.62-3.524,7.9a1.815,1.815,0,0,1-1.281.641c-1.281,0-2.669-2.029-2.669-3.951a7.9,7.9,0,0,1,7.688-6.94c3.417,0,6.406,2.349,6.406,5.766,0,5.339-6.513,6.62-7.9,6.62l-.427-.214c0-.107.214-.214.534-.32s6.3-1.6,6.3-6.62a4.591,4.591,0,0,0-5.018-4.8H50.74a2.776,2.776,0,0,1,.534,1.708m-6.193,4.591c0,1.175.854,2.776,1.495,2.776s3.737-5.339,3.737-8.008a2.135,2.135,0,0,0-.107-.641,6.727,6.727,0,0,0-5.125,5.873" transform="translate(2.967 3.841)" fill="#1a1a1a"/>
      <path id="パス_1159" data-name="パス 1159" d="M53.377,91.8H48.359v1.388c0,.214-.214.534-.961.534s-.641-.107-.641-.427h0v-.747c0-.427.107-3.737.107-4.591V81.978H43.02a1.388,1.388,0,0,1-.32-.747h4.164V80.7a18.151,18.151,0,0,0-.214-3.1c1.388.107,2.242.214,2.242.534s-.214.427-.641.534,0,1.281,0,2.563h5.125V80.7a18.151,18.151,0,0,0-.214-3.1c1.281.107,2.242.107,2.242.534s-.214.427-.641.534,0,1.281,0,2.563h1.281a7.9,7.9,0,0,1,1.068-1.388h.107c.214,0,1.708,1.388,1.708,1.708s-.107.214-.32.214H54.872v5.659c0,.854,0,3.2.107,4.7s0,.534,0,.747-.107.534-.961.534-.641-.107-.641-.427h0V91.8Zm.107-9.823H48.359v4.057h5.125Zm0,4.591H48.359v4.7h5.018c0-1.388.107-3.1.107-3.737Z" transform="translate(2.892 5.256)" fill="#1a1a1a"/>
      <path id="パス_1160" data-name="パス 1160" d="M46.93,111.684H44.795v1.708c0,.214-.534.641-.854.641a.488.488,0,0,1-.534-.427h0c.107-.641.107-2.563.107-4.057v-4.057a17.19,17.19,0,0,0-.214-2.349l1.6.747h1.815c.534-.534.534-.641.641-.641s1.388.641,1.388,1.068-.107.32-.641.427,0,1.495,0,2.669v2.135a24.133,24.133,0,0,0,.107,2.776,4,4,0,0,1,.107.854c0,.107-.107.534-.854.534s-.534-.214-.534-.427v-1.6Zm0-2.029v-5.339H44.688v6.834H46.93Zm6.727,7.688c0,.107,0,.534-.961.534s-.534-.107-.534-.427h0c0-.427.107-2.563.107-4.164s.107-1.922.107-2.563a14.094,14.094,0,0,1-6.834,6.086.214.214,0,0,1-.214-.214h.107a16.016,16.016,0,0,0,6.513-7.367h-3.31a1.281,1.281,0,0,1-.32-.747h4.057v-3.1h-3.2a1.281,1.281,0,0,1-.32-.747h3.524v-1.281a20.606,20.606,0,0,0-.107-2.456c2.029,0,2.029.32,2.029.427s-.214.32-.641.534,0,1.388,0,2.776h1.815a5.659,5.659,0,0,1,1.068-1.388h.107a5.506,5.506,0,0,1,1.6,1.495.227.227,0,0,1-.32.32H53.657v3.417h2.669a9.086,9.086,0,0,1,1.068-1.388H57.5a4.384,4.384,0,0,1,1.6,1.495.214.214,0,0,1-.32.214H53.764a11.959,11.959,0,0,0,5.552,5.979h.107a.214.214,0,0,1-.214.214,2.99,2.99,0,0,0-1.495.534H57.5a13.987,13.987,0,0,1-3.951-6.513v6.513Z" transform="translate(2.933 6.834)" fill="#1a1a1a"/>
      <path id="パス_1161" data-name="パス 1161" d="M50.571,132.306l.961-.427,1.388-.534h.534c.641,0,1.388.32,1.388.747h0c0,.747-.854.747-1.495.854s-6.406,1.388-6.406,3.737,2.349,2.135,3.951,2.135a7.369,7.369,0,0,0,2.456-.32l.427-.214h.854c.747,0,1.281.214,1.281.747s-2.99,1.281-3.951,1.281c-4.164,0-5.659-1.815-5.659-3.31s1.922-3.1,3.737-4.057a2.242,2.242,0,0,1-.854-1.922v-.854c0-.32.107-1.922.107-2.456a1.175,1.175,0,0,0-.641-1.175c-.32-.214-.427-.32-.427-.427s.32-.214.641-.214S51,126.647,51,127.288v.32a13.133,13.133,0,0,0-.427,3.417c0,1.175.32,1.495.427,1.6Z" transform="translate(3.136 8.528)" fill="#1a1a1a"/>
      <path id="パス_1162" data-name="パス 1162" d="M59.6,158.516a32.352,32.352,0,0,0-.427,3.844,2.349,2.349,0,0,0,.214,1.068,1.281,1.281,0,0,1,.107.534.641.641,0,0,1-.641.747,1.5,1.5,0,0,1-1.068-.641c-1.815-2.135-2.563-5.873-2.563-10.571q0-1.6.107-3.417h-9.4c0,.107.107,3.524.107,4.7,0,5.232-1.6,8.115-3.417,9.93H42.52c-.107,0-.32-.107-.32-.214h0a15.575,15.575,0,0,0,2.563-9.289,38.118,38.118,0,0,0-.427-6.406,5.766,5.766,0,0,1,1.815.747H55.12c.214-.32.641-.747.747-.747s1.388.854,1.388,1.175-.214.32-.641.534a35.235,35.235,0,0,0-.214,3.844c0,5.445,1.495,7.474,1.6,7.474a33.308,33.308,0,0,0,1.068-3.417h.214c.214,0,.32.107.32.214Zm-9.716.534H48.393v.534h0c0,.214-.32.427-.747.427s-.427-.107-.427-.32h0c0-.32.107-1.6.107-2.135V155.74a8.969,8.969,0,0,0-.107-1.495l1.388.641h1.281v-2.029l-3.31.214c-.107,0-.214-.214-.214-.32h.107c1.708-.107,5.873-.747,6.727-1.708s1.175,1.068,1.175,1.388-.107.214-.32.214l-.534-.214-2.456.427V155.1H52.45c.214-.214.534-.641.641-.641s1.175.641,1.175.961-.214.32-.534.427,0,1.495,0,1.495v.214a4,4,0,0,0,.107,1.175.834.834,0,0,1,0,.534h0c0,.214-.214.427-.747.427s-.427-.107-.427-.32h0v-.32h-1.6v3.1l2.456-.214a6.834,6.834,0,0,0-1.175-1.708h0a.214.214,0,0,1,.214-.214c.214,0,2.883,1.815,2.883,3.31s-.427.854-.641.854-.427-.214-.641-.747l-.427-1.175a66.849,66.849,0,0,1-6.833,1.281c0,.427-.214.641-.32.641a5.323,5.323,0,0,1-.854-2.029h4.271Zm0-3.63H48.393v3.1h1.495Zm2.776,0h-1.6v3.2h1.6Z" transform="translate(2.858 10.079)" fill="#1a1a1a"/>
      <path id="パス_1163" data-name="パス 1163" d="M44.129,177.786c0,2.883-1.175,2.99-1.388,2.99s-.641-.107-.641-.747a1.068,1.068,0,0,1,.32-.747,4.271,4.271,0,0,0,.961-3.1v-.32h.427a9.5,9.5,0,0,1,.214,2.029m.747-2.563a19.219,19.219,0,0,0-.214-3.2c1.6.107,2.135.214,2.135.534s-.214.32-.641.427,0,9.61,0,9.61a45.733,45.733,0,0,0,.107,4.912c.107,1.068,0,.427,0,.641s-.641.534-.961.534-.534-.107-.534-.427h0v-.747c0-.427.107-3.951.107-4.8Zm2.456,2.135a5.338,5.338,0,0,0-.961-2.135h0l.214-.214c.107,0,1.922,1.175,1.922,2.135a.747.747,0,0,1-.641.747c-.214,0-.427-.214-.534-.641m3.417,1.495H47.759a1.281,1.281,0,0,1-.32-.747h5.018v-1.6H49.04a1.388,1.388,0,0,1-.32-.747l3.417.214h.427v-1.495H48.293a1.281,1.281,0,0,1-.32-.747l3.524.214h.961v-.534a13.241,13.241,0,0,0-.107-1.708s2.135,0,2.135.534-.214.32-.641.427,0,.641,0,1.175H56.3a6.406,6.406,0,0,1,.854-1.174h.107c.214,0,1.6,1.068,1.6,1.388s-.107.214-.32.214h-4.7v2.029H55.66c.747-.961.854-1.068.961-1.068s1.495.854,1.495,1.281-.107.214-.32.214H53.845v1.708h2.99c.32-.427.854-1.174,1.068-1.174s1.6.961,1.6,1.388-.107.214-.32.214Zm5.018,6.193H50.642v3.2h0c0,.214-.214.427-.854.427s-.534-.107-.534-.427h0c0-.32.107-.961.107-1.281v-4.912a16.337,16.337,0,0,0-.107-2.563l1.495.641h4.7l.534-.534h.214c.32,0,1.388.747,1.388,1.175s-.214.32-.641.427,0,1.281,0,2.135v1.388c0,.214.107,1.6.107,1.815h0c0,1.815-2.029,2.135-2.135,2.135s-.214-.214-.32-.32a3.548,3.548,0,0,0-1.708-.747c-1.068-.214-.107-.107-.107-.214s0-.214.107-.214h0l1.815.214a.854.854,0,0,0,.961-.961c0-.107,0-.747,0-1.068Zm0-4.271H50.642v1.6H55.66Zm0,2.135H50.642v1.708H55.66Z" transform="translate(2.852 11.63)" fill="#1a1a1a"/>
      <path id="パス_1164" data-name="パス 1164" d="M44.7,206.63a28.081,28.081,0,0,1,.854-5.659,12.92,12.92,0,0,0,.427-2.456,2.349,2.349,0,0,0-.534-1.6V196.7h.214c.747,0,1.922,1.495,1.922,2.349a2.136,2.136,0,0,1-.427.961,14.842,14.842,0,0,0-1.388,5.659c0,.214,0,1.281.32,1.281h.107c1.388-3.417,1.708-3.63,1.815-3.63s.107.107.107.214a.961.961,0,0,1-.107.427,16.336,16.336,0,0,0-1.281,4.591c0,.32.107.641.107,1.068a1.6,1.6,0,0,1,0,.32.694.694,0,0,1-.641.747,5.442,5.442,0,0,1-1.388-3.844m11.425-6.62h-.747a3.951,3.951,0,0,0-2.242,1.281l-.427.214h-.107l.214-.427.961-1.281H51.32c-1.068,0-1.281-.534-1.281-.641a.23.23,0,0,1,.214-.214H51.32l3.1-.427c.107,0,2.242,0,2.242.961s-.32.427-.534.427m-.961,9.4c-3.1,0-5.018-1.708-5.018-2.883s.32-.961.534-.961.214.107.214.214a.427.427,0,0,1,0,.214.747.747,0,0,0-.107.32c0,.427,1.068,1.6,3.63,1.6h.854l.854-.214h.32c.961,0,1.388.32,1.388.747s-2.456.961-2.563.961" transform="translate(3.028 13.323)" fill="#1a1a1a"/>
      <path id="パス_1165" data-name="パス 1165" d="M11.5,15.213c.107,0,.107.107.107.214a1.068,1.068,0,0,1-.107.32,17.831,17.831,0,0,0-1.175,4.591,2.349,2.349,0,0,0,0,.32v.747c0,.641-.32.641-.534.641S8.4,20.552,8.4,18.2v-.747a46.447,46.447,0,0,1,.961-5.339v-.854a5.766,5.766,0,0,0,.107-.747,2.563,2.563,0,0,0-.427-1.388V8.914A.23.23,0,0,1,9.254,8.7c.107,0,1.922,1.495,1.922,2.242s-.214.641-.32.854a20.394,20.394,0,0,0-1.388,5.339c0,1.388.32,1.495.32,1.495L10,18.416l1.281-2.99.214-.214m4.271,6.834c-1.175,0-2.669-.854-2.669-2.029S14.379,18.2,16.3,18.2H17.8V16.922a13.614,13.614,0,0,0-.107-2.029l-2.883.427c-.961,0-2.135-.427-2.135-1.388s.214-.747.32-.747.214.214.32.427a1.815,1.815,0,0,0,1.708.747l2.669-.32V12.651c0-.534-.107-1.175-.747-1.281l-.214-.214c0-.214.427-.214.427-.214s1.708.427,1.708,1.175a1.815,1.815,0,0,1-.107.534,5.873,5.873,0,0,0-.107,1.068,5.7,5.7,0,0,0,1.175-.427,1.281,1.281,0,0,1,.961-.427c.107,0,.747,0,.747.641s-1.068.854-2.883,1.281a15.117,15.117,0,0,0,.107,2.029,10.558,10.558,0,0,1,.107,1.6c0,.427,3.417,1.175,3.417,2.563s-.214.641-.534.641a.961.961,0,0,1-.641-.427,5.873,5.873,0,0,0-2.242-1.815c-.214,2.563-2.99,2.563-3.1,2.563m4.378-11.852-4.378.747h-.214c-1.175,0-1.815-.641-1.815-1.388a.427.427,0,0,1,.214-.427h0l.427.32a2.669,2.669,0,0,0,1.388.427,15.055,15.055,0,0,0,2.776-.534l.534-.32h.534c.534,0,1.068.107,1.068.641s-.214.427-.641.534m-4.271,8.649c-1.922,0-2.135.747-2.135,1.068s.961,1.068,2.029,1.068A2.029,2.029,0,0,0,17.8,19.057a6.086,6.086,0,0,0-1.922-.32" transform="translate(0.569 0.589)" fill="#1a1a1a"/>
      <path id="パス_1166" data-name="パス 1166" d="M14.357,39.808h-.32c-.427,0-.961-.214-.961-.32l.534-.214c4.271-.32,7.154-2.029,7.154-4.271s-2.349-2.242-2.776-2.242a6.086,6.086,0,0,0-3.844,1.495L13.183,35a1.6,1.6,0,0,1-.961.427c-.747,0-1.922-.641-1.922-1.281s0-.32.214-.32h.961l1.175-.32A11.638,11.638,0,0,1,18.094,31.8c1.6,0,3.951.854,3.951,3.2s-4.912,4.484-7.794,4.484" transform="translate(0.698 2.154)" fill="#1a1a1a"/>
      <path id="パス_1167" data-name="パス 1167" d="M19.3,62.938a11.532,11.532,0,0,1-3.2.427c-4.591,0-6.3-2.242-6.3-3.417a1.6,1.6,0,0,1,.747-1.388c.107,0,.107.107.107.214v.32a1.175,1.175,0,0,0-.107.534c0,.961,1.708,2.349,4.912,2.349l1.708-.214.961-.32h.427c1.495,0,1.6.427,1.6.747s-.214.534-.747.747m-1.281-9.823-1.281.214a6.62,6.62,0,0,0-1.495.747l-1.175.747h-.427c0-.107.107-.214.214-.427s1.6-1.708,1.6-1.708h-2.99c-1.922,0-2.135-1.068-2.135-1.175a.214.214,0,0,1,.214-.214h.32a2.349,2.349,0,0,0,1.175.32h.961l2.349-.214c2.99,0,3.31.747,3.31,1.068s-.214.427-.747.534" transform="translate(0.664 3.475)" fill="#1a1a1a"/>
      <path id="パス_1168" data-name="パス 1168" d="M11.968,88.282h-.214c0-.107.107-.32.427-.427a8.862,8.862,0,0,0,4.8-8.008c0-4.8-1.281-5.018-1.815-5.018s-2.883,3.1-2.883,5.445a8.242,8.242,0,0,0,.214,1.6v.214c0,.747-.427.747-.534.747A12.172,12.172,0,0,1,10.9,80.808c0-.107.107-.534.107-.747A18.152,18.152,0,0,1,11.754,76a7.794,7.794,0,0,0,.32-1.6,1.708,1.708,0,0,0-.427-1.174v-.32c0-.107.214-.107.32-.107a1.708,1.708,0,0,1,1.388,1.6,5.232,5.232,0,0,1-.214,1.281l-.32.961h.107c.961-2.242,1.922-2.563,2.669-2.563,2.563,0,2.99,4.057,2.99,5.979,0,4.8-2.99,6.94-6.086,8.222h-.427" transform="translate(0.738 4.931)" fill="#1a1a1a"/>
      <path id="パス_1169" data-name="パス 1169" d="M20.81,99.837a9.183,9.183,0,0,0-3.1-3.31l-.214-.214c0-.107.107-.214.32-.214s3.844,1.495,4.378,2.349a2.029,2.029,0,0,1,.32,1.068c0,.854-.534,1.175-.747,1.175s-.641-.32-.961-.854" transform="translate(1.185 6.509)" fill="#1a1a1a"/>
      <path id="パス_1170" data-name="パス 1170" d="M8.7,121.73a28.082,28.082,0,0,1,.854-5.659,12.919,12.919,0,0,0,.427-2.456,2.349,2.349,0,0,0-.534-1.6V111.8h.214c.747,0,1.922,1.495,1.922,2.349a2.136,2.136,0,0,1-.427.961,14.841,14.841,0,0,0-1.388,5.659c0,.214,0,1.281.32,1.281h.107c1.388-3.417,1.708-3.63,1.815-3.63s.107.107.107.214a.961.961,0,0,1-.107.427,16.336,16.336,0,0,0-1.281,4.591c0,.32.107.641.107,1.068a1.6,1.6,0,0,1,0,.32.694.694,0,0,1-.641.747,5.442,5.442,0,0,1-1.388-3.844m11.318-6.727h-.747a3.951,3.951,0,0,0-2.242,1.281l-.427.214H16.6l.214-.427L17.776,115H15.32c-1.068,0-1.281-.534-1.281-.641a.23.23,0,0,1,.214-.214H15.32l3.1-.427c.107,0,2.242,0,2.242.961s-.32.427-.534.427m-.961,9.4c-3.1,0-5.018-1.708-5.018-2.883s.32-.961.534-.961.214.107.214.214a.427.427,0,0,1,0,.214.747.747,0,0,0-.107.32c0,.427,1.068,1.6,3.63,1.6h.854l.854-.214h.32c.961,0,1.388.32,1.388.747s-2.456.961-2.563.961" transform="translate(0.589 7.573)" fill="#1a1a1a"/>
      <path id="パス_1171" data-name="パス 1171" d="M14.357,143.208h-.32c-.427,0-.961-.214-.961-.32l.534-.214c4.271-.32,7.154-2.029,7.154-4.271s-2.349-2.242-2.776-2.242a6.086,6.086,0,0,0-3.844,1.495l-.961.747a1.6,1.6,0,0,1-.961.427c-.747,0-1.922-.641-1.922-1.281s0-.32.214-.32h.961l1.175-.32a11.638,11.638,0,0,1,5.445-1.708c1.6,0,3.951.854,3.951,3.2s-4.912,4.484-7.794,4.484" transform="translate(0.698 9.158)" fill="#1a1a1a"/>
      <path id="パス_1172" data-name="パス 1172" d="M19.3,166.238a11.531,11.531,0,0,1-3.2.427c-4.591,0-6.3-2.242-6.3-3.417a1.6,1.6,0,0,1,.747-1.388c.107,0,.107.107.107.214v.32a1.175,1.175,0,0,0-.107.534c0,.961,1.708,2.349,4.912,2.349l1.708-.214.961-.32h.427c1.495,0,1.6.427,1.6.747s-.214.534-.747.747m-1.281-9.823-1.281.214a6.619,6.619,0,0,0-1.495.747l-1.175.747h-.427c0-.107.107-.214.214-.427s1.6-1.708,1.6-1.708h-2.99c-1.922,0-2.135-1.068-2.135-1.175a.214.214,0,0,1,.214-.214h.32a2.349,2.349,0,0,0,1.175.32h.961l2.349-.214c2.99,0,3.31.747,3.31,1.068s-.214.427-.747.534" transform="translate(0.664 10.472)" fill="#1a1a1a"/>
      <path id="パス_1173" data-name="パス 1173" d="M11.968,191.582h-.214c0-.107.107-.32.427-.427a8.862,8.862,0,0,0,4.8-8.008c0-4.8-1.281-5.018-1.815-5.018s-2.883,3.1-2.883,5.445a8.242,8.242,0,0,0,.214,1.6v.214c0,.747-.427.747-.534.747a12.172,12.172,0,0,1-1.068-2.029c0-.107.107-.534.107-.747a18.152,18.152,0,0,1,.747-4.057,7.794,7.794,0,0,0,.32-1.6,1.708,1.708,0,0,0-.427-1.175v-.32c0-.107.214-.107.32-.107a1.708,1.708,0,0,1,1.388,1.6,5.232,5.232,0,0,1-.214,1.281l-.32.961h.107c.961-2.242,1.922-2.563,2.669-2.563,2.563,0,2.99,4.057,2.99,5.979,0,4.8-2.99,6.94-6.086,8.222h-.427" transform="translate(0.738 11.928)" fill="#1a1a1a"/>
      <path id="パス_1174" data-name="パス 1174" d="M17.1,202.069a2.669,2.669,0,1,1,2.669,2.669,2.669,2.669,0,0,1-2.669-2.669m2.669-1.922a1.922,1.922,0,1,0,1.922,1.922,1.922,1.922,0,0,0-1.922-1.922" transform="translate(1.158 13.506)" fill="#1a1a1a"/>
    </g>
  </g>
</svg>
